<svg width="103" height="114" viewBox="0 0 103 114" fill="none" xmlns="http://www.w3.org/2000/svg">
<path d="M7.56382 52.0469H94.5503L93.3746 68.9006C83.5662 78.2374 68.2712 84.2917 51.0571 84.2917C33.8429 84.2917 18.5479 78.2374 8.73951 68.9006L7.56382 52.0469ZM9.07647 73.6489L11.2301 104.512C11.2301 109.696 16.1489 113.909 22.2178 113.909H79.9036C85.9725 113.909 90.8914 109.696 90.8914 104.512L93.045 73.6489C82.5883 82.0898 67.6559 87.4238 51.0607 87.4238C34.4655 87.4269 19.5368 82.0898 9.07647 73.6489ZM80.8925 22.6492L73.5051 32.5466C74.5343 32.4056 75.5964 32.3148 76.6915 32.3148C81.962 32.3148 86.6025 34.0343 89.6168 36.6652H96.8358C99.6193 36.6652 101.872 39.2555 101.872 42.4533C101.872 45.6512 99.6193 48.2414 96.8358 48.2414H5.27104C2.48748 48.2414 0.234985 45.6512 0.234985 42.4533C0.234985 39.2555 2.48748 36.6652 5.27104 36.6652H12.49C15.5043 34.0343 20.1448 32.3148 25.4153 32.3148C25.9573 32.3148 26.4774 32.3899 27.0122 32.4244C29.6566 27.9424 33.8026 25.0045 38.5237 25.0045C39.8386 25.0045 41.0838 25.302 42.2998 25.7249C44.838 23.6671 47.8303 22.4299 51.0607 22.4299C56.9392 22.4299 62.0741 26.3857 64.9969 32.3242L74.9481 18.9878C69.967 14.2395 68.9964 7.08273 73.1937 1.44812C74.2852 -0.0114327 76.545 -0.440528 78.2518 0.492832L100.784 12.7956C102.491 13.729 102.993 15.6646 101.901 17.1211C97.3668 23.2004 88.4081 25.3835 80.8925 22.6492ZM82.3209 16.2848C85.7491 18.1515 90.027 17.9511 93.1439 16.0655L77.9917 7.79371C77.3142 11.0135 78.9037 14.4149 82.3209 16.2848Z" fill="#EA39EE"/>
</svg>
