<svg width="255" height="120" viewBox="0 0 255 120" fill="none" xmlns="http://www.w3.org/2000/svg">
<path d="M106.416 103.112C105.648 102.685 105.221 102.216 105.136 101.704C105.093 101.192 105.392 100.296 106.032 99.016C106.672 97.736 107.675 95.752 109.04 93.064C110.064 91.144 110.832 89.6507 111.344 88.584C111.899 87.4747 112.261 86.6853 112.432 86.216C112.645 85.7467 112.752 85.448 112.752 85.32C112.667 84.936 112.709 84.6373 112.88 84.424C113.051 84.168 113.328 83.9547 113.712 83.784C113.925 83.5707 114.267 83.1867 114.736 82.632C115.248 82.0773 115.717 81.416 116.144 80.648C116.528 79.752 116.976 78.8347 117.488 77.896C118 76.9573 118.683 75.784 119.536 74.376C120.389 72.9253 121.499 71.048 122.864 68.744C123.717 67.2507 124.656 65.736 125.68 64.2C126.704 62.6213 127.792 61.064 128.944 59.528C129.413 58.9307 129.84 58.4613 130.224 58.12C130.608 57.736 130.992 57.5653 131.376 57.608C131.888 57.608 132.464 57.7787 133.104 58.12C133.787 58.4613 134.405 58.9093 134.96 59.464C135.515 60.0187 135.92 60.616 136.176 61.256C136.389 61.5973 136.475 62.3227 136.432 63.432C136.389 64.5413 136.304 65.8853 136.176 67.464C136.048 69.0427 135.899 70.728 135.728 72.52C135.6 74.2693 135.408 76.3387 135.152 78.728C134.896 81.1173 134.64 83.6133 134.384 86.216C134.171 88.8187 134 91.336 133.872 93.768C133.744 96.1573 133.744 98.248 133.872 100.04C133.915 100.424 133.915 100.787 133.872 101.128C133.829 101.469 133.808 101.747 133.808 101.96C133.552 102.216 133.125 102.323 132.528 102.28C131.973 102.28 131.419 102.152 130.864 101.896C130.352 101.64 130.053 101.32 129.968 100.936C129.84 100.808 129.755 100.637 129.712 100.424C129.712 100.168 129.733 99.656 129.776 98.888C129.819 98.12 129.861 96.904 129.904 95.24L130.224 84.872L129.392 84.936C129.008 84.936 128.283 84.9787 127.216 85.064C126.149 85.1493 124.997 85.2773 123.76 85.448C122.523 85.576 121.371 85.7253 120.304 85.896C119.28 86.024 118.576 86.152 118.192 86.28C117.808 86.28 117.339 86.536 116.784 87.048C116.272 87.56 115.781 88.2213 115.312 89.032C115.141 89.6293 114.821 90.2693 114.352 90.952C113.925 91.592 113.712 92.0187 113.712 92.232C113.413 92.4453 113.157 92.7013 112.944 93C112.773 93.2987 112.688 93.448 112.688 93.448C112.688 93.704 112.475 94.344 112.048 95.368C111.664 96.3493 111.173 97.4587 110.576 98.696C109.979 99.8907 109.381 100.936 108.784 101.832L107.44 103.88L106.416 103.112ZM119.664 82.504C119.664 82.504 119.877 82.4613 120.304 82.376C120.773 82.2907 121.307 82.2053 121.904 82.12C122.544 81.992 123.12 81.928 123.632 81.928C125.424 81.5013 126.725 81.224 127.536 81.096C128.347 80.9253 128.901 80.84 129.2 80.84C129.541 80.84 129.84 80.904 130.096 81.032C130.267 81.2453 130.416 81.3733 130.544 81.416C130.715 81.4587 130.8 81.48 130.8 81.48C130.843 81.3947 130.907 80.904 130.992 80.008C131.077 79.112 131.184 78.0027 131.312 76.68C131.483 75.3573 131.632 73.992 131.76 72.584C131.931 71.1333 132.059 69.8107 132.144 68.616C132.229 67.3787 132.293 66.44 132.336 65.8C132.379 64.9893 132.421 64.264 132.464 63.624C132.507 62.9413 132.528 62.6 132.528 62.6C132.272 62.6 131.717 63.0693 130.864 64.008C130.053 64.9467 129.136 66.184 128.112 67.72C127.088 69.256 126.128 70.8987 125.232 72.648C124.805 73.4587 124.4 74.184 124.016 74.824C123.632 75.464 123.333 75.784 123.12 75.784C123.035 75.8693 122.779 76.2533 122.352 76.936C121.968 77.576 121.541 78.3227 121.072 79.176C120.603 79.9867 120.219 80.7333 119.92 81.416C119.621 82.056 119.536 82.4187 119.664 82.504ZM150.829 99.912C149.976 99.8267 149.442 99.72 149.229 99.592C149.058 99.464 148.845 99.1227 148.589 98.568C148.248 98.184 148.034 97.8853 147.949 97.672C147.906 97.4587 147.906 97.2667 147.949 97.096C148.162 97.096 148.354 97.096 148.525 97.096C148.696 97.0533 148.802 96.968 148.845 96.84C148.845 96.712 148.909 96.6267 149.037 96.584C149.208 96.5413 149.378 96.5413 149.549 96.584C150.36 96.6267 151.384 96.3707 152.621 95.816C153.901 95.2187 155.266 94.408 156.717 93.384C158.21 92.3173 159.661 91.144 161.069 89.864C162.178 88.4133 162.989 87.2827 163.501 86.472C164.013 85.6187 164.312 84.936 164.397 84.424C164.482 83.8693 164.418 83.4 164.205 83.016C164.034 82.6747 163.416 82.5467 162.349 82.632C161.282 82.6747 160.088 83.1227 158.765 83.976C156.93 85.128 155.458 86.1947 154.349 87.176C153.24 88.1573 152.216 89.2667 151.277 90.504C150.936 90.9307 150.594 91.4427 150.253 92.04C149.954 92.6373 149.698 93.1493 149.485 93.576C149.272 94.0027 149.165 94.216 149.165 94.216C149.165 94.3867 148.909 94.6 148.397 94.856C147.928 95.112 147.522 95.24 147.181 95.24C147.01 95.1547 146.776 95.0053 146.477 94.792C146.221 94.536 146.05 94.216 145.965 93.832C145.666 93.6187 145.453 93.448 145.325 93.32C145.197 93.192 145.112 93.0427 145.069 92.872C145.026 92.616 145.09 92.2107 145.261 91.656C145.432 91.1013 145.666 90.2267 145.965 89.032C146.221 87.9227 146.498 86.7707 146.797 85.576C147.138 84.3813 147.458 83.3573 147.757 82.504C148.056 81.6507 148.269 81.1813 148.397 81.096C148.397 81.096 148.482 80.904 148.653 80.52C148.824 80.136 148.909 79.688 148.909 79.176C148.994 78.664 149.122 78.216 149.293 77.832C149.506 77.448 149.613 77.1707 149.613 77C149.784 76.872 150.04 76.36 150.381 75.464C150.722 74.568 151.149 73.3947 151.661 71.944C151.661 71.816 151.81 71.4107 152.109 70.728C152.408 70.0027 152.77 69.1707 153.197 68.232C153.624 67.2507 154.05 66.248 154.477 65.224C154.946 64.1573 155.33 63.2187 155.629 62.408C156.141 61.6827 156.525 61.0213 156.781 60.424C157.08 59.784 157.378 59.4 157.677 59.272C157.89 59.2293 158.146 59.2507 158.445 59.336C158.786 59.3787 159.106 59.4853 159.405 59.656C159.746 59.8267 160.024 60.0827 160.237 60.424C160.365 60.6373 160.45 60.8293 160.493 61C160.536 61.1707 160.472 61.4907 160.301 61.96C160.13 62.3867 159.789 63.1333 159.277 64.2C158.808 65.224 158.104 66.7173 157.165 68.68C155.97 71.24 154.989 73.5227 154.221 75.528C153.453 77.5333 152.813 79.304 152.301 80.84C151.789 82.376 151.32 83.6987 150.893 84.808L150.573 86.216L152.173 84.68C152.813 84.2107 153.517 83.6347 154.285 82.952C155.053 82.2693 155.736 81.672 156.333 81.16C156.674 80.904 157.122 80.648 157.677 80.392C158.274 80.0933 158.85 79.8373 159.405 79.624C159.96 79.4107 160.365 79.2827 160.621 79.24C160.749 79.1973 161.069 79.1333 161.581 79.048C162.093 78.9627 162.712 78.92 163.437 78.92C164.376 78.92 165.122 79.1333 165.677 79.56C166.274 79.9867 166.85 80.6693 167.405 81.608C167.874 82.504 168.066 83.528 167.981 84.68C167.896 85.7893 167.554 86.8347 166.957 87.816C166.744 87.9867 166.53 88.2213 166.317 88.52C166.104 88.776 165.997 88.9893 165.997 89.16C165.954 89.4587 165.57 90.0773 164.845 91.016C164.12 91.912 163.394 92.7653 162.669 93.576C161.901 94.3867 160.962 95.1973 159.853 96.008C158.744 96.776 157.634 97.48 156.525 98.12C155.458 98.7173 154.541 99.144 153.773 99.4C153.432 99.4427 152.941 99.528 152.301 99.656C151.661 99.7413 151.17 99.8267 150.829 99.912ZM179.154 100.04C178.599 100.04 178.151 99.9333 177.81 99.72C177.511 99.5067 177.127 99.208 176.658 98.824C175.847 97.9707 175.271 97.16 174.93 96.392C174.588 95.5813 174.482 94.8133 174.61 94.088C174.738 93.7467 174.78 93.4267 174.738 93.128C174.738 92.7867 174.738 92.616 174.738 92.616C174.524 92.4027 174.46 92.2747 174.546 92.232C174.631 92.1467 174.716 92.0187 174.802 91.848C175.058 91.848 175.143 91.6133 175.058 91.144C174.972 90.8027 175.143 90.056 175.57 88.904C175.996 87.752 176.53 86.664 177.17 85.64C177.426 85.2133 177.81 84.6587 178.322 83.976C178.834 83.2507 179.388 82.5467 179.986 81.864C180.626 81.1387 181.202 80.5627 181.714 80.136C182.78 79.24 183.719 78.5787 184.53 78.152C185.34 77.7253 186.215 77.4053 187.154 77.192C188.092 76.9787 188.732 76.872 189.074 76.872C189.458 76.872 189.97 77.2133 190.61 77.896C191.591 78.3227 192.295 78.8347 192.722 79.432C193.191 80.0293 193.49 80.904 193.618 82.056C193.746 83.336 193.639 84.808 193.298 86.472C192.999 88.0933 191.996 90.12 190.29 92.552C189.223 94.088 188.242 95.24 187.346 96.008C186.45 96.7333 185.383 97.4587 184.146 98.184C183.25 98.7813 182.439 99.2293 181.714 99.528C180.988 99.784 180.135 99.9547 179.154 100.04ZM185.298 93.256C186.322 92.104 187.132 91.016 187.73 89.992C188.37 88.968 188.967 87.6667 189.522 86.088C189.692 85.6187 189.799 85.0427 189.842 84.36C189.884 83.6347 189.863 82.9733 189.778 82.376C189.735 81.736 189.586 81.3733 189.33 81.288C188.818 80.9893 188.199 80.904 187.474 81.032C186.748 81.1173 185.959 81.5227 185.106 82.248C183.783 83.3573 182.631 84.744 181.65 86.408C180.668 88.0293 179.708 89.8853 178.77 91.976C178.13 93.512 177.98 94.7493 178.322 95.688C178.706 96.584 179.495 96.904 180.69 96.648C181.927 96.3493 183.463 95.2187 185.298 93.256ZM220.34 100.232C219.913 100.232 219.465 99.9973 218.996 99.528C218.569 99.0587 218.185 98.4827 217.844 97.8C217.545 97.0747 217.396 96.392 217.396 95.752C217.396 95.112 217.545 93.9173 217.844 92.168C218.185 90.4187 218.591 88.648 219.06 86.856C219.401 85.7467 219.508 85.1067 219.38 84.936C219.252 84.7653 218.676 85 217.652 85.64C217.055 85.9387 216.521 86.2587 216.052 86.6C215.583 86.8987 215.177 87.24 214.836 87.624C214.623 87.7947 214.303 88.072 213.876 88.456C213.449 88.84 213.001 89.2027 212.532 89.544C211.977 89.9707 211.273 90.568 210.42 91.336C209.567 92.104 208.713 92.872 207.86 93.64C207.049 94.408 206.431 95.0053 206.004 95.432C205.919 95.6027 205.791 95.752 205.62 95.88C205.449 96.008 205.257 96.0933 205.044 96.136C204.831 96.136 204.596 96.0933 204.34 96.008C203.871 95.88 203.423 95.6027 202.996 95.176C202.612 94.7493 202.42 94.2587 202.42 93.704C202.42 93.2773 202.591 92.552 202.932 91.528C203.273 90.4613 203.721 89.1813 204.276 87.688C204.873 86.1947 205.556 84.616 206.324 82.952C206.452 82.7387 206.559 82.4827 206.644 82.184C206.729 81.8427 206.793 81.48 206.836 81.096C206.921 80.712 206.964 80.3493 206.964 80.008C206.964 79.7947 206.985 79.5813 207.028 79.368C207.113 79.112 207.199 78.8773 207.284 78.664C207.412 78.408 207.519 78.2373 207.604 78.152C207.775 77.8107 208.073 77.7253 208.5 77.896C208.927 78.024 209.289 78.3227 209.588 78.792C210.228 79.3893 210.548 80.136 210.548 81.032C210.591 81.928 210.377 83.0373 209.908 84.36C209.737 84.6587 209.588 84.9573 209.46 85.256C209.375 85.512 209.289 85.7467 209.204 85.96C209.119 86.1307 209.055 86.28 209.012 86.408C208.969 86.4933 208.948 86.536 208.948 86.536C209.119 86.536 209.503 86.344 210.1 85.96C210.697 85.576 211.401 85.1493 212.212 84.68C212.852 84.2107 213.407 83.784 213.876 83.4C214.388 82.9733 214.815 82.6533 215.156 82.44C215.497 82.184 215.711 82.056 215.796 82.056C215.967 82.056 216.18 81.992 216.436 81.864C216.692 81.736 216.905 81.5867 217.076 81.416C217.247 81.2453 217.375 81.16 217.46 81.16C217.588 81.1173 217.652 81.096 217.652 81.096C217.652 81.096 217.737 81.096 217.908 81.096C218.079 81.0533 218.249 80.9467 218.42 80.776C218.761 80.52 219.209 80.456 219.764 80.584C220.319 80.6693 220.831 80.8827 221.3 81.224C221.769 81.5653 222.004 81.9493 222.004 82.376C222.004 82.5467 222.047 82.696 222.132 82.824C222.26 82.9093 222.324 82.952 222.324 82.952C222.665 82.952 222.879 83.4853 222.964 84.552C223.092 85.6187 222.985 86.6427 222.644 87.624C222.644 88.264 222.516 89.032 222.26 89.928C222.047 90.824 221.855 91.6773 221.684 92.488C221.343 93.5547 221.108 94.4933 220.98 95.304C220.852 96.1147 220.831 96.7973 220.916 97.352C221.001 97.9067 221.151 98.3547 221.364 98.696C221.535 98.9947 221.535 99.336 221.364 99.72C221.193 100.061 220.852 100.232 220.34 100.232ZM239.233 98.568C238.337 98.7387 237.761 98.8027 237.505 98.76C237.291 98.6747 236.95 98.4187 236.481 97.992C235.798 97.6507 235.222 97.224 234.753 96.712C234.326 96.2 234.006 95.6667 233.793 95.112C233.622 94.5147 233.558 94.024 233.601 93.64C233.729 92.1467 234.091 90.5467 234.689 88.84C235.286 87.1333 236.011 85.4907 236.865 83.912C237.718 82.3333 238.635 80.9893 239.617 79.88C240.641 78.728 241.622 77.9813 242.561 77.64C243.414 77.2987 244.225 77.1707 244.993 77.256C245.761 77.3413 246.315 77.7467 246.657 78.472C247.297 79.7093 247.147 80.4987 246.209 80.84C246.081 80.84 245.931 80.904 245.761 81.032C245.59 81.1173 245.505 81.2453 245.505 81.416C245.675 81.5013 246.145 81.5227 246.913 81.48C247.681 81.3947 248.449 81.2667 249.217 81.096C250.027 80.8827 250.561 80.6693 250.817 80.456C251.073 80.328 251.265 80.264 251.393 80.264C251.521 80.264 251.841 80.3067 252.353 80.392C253.078 80.6053 253.441 80.8613 253.441 81.16C253.441 81.3307 253.505 81.5013 253.633 81.672C253.761 81.8 253.91 81.864 254.081 81.864C254.379 81.9067 254.337 82.0987 253.953 82.44C253.611 82.7813 253.014 83.2507 252.161 83.848C251.35 84.36 250.838 84.7013 250.625 84.872C250.454 85 250.433 85.2987 250.561 85.768C250.902 86.5787 250.923 87.5173 250.625 88.584C250.326 89.6507 249.793 90.7387 249.025 91.848C248.257 92.9573 247.318 94.0027 246.209 94.984C245.142 95.9227 243.99 96.7333 242.753 97.416C241.558 98.056 240.385 98.44 239.233 98.568ZM238.145 95.752C238.315 95.752 238.614 95.6667 239.041 95.496C239.467 95.2827 239.809 95.112 240.065 94.984C240.235 94.8133 240.449 94.6213 240.705 94.408C241.003 94.152 241.238 94.0027 241.409 93.96C241.579 93.96 241.793 93.896 242.049 93.768C242.305 93.5973 242.667 93.2773 243.137 92.808C243.606 92.296 244.225 91.5493 244.993 90.568C245.846 89.6293 246.507 88.776 246.977 88.008C247.446 87.1973 247.574 86.4507 247.361 85.768C247.318 85.5973 247.19 85.4907 246.977 85.448C246.806 85.4053 246.571 85.2987 246.273 85.128C245.846 85.128 245.441 85.0213 245.057 84.808C244.715 84.552 244.31 84.232 243.841 83.848L242.817 82.568L241.729 83.656C241.046 84.3387 240.321 85.3627 239.553 86.728C238.827 88.0507 238.209 89.416 237.697 90.824C237.185 92.1893 236.886 93.2773 236.801 94.088C236.758 94.728 236.865 95.1547 237.121 95.368C237.377 95.5813 237.718 95.7093 238.145 95.752Z" fill="black"/>
<g clip-path="url(#clip0_235_23)">
<path d="M7.56382 52.0469H94.5503L93.3746 68.9006C83.5662 78.2374 68.2712 84.2917 51.0571 84.2917C33.8429 84.2917 18.5479 78.2374 8.73951 68.9006L7.56382 52.0469ZM9.07647 73.6489L11.2301 104.512C11.2301 109.696 16.1489 113.909 22.2178 113.909H79.9036C85.9725 113.909 90.8914 109.696 90.8914 104.512L93.045 73.6489C82.5883 82.0898 67.6559 87.4238 51.0607 87.4238C34.4655 87.4269 19.5368 82.0898 9.07647 73.6489ZM80.8925 22.6492L73.5051 32.5466C74.5343 32.4056 75.5964 32.3148 76.6915 32.3148C81.962 32.3148 86.6025 34.0343 89.6168 36.6652H96.8358C99.6193 36.6652 101.872 39.2555 101.872 42.4533C101.872 45.6512 99.6193 48.2414 96.8358 48.2414H5.27104C2.48748 48.2414 0.234985 45.6512 0.234985 42.4533C0.234985 39.2555 2.48748 36.6652 5.27104 36.6652H12.49C15.5043 34.0343 20.1448 32.3148 25.4153 32.3148C25.9573 32.3148 26.4774 32.3899 27.0122 32.4244C29.6566 27.9424 33.8026 25.0045 38.5237 25.0045C39.8386 25.0045 41.0838 25.302 42.2998 25.7249C44.838 23.6671 47.8303 22.4299 51.0607 22.4299C56.9392 22.4299 62.0741 26.3857 64.9969 32.3242L74.9481 18.9878C69.967 14.2395 68.9964 7.08273 73.1937 1.44812C74.2852 -0.0114327 76.545 -0.440528 78.2518 0.492832L100.784 12.7956C102.491 13.729 102.993 15.6646 101.901 17.1211C97.3668 23.2004 88.4081 25.3835 80.8925 22.6492ZM82.3209 16.2848C85.7491 18.1515 90.027 17.9511 93.1439 16.0655L77.9917 7.79371C77.3142 11.0135 78.9037 14.4149 82.3209 16.2848Z" fill="#EA39EE"/>
</g>
<defs>
<clipPath id="clip0_235_23">
<rect width="110" height="120" fill="white"/>
</clipPath>
</defs>
</svg>
