<svg width="120" height="120" viewBox="0 0 120 120" fill="none" xmlns="http://www.w3.org/2000/svg">
<path d="M119.422 44.7287C118.986 44.3608 118.36 44.1504 117.703 44.1504H21.0284L19.8801 37.0078C19.0911 32.0989 13.514 28.397 6.90757 28.397H2.29721C1.02823 28.397 0 29.1668 0 30.1162C0 31.0657 1.02823 31.8355 2.29721 31.8355H6.90757C11.1911 31.8355 14.8072 34.2356 15.3187 37.4186L24.6672 95.5618C25.4887 100.67 31.2917 104.521 38.1656 104.521H47.1171L46.1391 105.908C45.4021 105.771 44.6327 105.697 43.84 105.697C38.5711 105.697 34.2848 108.905 34.2848 112.849C34.2848 116.792 38.5711 120 43.84 120C49.1089 120 53.3955 116.792 53.3955 112.849C53.3955 110.732 52.159 108.827 50.199 107.517L52.3121 104.521H99.7098L98.7318 105.908C97.9948 105.771 97.2254 105.697 96.4327 105.697C91.1638 105.697 86.8772 108.905 86.8772 112.849C86.8772 116.792 91.1638 120 96.4327 120C101.702 120 105.988 116.792 105.988 112.849C105.988 110.732 104.752 108.827 102.792 107.517L104.905 104.521H106.816C108.085 104.521 109.113 103.752 109.113 102.802C109.113 101.853 108.085 101.083 106.816 101.083H38.1653C33.6144 101.083 29.7722 98.5327 29.2282 95.151L27.9568 87.2439H111.327C112.49 87.2439 113.469 86.594 113.608 85.73L119.983 46.075C120.062 45.5868 119.858 45.0967 119.422 44.7287ZM48.8011 112.849C48.8011 114.896 46.5755 116.561 43.84 116.561C41.1045 116.561 38.8793 114.896 38.8793 112.849C38.8793 110.801 41.1048 109.136 43.84 109.136C43.8471 109.136 43.8541 109.136 43.8612 109.136L41.8087 112.046C41.216 112.885 41.6454 113.925 42.7674 114.369C43.1095 114.504 43.4761 114.568 43.8379 114.568C44.6624 114.568 45.4597 114.234 45.8714 113.651L47.9226 110.743C48.4752 111.342 48.8011 112.067 48.8011 112.849ZM101.394 112.849C101.394 114.896 99.1686 116.561 96.433 116.561C93.6975 116.561 91.472 114.896 91.472 112.849C91.472 110.801 93.6975 109.136 96.433 109.136C96.4401 109.136 96.4471 109.136 96.4542 109.136L94.4017 112.046C93.809 112.885 94.2384 113.925 95.3604 114.369C95.7025 114.504 96.0692 114.568 96.4309 114.568C97.2554 114.568 98.0527 114.234 98.4644 113.651L100.516 110.743C101.068 111.342 101.394 112.067 101.394 112.849ZM59.1747 47.5889H77.5196L76.1587 83.8054H60.5359L59.1747 47.5889ZM55.9396 83.8054H42.6599L38.8918 47.5889H54.5784L55.9396 83.8054ZM82.1159 47.5889H97.8025L94.0344 83.8054H80.7547L82.1159 47.5889ZM21.5816 47.5889H34.2833L38.0514 83.8054H27.4042L21.5816 47.5889ZM109.29 83.8054H98.643L102.411 47.5889H115.113L109.29 83.8054Z" fill="#EA39EE"/>
<path d="M29.8596 25.9122C29.862 26.8451 29.8645 27.7236 30.0159 28.656C31.5548 38.0913 37.1896 38.3162 41.4131 38.1701C41.6219 45.5119 44.6062 52.0684 49.2388 56.5604C49.2987 56.6248 49.3615 56.6892 49.4214 56.7481C49.5386 56.8591 49.6563 56.9735 49.776 57.079C55.0196 62.274 62.6627 65.9462 72.6407 66.456C73.684 66.5115 74.6912 66.5321 75.6691 66.5321C89.2004 66.5321 96.7025 61.6598 100.662 57.41C104.619 53.1613 106.8 47.7403 106.8 42.1384C106.8 41.3132 106.2 40.6396 105.465 40.6396C104.729 40.6396 104.129 41.3132 104.129 42.1384C104.129 46.8419 102.191 51.6209 98.8183 55.2432C94.9445 59.3986 87.2934 64.2131 72.7604 63.4607C70.4414 63.3402 68.2579 63.0386 66.213 62.5849C75.171 61.3699 82.1493 52.892 82.3318 42.5576C82.6969 42.7453 83.0832 42.9125 83.5057 43.0502C84.1394 43.249 84.729 43.3484 85.3028 43.3484C88.3708 43.3484 90.3455 40.6163 92.714 35.8961C93.6321 34.0714 94.8891 32.4054 98.0718 30.2075C98.4893 29.9187 98.7322 29.3979 98.706 28.8487C98.6768 28.2995 98.3874 27.8119 97.9466 27.5775C97.6934 27.4426 91.6836 24.2551 86.1502 24.2551C80.8859 24.2551 78.5723 27.1161 77.5523 29.8588C75.1601 27.3621 72.0427 25.7328 68.5919 25.4235C68.3885 24.3445 67.924 23.3427 67.2147 22.5364C65.2583 20.3019 61.8173 20.2608 59.8164 22.4615C57.7605 24.7338 57.7323 28.4588 59.7511 30.765C60.7449 31.8984 62.0701 32.522 63.4863 32.522C64.864 32.522 66.1655 31.9245 67.1489 30.8394C67.7539 30.1703 68.1739 29.3518 68.4326 28.4677C74.7139 29.0708 79.676 34.9349 79.676 42.1389C79.676 51.8463 72.6373 59.7506 63.9874 59.7506C59.2213 59.7506 54.8469 57.8592 51.4114 54.7167C46.7501 50.0432 44.2901 44.0575 44.0839 38.1601C44.1388 38.1601 44.1828 38.1601 44.2377 38.1629C44.7517 38.1807 45.2889 38.204 45.837 38.204C49.7968 38.204 54.5184 37.1206 55.8956 28.6543C56.05 27.7219 56.0519 26.8434 56.0549 25.9077C56.0628 23.1378 56.0707 19.9981 60.3956 14.1734C60.6954 13.7692 60.7845 13.2144 60.6281 12.7169C60.4738 12.2193 60.0934 11.85 59.6314 11.7462C59.3939 11.6945 54.3517 10.7594 49.5045 13.7036C49.2462 12.0838 48.7926 10.7105 48.3751 9.4544C47.5273 6.90552 46.9198 5.068 48.0546 2.08931C48.2505 1.58286 48.1773 0.990902 47.8691 0.559425C47.5609 0.125727 47.0603 -0.0764071 46.5805 0.0263255C46.3534 0.0746376 40.9823 1.26467 38.0113 6.16974C36.7226 8.29269 36.0835 10.7616 36.1068 13.5348C31.3851 10.8088 26.5042 11.6973 26.2722 11.7484C25.8102 11.8528 25.4347 12.2215 25.2755 12.7191C25.1191 13.2166 25.2102 13.7719 25.5075 14.1762C29.8388 20.0025 29.8467 23.1417 29.8596 25.9122ZM65.2771 28.7015C64.304 29.7777 62.6187 29.7633 61.659 28.6621C60.6702 27.5348 60.6885 25.7117 61.6927 24.5989C62.1725 24.0691 62.8091 23.7775 63.4824 23.7775C64.1764 23.7775 64.8259 24.0841 65.3112 24.6416C65.7885 25.188 66.0492 25.9127 66.0438 26.6802C66.0389 27.4454 65.7648 28.1612 65.2771 28.7015ZM79.7942 31.6852C80.6208 28.7009 82.6974 27.2532 86.1537 27.2532C89.1588 27.2532 92.4429 28.375 94.5586 29.2507C92.6566 30.845 91.3838 32.4443 90.3846 34.4218C87.7262 39.7105 86.5237 40.8934 84.2309 40.1648C83.1926 39.8333 82.507 39.2952 82.1805 38.5627C81.8906 37.898 81.9064 37.1572 81.9895 36.5947C83.573 32.3721 86.4322 32.4321 86.586 32.4554C87.3087 32.4759 87.9503 31.8945 88.0052 31.0766C88.0596 30.2525 87.512 29.5289 86.7789 29.4628C86.5934 29.4484 82.9106 29.1935 80.4293 33.4938C80.3151 33.4172 80.2077 33.3267 80.1217 33.1917C79.7625 32.6531 79.7442 31.8862 79.7942 31.6852ZM36.9032 17.6391C37.344 18.0201 37.944 18.0517 38.4164 17.7252C38.8908 17.3987 39.1337 16.7812 39.0293 16.1659C37.7273 8.49205 42.0473 5.12853 44.862 3.77856C44.5206 6.40241 45.2063 8.47705 45.8795 10.5017C46.4533 12.2226 47.043 14.0013 47.0534 16.2942C47.0558 16.8584 47.3427 17.3748 47.7944 17.6264C48.248 17.8813 48.7857 17.8268 49.1849 17.4875C51.8769 15.2385 54.7153 14.6249 56.7707 14.5427C53.4054 19.8637 53.3951 23.3044 53.3876 25.8988C53.3852 26.729 53.3822 27.4465 53.2753 28.1156C52.2083 34.6544 49.0182 35.1964 45.8409 35.1964C45.3245 35.1964 44.816 35.1792 44.3307 35.162C43.8509 35.1442 43.3918 35.1292 42.9585 35.1292C42.5256 35.1292 42.0666 35.1437 41.5887 35.162C38.1117 35.293 33.8857 35.7184 32.6436 28.1134C32.5343 27.4443 32.5313 26.7268 32.5313 25.8966C32.5209 23.3022 32.5105 19.8598 29.1453 14.5405C31.258 14.6316 34.1642 15.2757 36.9032 17.6391Z" fill="#EA39EE"/>
</svg>
