<svg width="50" height="51" viewBox="0 0 50 51" fill="none" xmlns="http://www.w3.org/2000/svg">
<path d="M50.0011 25.2495C50.0011 30.1942 48.5348 35.0279 45.7876 39.1393C43.0405 43.2507 39.1359 46.4552 34.5675 48.3474C29.9992 50.2397 24.9723 50.7348 20.1226 49.7701C15.2728 48.8055 10.8181 46.4243 7.32161 42.9279C3.82515 39.4314 1.44403 34.9767 0.479362 30.1269C-0.485309 25.2772 0.00979495 20.2503 1.90207 15.682C3.79434 11.1136 6.99878 7.209 11.1102 4.46185C15.2216 1.7147 20.0553 0.248413 25 0.248413C28.2832 0.248413 31.5342 0.895085 34.5675 2.15151C37.6008 3.40793 40.3569 5.24949 42.6784 7.57105C45 9.89261 46.8416 12.6487 48.098 15.682C49.3544 18.7152 50.0011 21.9663 50.0011 25.2495ZM39.4537 17.9137C39.452 17.3882 39.2426 16.8848 38.871 16.5132C38.4995 16.1417 37.996 15.9322 37.4706 15.9305H16.7642L15.3874 12.7726C15.293 12.5571 15.138 12.3736 14.9412 12.2447C14.7444 12.1157 14.5143 12.0468 14.279 12.0463H9.77897C9.45736 12.0463 9.14893 12.1741 8.92151 12.4015C8.6941 12.6289 8.56634 12.9373 8.56634 13.2589C8.56634 13.5805 8.6941 13.889 8.92151 14.1164C9.14893 14.3438 9.45736 14.4716 9.77897 14.4716H13.4832L19.12 27.4063C19.03 27.3849 18.9378 27.3743 18.8453 27.3747C17.8729 27.3747 16.9404 27.761 16.2528 28.4486C15.5652 29.1361 15.179 30.0687 15.179 31.041C15.179 32.0134 15.5652 32.946 16.2528 33.6335C16.9404 34.3211 17.8729 34.7074 18.8453 34.7074H18.9779C18.526 35.0014 18.1813 35.4337 17.995 35.9397C17.8088 36.4456 17.791 36.9982 17.9444 37.5151C18.0978 38.032 18.4141 38.4855 18.8462 38.8079C19.2783 39.1304 19.803 39.3046 20.3421 39.3046C20.8813 39.3046 21.406 39.1304 21.8381 38.8079C22.2702 38.4855 22.5865 38.032 22.7398 37.5151C22.8932 36.9982 22.8755 36.4456 22.6892 35.9397C22.503 35.4337 22.1582 35.0014 21.7063 34.7074H32.6074C32.1555 35.0014 31.8108 35.4337 31.6245 35.9397C31.4383 36.4456 31.4205 36.9982 31.5739 37.5151C31.7273 38.032 32.0436 38.4855 32.4757 38.8079C32.9077 39.1304 33.4325 39.3046 33.9716 39.3046C34.5108 39.3046 35.0355 39.1304 35.4676 38.8079C35.8996 38.4855 36.2159 38.032 36.3693 37.5151C36.5227 36.9982 36.5049 36.4456 36.3187 35.9397C36.1325 35.4337 35.7877 35.0014 35.3358 34.7074H37.12C37.2843 34.7158 37.4485 34.6906 37.6027 34.6336C37.757 34.5765 37.898 34.4887 38.0172 34.3754C38.1364 34.2621 38.2313 34.1257 38.2962 33.9746C38.3611 33.8235 38.3945 33.6608 38.3945 33.4963C38.3945 33.3319 38.3611 33.1691 38.2962 33.018C38.2313 32.8669 38.1364 32.7305 38.0172 32.6173C37.898 32.504 37.757 32.4161 37.6027 32.359C37.4485 32.302 37.2843 32.2769 37.12 32.2853H18.8421C18.5126 32.2853 18.1965 32.1543 17.9635 31.9213C17.7304 31.6883 17.5995 31.3722 17.5995 31.0426C17.5995 30.7131 17.7304 30.397 17.9635 30.164C18.1965 29.9309 18.5126 29.8 18.8421 29.8C18.9466 29.7998 19.0507 29.786 19.1516 29.7589L37.4769 27.8579C38.0142 27.7905 38.5093 27.532 38.8717 27.1296C39.2341 26.7271 39.4396 26.2077 39.4506 25.6663L39.4537 17.9137Z" fill="#5B59C9" fill-opacity="0.71"/>
</svg>
