<svg width="35" height="32" viewBox="0 0 35 32" fill="none" xmlns="http://www.w3.org/2000/svg">
<path opacity="0.5" d="M17.1029 16.6776C18.15 16.6776 19.0524 16.6774 19.7749 16.7793C20.5494 16.8884 21.2916 17.1344 21.8937 17.7652C22.4957 18.3962 22.7306 19.1738 22.8347 19.9853C22.9257 20.695 22.9314 21.5704 22.9317 22.581V29.8807H11.1184V22.785C11.1184 21.6879 11.1183 20.7424 11.2155 19.9853C11.3196 19.1738 11.5544 18.3962 12.1564 17.7652C12.7585 17.1344 13.5008 16.8884 14.2752 16.7793C14.9977 16.6774 15.9001 16.6776 16.9472 16.6776H17.1029Z" fill="#1C274C"/>
<path opacity="0.5" d="M23.0331 0H27.0143C27.4539 0 27.8105 0.356492 27.8105 0.79624V7.38839L22.2368 2.92945V0.79624C22.2368 0.356492 22.5934 0 23.0331 0Z" fill="#1C274C"/>
<path fill-rule="evenodd" clip-rule="evenodd" d="M32.2979 14.2211L31.0534 13.2254V29.6113H33.044C33.7036 29.6113 34.2383 30.146 34.2383 30.8056C34.2383 31.4654 33.7036 32 33.044 32H1.19441C0.534768 32 4.54105e-05 31.4654 4.54105e-05 30.8056C4.54105e-05 30.146 0.534768 29.6113 1.19441 29.6113H3.185V13.2254L1.94051 14.2211C1.42543 14.6332 0.673823 14.5496 0.261769 14.0346C-0.150301 13.5194 -0.066791 12.7678 0.448297 12.3558L13.3886 2.0035C15.5697 0.258681 18.6688 0.258681 20.8497 2.0035L33.79 12.3558C34.3052 12.7678 34.3886 13.5194 33.9767 14.0346C33.5645 14.5496 32.813 14.6332 32.2979 14.2211ZM17.1192 6.52037C14.7005 6.52037 12.7399 8.48107 12.7399 10.8997C12.7399 13.3183 14.7005 15.2789 17.1192 15.2789C19.5378 15.2789 21.4985 13.3183 21.4985 10.8997C21.4985 8.48107 19.5378 6.52037 17.1192 6.52037ZM19.8995 16.9695C19.1688 16.8714 18.2567 16.8714 17.1978 16.8714H17.0406C15.9818 16.8714 15.0695 16.8714 14.339 16.9695C13.5561 17.0748 12.8056 17.3122 12.1969 17.921C11.5881 18.5297 11.3508 19.2802 11.2455 20.0631C11.1473 20.7935 11.1473 21.7059 11.1474 22.7647V29.6113H13.5361H20.7022H23.091V22.7647V22.5679C23.0906 21.5925 23.0849 20.748 22.9929 20.0631C22.8876 19.2802 22.6503 18.5297 22.0415 17.921C21.4329 17.3122 20.6823 17.0748 19.8995 16.9695Z" fill="#1C274C"/>
</svg>
