<svg width="322" height="134" viewBox="0 0 322 134"  xmlns="http://www.w3.org/2000/svg">
<g id="Group 6">
<g id="Vector 1">
<path d="M58.1287 120H47.406C42.4573 100.398 41.8396 89.3594 42.8911 69.6226C38.399 64.4191 36.3989 60.971 33.8614 53.7736C37.3119 59.8392 39.5349 62.8825 44.2746 67.3585C47.174 58.8371 49.7314 52.7585 52.4852 47.7955C47.1957 39.7832 47.1996 35.4759 46.2772 27.7358C49.1461 38.6754 50.8221 42.7612 53.9532 45.283C57.0319 40.2805 60.4524 36.3164 64.901 31.6981C51.8463 46.1291 41.7624 86.0377 48.5347 89.434C55.3069 92.8302 65.4189 82.1296 74.4951 74.717C68.302 85.2606 53.0629 94.6576 49.6634 96.7924C46.2638 98.9273 58.1287 120 58.1287 120Z"/>
<path d="M84.0891 64.5283C82.7661 76.2096 79.8788 81.5704 71.6733 89.434C95.7151 91.5243 106.042 74.8098 114 40.1887C80.3049 44.0553 60.7117 45.6572 57.5644 74.1509C65.5059 65.8698 71.2024 63.5476 84.0891 64.5283Z" fill="#EA39EE"/>
<path d="M72.802 22.6415C73.3699 30.5918 71.1399 33.8278 66.0297 39.0566C83.7653 34.1242 88.0078 25.9127 90.297 6.22641C66.8347 9.04513 59.0662 13.665 57.5644 28.8679C62.1098 23.1831 65.3026 21.4875 72.802 22.6415Z" fill="#EA39EE"/>
<path d="M40.0693 29.434C31.5871 21.2145 32.934 14.187 39.5049 0C51.6159 10.1783 54.0007 15.8928 51.1286 26.0923L51.1117 26.0557C48.8827 21.2169 47.6278 18.493 42.8911 16.9811C39.6595 20.4653 39.5346 23.5112 40.0693 29.434Z" fill="#EA39EE"/>
<path d="M41.7624 49.8113C42.4496 32.7429 33.1547 25.844 0 18.1132C4.07819 49.2223 10.2019 59.6684 29.9109 62.2641C23.3626 54.9095 20.5801 50.6312 22.0099 41.8868C32.7147 41.5362 36.2644 44.1644 41.7624 49.8113Z" fill="#EA39EE"/>
</g>
<path id="Senda&#226;&#128;&#168;" d="M124.256 65.2C123.488 64.9867 122.869 64.7947 122.4 64.624C121.931 64.496 121.696 64.432 121.696 64.432C121.781 64.2187 121.739 64.0267 121.568 63.856C121.44 63.6853 121.141 63.5787 120.672 63.536C120.032 63.152 119.435 62.6613 118.88 62.064C118.368 61.5093 117.941 60.9547 117.6 60.4C117.259 59.8453 117.003 59.376 116.832 58.992C116.533 58.352 116.384 57.968 116.384 57.84C116.427 57.6693 116.683 57.4773 117.152 57.264C117.621 56.9227 117.963 56.816 118.176 56.944C118.432 57.072 118.731 57.4987 119.072 58.224C119.627 59.2053 120.565 59.952 121.888 60.464C123.253 60.976 124.768 61.2107 126.432 61.168C128.139 61.0827 129.76 60.6987 131.296 60.016C132.875 59.376 133.856 58.7147 134.24 58.032C134.667 57.3067 134.517 56.3893 133.792 55.28C133.664 54.9387 133.515 54.6613 133.344 54.448C133.173 54.2347 132.896 53.9573 132.512 53.616C132.171 53.2747 131.595 52.72 130.784 51.952C130.144 51.6533 129.547 51.376 128.992 51.12C128.48 50.864 127.925 50.5867 127.328 50.288C126.645 49.9467 125.813 49.456 124.832 48.816C123.893 48.1333 122.997 47.3867 122.144 46.576C121.291 45.7653 120.672 45.0187 120.288 44.336C119.605 43.696 119.093 42.8213 118.752 41.712C118.411 40.56 118.283 39.344 118.368 38.064C118.453 36.784 118.773 35.632 119.328 34.608C119.584 34.0107 120.011 33.2853 120.608 32.432C121.248 31.536 121.952 30.64 122.72 29.744C123.488 28.848 124.235 28.0373 124.96 27.312C125.685 26.5867 126.283 26.0747 126.752 25.776C127.093 25.4347 127.456 25.0933 127.84 24.752C128.224 24.368 128.416 24.176 128.416 24.176C128.459 23.9627 128.523 23.856 128.608 23.856C128.736 23.856 128.8 23.856 128.8 23.856C129.013 23.728 129.483 23.5147 130.208 23.216C130.933 22.9173 131.723 22.3627 132.576 21.552C135.435 20.1867 137.76 19.184 139.552 18.544C141.344 17.904 142.816 17.584 143.968 17.584C145.035 17.6267 145.995 17.8827 146.848 18.352C147.744 18.7787 148.469 19.3547 149.024 20.08C149.621 20.8053 149.984 21.68 150.112 22.704C150.411 23.728 150.325 24.9227 149.856 26.288C149.387 27.6107 148.683 28.8693 147.744 30.064C146.848 31.216 145.867 32.0907 144.8 32.688C143.605 33.2 142.795 33.4347 142.368 33.392C141.984 33.3067 141.813 32.8587 141.856 32.048C141.856 31.7067 141.963 31.3013 142.176 30.832C142.432 30.3627 143.093 29.5307 144.16 28.336C145.525 26.3307 146.357 24.7307 146.656 23.536C146.955 22.3413 146.677 21.68 145.824 21.552C145.568 21.4667 145.099 21.4667 144.416 21.552C143.776 21.6373 143.051 21.7653 142.24 21.936C141.472 22.064 140.811 22.2133 140.256 22.384C139.701 22.512 139.424 22.6187 139.424 22.704C139.424 22.704 139.424 22.768 139.424 22.896C139.424 23.024 139.339 23.0667 139.168 23.024C139.083 23.024 138.72 23.1947 138.08 23.536C137.44 23.8773 136.672 24.3253 135.776 24.88C134.88 25.4347 133.984 25.9893 133.088 26.544C132.192 27.0987 131.424 27.5893 130.784 28.016C130.187 28.4 129.867 28.6347 129.824 28.72C129.739 29.1893 129.248 29.616 128.352 30C127.499 30.512 126.709 31.2587 125.984 32.24C125.301 33.2213 124.533 34.4373 123.68 35.888C122.955 36.8693 122.443 37.936 122.144 39.088C121.845 40.1973 121.845 41.0933 122.144 41.776C122.357 42.4587 123.019 43.3333 124.128 44.4C125.237 45.4667 126.624 46.4907 128.288 47.472C129.739 48.2827 131.04 49.0933 132.192 49.904C133.344 50.672 134.283 51.4187 135.008 52.144C135.776 52.8693 136.288 53.5093 136.544 54.064C137.056 54.7893 137.419 55.536 137.632 56.304C137.888 57.0293 138.016 57.7333 138.016 58.416C138.059 59.0987 137.995 59.7173 137.824 60.272C137.525 60.9547 136.992 61.6587 136.224 62.384C135.499 63.1093 134.88 63.4507 134.368 63.408C133.899 63.536 133.536 63.6853 133.28 63.856C133.067 64.0267 132.811 64.176 132.512 64.304C132.213 64.4747 131.573 64.6453 130.592 64.816C129.653 64.9867 128.608 65.0933 127.456 65.136C126.304 65.2213 125.237 65.2427 124.256 65.2ZM158.739 59.76C157.843 60.528 156.798 60.976 155.603 61.104C154.451 61.232 153.32 61.0613 152.211 60.592C151.102 60.08 150.184 59.312 149.459 58.288C148.734 57.3493 148.264 56.2827 148.051 55.088C147.838 53.8507 147.816 52.2507 147.987 50.288C148.115 48.624 148.648 46.96 149.587 45.296C150.526 43.5893 151.656 42.0747 152.979 40.752C154.344 39.4293 155.688 38.512 157.011 38C157.651 37.5733 158.184 37.3813 158.611 37.424C159.08 37.424 159.784 37.4667 160.723 37.552C161.704 37.68 162.43 37.872 162.899 38.128C163.411 38.384 163.816 38.7253 164.115 39.152C164.755 39.792 165.182 40.432 165.395 41.072C165.608 41.6693 165.715 42.2667 165.715 42.864C165.544 43.8027 164.904 44.9547 163.795 46.32C162.728 47.6427 161.32 48.7307 159.571 49.584C158.632 49.8827 157.608 50.0107 156.499 49.968C155.39 49.9253 154.472 49.648 153.747 49.136C152.936 48.7947 152.403 48.8587 152.147 49.328C151.891 49.7547 151.656 50.8213 151.443 52.528C151.272 54.1493 151.4 55.344 151.827 56.112C152.254 56.8373 152.83 57.264 153.555 57.392C154.408 57.5627 155.07 57.6907 155.539 57.776C156.051 57.8187 156.67 57.6267 157.395 57.2C158.078 56.7733 158.504 56.5387 158.675 56.496C158.846 56.4107 158.974 56.3253 159.059 56.24C159.187 56.112 159.464 55.8347 159.891 55.408C160.19 55.1093 160.424 54.896 160.595 54.768C160.766 54.5973 160.958 54.512 161.171 54.512C161.384 54.512 161.576 54.6187 161.747 54.832C161.918 55.0027 162.088 55.1307 162.259 55.216C162.686 55.216 162.771 55.472 162.515 55.984C162.302 56.496 161.854 57.1147 161.171 57.84C160.488 58.5227 159.678 59.1627 158.739 59.76ZM158.675 46.192C159.144 45.9787 159.635 45.68 160.147 45.296C160.659 44.8693 161.086 44.4213 161.427 43.952C161.811 43.44 162.003 43.0133 162.003 42.672C162.003 42.0747 161.726 41.584 161.171 41.2C160.616 40.7733 159.784 40.7093 158.675 41.008C158.206 41.136 157.672 41.456 157.075 41.968C156.478 42.4373 155.902 42.9707 155.347 43.568C154.835 44.1653 154.408 44.6987 154.067 45.168C153.768 45.6373 153.662 45.9147 153.747 46C153.875 46.2133 154.238 46.384 154.835 46.512C155.432 46.5973 156.094 46.6187 156.819 46.576C157.587 46.5333 158.206 46.4053 158.675 46.192ZM194.144 59.056C193.29 59.056 192.586 58.8853 192.032 58.544C191.477 58.16 191.008 57.5413 190.624 56.688C190.453 56.0907 190.304 55.4293 190.176 54.704C190.09 53.936 190.048 53.232 190.048 52.592C190.048 51.9093 190.112 51.4613 190.24 51.248C190.41 51.0773 190.474 50.7787 190.432 50.352C190.432 49.8827 190.432 49.392 190.432 48.88C190.389 48.0267 190.176 47.5573 189.792 47.472C189.45 47.344 188.938 47.472 188.256 47.856C187.488 48.3253 186.485 48.9653 185.248 49.776C184.01 50.544 182.709 51.3973 181.344 52.336C180.021 53.2747 178.762 54.256 177.568 55.28C176.629 56.304 176.053 57.0933 175.84 57.648C175.669 58.16 175.413 58.416 175.072 58.416C174.73 58.5867 174.432 58.608 174.176 58.48C173.962 58.3093 173.642 58.0533 173.216 57.712C172.917 57.3707 172.618 57.0507 172.32 56.752C172.021 56.4107 171.829 56.1547 171.744 55.984C171.744 55.7707 171.808 55.3227 171.936 54.64C172.064 53.9573 172.213 53.2747 172.384 52.592C172.597 51.9093 172.746 51.4613 172.832 51.248C173.045 51.248 173.216 51.0347 173.344 50.608C173.514 50.1813 173.77 49.712 174.112 49.2C174.197 48.688 174.41 48.0053 174.752 47.152C175.136 46.256 175.477 45.4667 175.776 44.784C176.373 43.76 176.778 42.9067 176.992 42.224C177.248 41.5413 177.418 40.688 177.504 39.664C177.461 39.4933 177.504 39.344 177.632 39.216C177.76 39.0453 177.909 38.96 178.08 38.96C178.421 38.6187 178.826 38.5333 179.296 38.704C179.765 38.832 180.192 39.152 180.576 39.664C181.344 40.688 181.642 41.7547 181.472 42.864C181.344 43.9307 180.661 45.4667 179.424 47.472C179.125 48.1547 178.89 48.688 178.72 49.072C178.592 49.4133 178.528 49.6907 178.528 49.904C178.528 49.904 178.741 49.7547 179.168 49.456C179.637 49.1573 180.149 48.816 180.704 48.432C181.301 48.0053 181.77 47.6853 182.112 47.472C182.325 47.2587 182.816 46.8747 183.584 46.32C184.352 45.7653 185.162 45.232 186.016 44.72C186.912 44.1653 187.573 43.8453 188 43.76C188.341 43.5893 188.704 43.44 189.088 43.312C189.472 43.1413 189.749 43.056 189.92 43.056C190.261 43.056 190.688 43.248 191.2 43.632C191.754 43.9733 192.266 44.4 192.736 44.912C193.205 45.3813 193.482 45.7867 193.568 46.128C193.568 46.2987 193.568 46.4693 193.568 46.64C193.61 46.8107 193.653 46.9813 193.696 47.152C193.866 47.7067 193.952 48.4533 193.952 49.392C193.994 50.3307 193.973 51.184 193.888 51.952C193.802 52.72 193.653 53.168 193.44 53.296C193.44 53.296 193.44 53.36 193.44 53.488C193.482 53.5733 193.589 53.616 193.76 53.616C193.76 53.7867 193.76 53.8933 193.76 53.936C193.546 53.936 193.461 54.128 193.504 54.512C193.546 54.8533 193.674 55.2373 193.888 55.664C194.144 56.0907 194.4 56.432 194.656 56.688C195.168 57.2 195.381 57.6907 195.296 58.16C195.21 58.5867 194.826 58.8853 194.144 59.056ZM219.884 61.36C219.713 61.36 219.457 61.3387 219.116 61.296C218.817 61.2107 218.561 61.0187 218.348 60.72C217.708 59.952 217.303 59.312 217.132 58.8C216.961 58.288 216.94 57.5413 217.068 56.56C217.153 55.92 217.196 55.3653 217.196 54.896C217.239 54.384 217.281 53.9573 217.324 53.616C217.153 53.4453 216.833 53.5733 216.364 54C215.937 54.384 215.34 54.8747 214.572 55.472C213.121 57.136 211.82 58.416 210.668 59.312C209.559 60.1653 208.556 60.7413 207.66 61.04C206.764 61.296 205.911 61.3813 205.1 61.296C204.375 61.2107 203.799 60.912 203.372 60.4C202.945 59.8453 202.668 59.1413 202.54 58.288C202.455 57.4347 202.455 56.5173 202.54 55.536C202.711 54.128 203.009 52.784 203.436 51.504C203.905 50.224 204.652 48.7947 205.676 47.216C206.145 46.3627 206.764 45.5307 207.532 44.72C208.343 43.8667 209.217 43.12 210.156 42.48C211.137 41.7973 212.076 41.3067 212.972 41.008C213.953 40.624 214.956 40.4107 215.98 40.368C217.004 40.2827 217.921 40.368 218.732 40.624C219.244 40.88 219.649 41.008 219.948 41.008C220.289 41.008 220.545 40.7947 220.716 40.368C220.929 40.0267 221.143 39.5147 221.356 38.832C221.569 38.1067 221.825 37.488 222.124 36.976L223.532 32.816C224.001 31.664 224.513 30.448 225.068 29.168C225.623 27.888 226.284 26.3307 227.052 24.496C227.777 23.1307 228.375 22.3413 228.844 22.128C229.313 21.872 229.847 22.0427 230.444 22.64C230.913 23.1947 231.084 23.8347 230.956 24.56C230.828 25.2427 230.444 26.352 229.804 27.888C229.505 28.3573 229.249 28.8053 229.036 29.232C228.823 29.616 228.524 30.2347 228.14 31.088C227.585 32.4107 227.073 33.6053 226.604 34.672C226.135 35.696 225.644 36.8693 225.132 38.192C224.961 38.8747 224.727 39.664 224.428 40.56C224.172 41.456 223.959 42.2667 223.788 42.992C223.66 43.6747 223.511 44.3147 223.34 44.912C223.212 45.4667 223.063 45.744 222.892 45.744C222.551 46.128 222.231 46.8107 221.932 47.792C221.633 48.7307 221.377 49.712 221.164 50.736C220.993 51.76 220.844 52.6133 220.716 53.296C220.631 53.808 220.567 54.4693 220.524 55.28C220.481 56.0907 220.46 56.88 220.46 57.648C220.46 58.3733 220.46 58.8853 220.46 59.184C220.46 60.1227 220.439 60.72 220.396 60.976C220.353 61.232 220.183 61.36 219.884 61.36ZM206.252 57.328C207.148 57.328 208.087 56.944 209.068 56.176C210.092 55.408 211.116 54.5547 212.14 53.616C212.78 53.0187 213.463 52.2293 214.188 51.248C214.956 50.2667 215.681 49.2853 216.364 48.304C217.089 47.3227 217.665 46.4693 218.092 45.744C218.519 44.976 218.732 44.5067 218.732 44.336C218.732 44.1227 218.54 43.9733 218.156 43.888C217.772 43.8027 217.324 43.76 216.812 43.76C216.343 43.7173 215.959 43.7387 215.66 43.824C214.721 44.0373 213.783 44.464 212.844 45.104C211.948 45.744 210.967 46.704 209.9 47.984C208.791 49.3493 207.873 50.7573 207.148 52.208C206.465 53.6587 206.039 54.8747 205.868 55.856C205.697 56.8373 205.825 57.328 206.252 57.328ZM237.265 60.144C236.924 60.2293 236.476 60.272 235.921 60.272C235.366 60.2293 234.876 60.1653 234.449 60.08C234.065 59.952 233.873 59.824 233.873 59.696C233.873 59.4827 233.766 59.376 233.553 59.376C233.553 59.376 233.446 59.2907 233.233 59.12C233.062 58.9493 232.785 58.7787 232.401 58.608C232.017 58.0107 231.825 57.3707 231.825 56.688C231.825 55.9627 232.017 54.832 232.401 53.296C232.529 52.2293 232.934 50.992 233.617 49.584C234.342 48.1333 235.217 46.6613 236.241 45.168C237.265 43.6747 238.332 42.3307 239.441 41.136C240.593 39.9413 241.638 39.0667 242.577 38.512C243.174 37.9147 243.9 37.5947 244.753 37.552C245.606 37.5093 246.417 37.7013 247.185 38.128C247.612 38.3413 248.038 38.6827 248.465 39.152C248.892 39.6213 249.297 40.1333 249.681 40.688C250.065 41.2427 250.385 41.7973 250.641 42.352C250.769 42.8213 250.833 43.248 250.833 43.632C250.876 43.9733 250.876 44.4 250.833 44.912C250.833 45.424 250.769 46.192 250.641 47.216C250.428 47.984 250.236 48.9227 250.065 50.032C249.937 51.1413 249.873 52.1013 249.873 52.912C249.788 53.7227 249.873 54.2987 250.129 54.64C250.428 54.9813 250.854 55.0027 251.409 54.704C251.921 54.448 252.412 54.3413 252.881 54.384C253.35 54.384 253.713 54.512 253.969 54.768C254.268 55.024 254.417 55.408 254.417 55.92C254.417 56.432 254.161 56.9653 253.649 57.52C253.18 58.032 252.582 58.48 251.857 58.864C251.174 59.2053 250.513 59.376 249.873 59.376C249.404 59.376 248.956 59.0987 248.529 58.544C248.102 57.9467 247.718 57.2427 247.377 56.432C247.078 55.5787 246.801 54.768 246.545 54L246.161 52.528L243.409 55.152C242.854 55.7493 242.3 56.304 241.745 56.816C241.233 57.2853 240.913 57.6267 240.785 57.84C240.572 58.224 240.166 58.608 239.569 58.992C239.014 59.376 238.246 59.76 237.265 60.144ZM237.457 56.368C238.182 55.9413 239.014 55.3227 239.953 54.512C240.892 53.6587 241.809 52.7413 242.705 51.76C243.601 50.736 244.348 49.7973 244.945 48.944C245.67 47.9627 246.225 47.0453 246.609 46.192C246.993 45.3387 247.27 44.528 247.441 43.76C247.27 43.2907 246.993 42.8 246.609 42.288C246.225 41.7333 245.884 41.4347 245.585 41.392C244.646 41.392 243.644 41.9893 242.577 43.184C241.553 44.336 240.55 45.5947 239.569 46.96C239.398 47.1733 239.164 47.5147 238.865 47.984C238.566 48.4533 238.268 48.9013 237.969 49.328C237.713 49.712 237.542 49.968 237.457 50.096C237.329 50.2667 237.073 50.7573 236.689 51.568C236.348 52.336 236.006 53.1253 235.665 53.936C235.324 54.704 235.153 55.216 235.153 55.472C235.153 55.728 235.174 56.0053 235.217 56.304C235.302 56.6027 235.516 56.7947 235.857 56.88C236.198 56.9653 236.732 56.7947 237.457 56.368Z" fill="black"/>
<path id="Botanica" d="M113.12 118.648C111.285 117.453 110.048 116.408 109.408 115.512C108.768 114.659 109.024 113.869 110.176 113.144C110.432 112.973 110.837 113.123 111.392 113.592C111.989 114.019 112.48 114.424 112.864 114.808C113.717 115.576 114.763 116.045 116 116.216C117.28 116.429 118.709 116.323 120.288 115.896C122.08 115.341 123.637 114.573 124.96 113.592C126.325 112.568 127.605 111.331 128.8 109.88C129.696 108.728 130.315 107.491 130.656 106.168C130.997 104.803 131.125 103.544 131.04 102.392C130.997 101.24 130.763 100.429 130.336 99.96C129.269 98.4667 127.776 97.4427 125.856 96.888C123.979 96.2907 121.76 96.3333 119.2 97.016C118.901 97.0587 118.453 97.144 117.856 97.272C117.259 97.4 116.725 97.528 116.256 97.656C115.787 97.7413 115.531 97.784 115.488 97.784C115.189 97.8693 114.955 97.976 114.784 98.104C114.613 98.1893 114.4 98.5093 114.144 99.064C113.931 99.576 113.589 100.515 113.12 101.88C112.651 103.203 111.947 105.165 111.008 107.768C110.112 110.371 109.387 112.227 108.832 113.336C108.32 114.403 107.851 114.893 107.424 114.808C107.04 114.68 106.549 114.211 105.952 113.4C105.611 112.803 105.397 112.227 105.312 111.672C105.227 111.075 105.397 110.392 105.824 109.624C106.037 109.24 106.208 108.899 106.336 108.6C106.464 108.259 106.635 107.683 106.848 106.872C107.061 106.232 107.467 105.123 108.064 103.544C108.704 101.923 109.451 100.045 110.304 97.912C111.157 95.736 112.053 93.496 112.992 91.192C113.931 88.888 114.827 86.712 115.68 84.664C116.576 82.616 117.323 80.888 117.92 79.48C118.517 78.1573 118.88 77.1973 119.008 76.6C119.136 76.0027 119.093 75.6827 118.88 75.64C118.88 75.4267 118.816 75.2347 118.688 75.064C118.56 74.8507 118.517 74.6587 118.56 74.488C118.56 74.3173 118.837 74.0827 119.392 73.784C119.989 73.4853 120.629 73.208 121.312 72.952C122.037 72.696 122.592 72.6107 122.976 72.696C123.189 72.696 123.445 72.696 123.744 72.696C124.043 72.6533 124.192 72.5467 124.192 72.376C124.32 72.376 124.725 72.3333 125.408 72.248C126.091 72.1627 126.837 72.1627 127.648 72.248C130.507 72.504 132.725 73.336 134.304 74.744C135.883 76.1093 136.651 77.9867 136.608 80.376C136.565 81.1013 136.181 82.0827 135.456 83.32C134.773 84.5573 133.92 85.7947 132.896 87.032C131.915 88.2693 130.955 89.3147 130.016 90.168C129.461 90.6373 128.864 91.128 128.224 91.64C127.627 92.1093 127.093 92.5147 126.624 92.856C126.197 93.1547 125.984 93.304 125.984 93.304C125.984 93.304 126.155 93.368 126.496 93.496C126.837 93.624 127.2 93.752 127.584 93.88C129.547 94.6053 131.168 95.5227 132.448 96.632C133.728 97.7413 134.603 99.2773 135.072 101.24C135.243 101.88 135.243 102.669 135.072 103.608C134.944 104.547 134.752 105.485 134.496 106.424C134.24 107.32 133.963 108.088 133.664 108.728C133.365 109.027 133.131 109.347 132.96 109.688C132.789 109.987 132.704 110.136 132.704 110.136C132.704 110.221 132.533 110.563 132.192 111.16C131.851 111.715 131.445 112.333 130.976 113.016C130.507 113.699 130.059 114.296 129.632 114.808C129.205 115.149 128.693 115.555 128.096 116.024C127.541 116.493 126.901 116.941 126.176 117.368C125.493 117.795 124.747 118.157 123.936 118.456C122.741 118.968 121.44 119.309 120.032 119.48C118.667 119.693 117.365 119.715 116.128 119.544C114.891 119.416 113.888 119.117 113.12 118.648ZM116.256 94.008C116.256 94.008 116.64 93.944 117.408 93.816C118.219 93.6453 119.093 93.4747 120.032 93.304C120.971 93.0907 121.653 92.8987 122.08 92.728C122.293 92.6 122.592 92.4293 122.976 92.216C123.403 92.0027 123.829 91.6827 124.256 91.256C124.853 90.7013 125.6 89.912 126.496 88.888C127.435 87.8213 128.352 86.712 129.248 85.56C130.144 84.3653 130.827 83.2987 131.296 82.36C132.277 80.824 132.811 79.6933 132.896 78.968C132.981 78.2 132.747 77.5387 132.192 76.984C131.808 76.5147 131.147 76.216 130.208 76.088C129.312 75.9173 128.352 75.8747 127.328 75.96C126.304 76.0027 125.429 76.1307 124.704 76.344C124.149 76.5147 123.723 76.728 123.424 76.984C123.125 77.1973 122.976 77.5387 122.976 78.008C122.976 78.392 122.848 78.776 122.592 79.16C122.379 79.5013 122.165 79.7787 121.952 79.992C121.909 80.2907 121.803 80.568 121.632 80.824C121.461 81.0373 121.376 81.144 121.376 81.144C121.376 81.3147 121.077 82.0187 120.48 83.256C119.883 84.4933 119.285 85.9227 118.688 87.544C117.92 89.3787 117.323 90.872 116.896 92.024C116.469 93.1333 116.256 93.7947 116.256 94.008ZM147.266 114.04C146.711 114.04 146.263 113.933 145.922 113.72C145.623 113.507 145.239 113.208 144.77 112.824C143.959 111.971 143.383 111.16 143.042 110.392C142.701 109.581 142.594 108.813 142.722 108.088C142.85 107.747 142.893 107.427 142.85 107.128C142.85 106.787 142.85 106.616 142.85 106.616C142.637 106.403 142.573 106.275 142.658 106.232C142.743 106.147 142.829 106.019 142.914 105.848C143.17 105.848 143.255 105.613 143.17 105.144C143.085 104.803 143.255 104.056 143.682 102.904C144.109 101.752 144.642 100.664 145.282 99.64C145.538 99.2133 145.922 98.6587 146.434 97.976C146.946 97.2507 147.501 96.5467 148.098 95.864C148.738 95.1387 149.314 94.5627 149.826 94.136C150.893 93.24 151.831 92.5787 152.642 92.152C153.453 91.7253 154.327 91.4053 155.266 91.192C156.205 90.9787 156.845 90.872 157.186 90.872C157.57 90.872 158.082 91.2133 158.722 91.896C159.703 92.3227 160.407 92.8347 160.834 93.432C161.303 94.0293 161.602 94.904 161.73 96.056C161.858 97.336 161.751 98.808 161.41 100.472C161.111 102.093 160.109 104.12 158.402 106.552C157.335 108.088 156.354 109.24 155.458 110.008C154.562 110.733 153.495 111.459 152.258 112.184C151.362 112.781 150.551 113.229 149.826 113.528C149.101 113.784 148.247 113.955 147.266 114.04ZM153.41 107.256C154.434 106.104 155.245 105.016 155.842 103.992C156.482 102.968 157.079 101.667 157.634 100.088C157.805 99.6187 157.911 99.0427 157.954 98.36C157.997 97.6347 157.975 96.9733 157.89 96.376C157.847 95.736 157.698 95.3733 157.442 95.288C156.93 94.9893 156.311 94.904 155.586 95.032C154.861 95.1173 154.071 95.5227 153.218 96.248C151.895 97.3573 150.743 98.744 149.762 100.408C148.781 102.029 147.821 103.885 146.882 105.976C146.242 107.512 146.093 108.749 146.434 109.688C146.818 110.584 147.607 110.904 148.802 110.648C150.039 110.349 151.575 109.219 153.41 107.256ZM173.669 114.552C173.199 114.467 172.709 114.232 172.197 113.848C171.727 113.421 171.301 112.952 170.917 112.44C170.575 111.885 170.341 111.395 170.213 110.968C170.213 110.883 170.149 110.776 170.021 110.648C169.935 110.52 169.893 110.456 169.893 110.456C169.722 110.328 169.615 109.773 169.573 108.792C169.573 107.768 169.637 106.637 169.765 105.4C169.893 104.163 170.042 103.181 170.213 102.456C170.426 101.773 170.746 100.856 171.173 99.704C171.599 98.5093 171.962 97.4427 172.261 96.504L173.989 92.792L171.429 92.088C171.13 92.0027 170.874 91.832 170.661 91.576C170.49 91.32 170.405 91.1067 170.405 90.936C170.405 90.5947 170.597 90.1893 170.981 89.72C171.365 89.208 171.642 88.952 171.813 88.952C172.026 88.9947 172.41 89.016 172.965 89.016C173.562 89.016 174.138 88.9947 174.693 88.952C175.247 88.9093 175.589 88.8667 175.717 88.824C175.887 88.7387 176.058 88.632 176.229 88.504C176.399 88.3333 176.527 88.0987 176.613 87.8C176.826 87.3307 177.018 86.904 177.189 86.52C177.359 86.0933 177.594 85.624 177.893 85.112C178.191 84.5573 178.426 84.088 178.597 83.704C178.81 83.32 179.13 82.7867 179.557 82.104C179.77 81.8053 180.005 81.4427 180.261 81.016C180.517 80.5893 180.837 80.2267 181.221 79.928C181.605 79.5867 181.989 79.4373 182.373 79.48C182.799 79.48 183.333 79.7573 183.973 80.312C184.314 80.7387 184.506 81.0587 184.549 81.272C184.591 81.4853 184.421 81.8907 184.037 82.488C183.695 83.2133 183.29 83.9387 182.821 84.664C182.394 85.3893 181.989 86.1147 181.605 86.84C180.922 87.7787 180.794 88.312 181.221 88.44C181.647 88.568 182.842 88.4827 184.805 88.184C186.042 87.9707 186.938 88.0347 187.493 88.376C188.047 88.6747 188.367 89.1867 188.453 89.912C188.581 90.936 188.474 91.5547 188.133 91.768C187.791 91.9813 186.81 92.088 185.189 92.088C184.165 92.2587 183.29 92.3653 182.565 92.408C181.839 92.408 181.306 92.408 180.965 92.408C180.41 92.4507 180.047 92.472 179.877 92.472C179.706 92.472 179.45 92.5147 179.109 92.6C178.767 92.6853 178.511 92.8347 178.341 93.048C178.213 93.2187 178.063 93.4747 177.893 93.816C177.722 93.9867 177.466 94.4347 177.125 95.16C176.783 95.8853 176.357 96.6747 175.845 97.528C175.247 99.32 174.735 101.112 174.309 102.904C173.882 104.653 173.541 106.36 173.285 108.024C173.114 109.091 173.135 109.837 173.349 110.264C173.562 110.648 174.117 110.883 175.013 110.968C175.482 111.011 176.229 111.011 177.253 110.968C178.319 110.883 179.151 110.755 179.749 110.584C180.218 110.371 180.709 110.157 181.221 109.944C181.733 109.688 182.202 109.432 182.629 109.176C183.013 108.963 183.397 108.749 183.781 108.536C184.165 108.28 184.357 108.152 184.357 108.152C184.57 107.811 184.805 107.704 185.061 107.832C185.317 107.96 185.53 108.28 185.701 108.792C185.701 109.304 185.594 109.837 185.381 110.392C185.167 110.947 184.378 111.608 183.013 112.376C181.093 113.571 179.322 114.296 177.701 114.552C176.122 114.765 174.778 114.765 173.669 114.552ZM198.44 113.144C198.099 113.229 197.651 113.272 197.096 113.272C196.541 113.229 196.051 113.165 195.624 113.08C195.24 112.952 195.048 112.824 195.048 112.696C195.048 112.483 194.941 112.376 194.728 112.376C194.728 112.376 194.621 112.291 194.408 112.12C194.237 111.949 193.96 111.779 193.576 111.608C193.192 111.011 193 110.371 193 109.688C193 108.963 193.192 107.832 193.576 106.296C193.704 105.229 194.109 103.992 194.792 102.584C195.517 101.133 196.392 99.6613 197.416 98.168C198.44 96.6747 199.507 95.3307 200.616 94.136C201.768 92.9413 202.813 92.0667 203.752 91.512C204.349 90.9147 205.075 90.5947 205.928 90.552C206.781 90.5093 207.592 90.7013 208.36 91.128C208.787 91.3413 209.213 91.6827 209.64 92.152C210.067 92.6213 210.472 93.1333 210.856 93.688C211.24 94.2427 211.56 94.7973 211.816 95.352C211.944 95.8213 212.008 96.248 212.008 96.632C212.051 96.9733 212.051 97.4 212.008 97.912C212.008 98.424 211.944 99.192 211.816 100.216C211.603 100.984 211.411 101.923 211.24 103.032C211.112 104.141 211.048 105.101 211.048 105.912C210.963 106.723 211.048 107.299 211.304 107.64C211.603 107.981 212.029 108.003 212.584 107.704C213.096 107.448 213.587 107.341 214.056 107.384C214.525 107.384 214.888 107.512 215.144 107.768C215.443 108.024 215.592 108.408 215.592 108.92C215.592 109.432 215.336 109.965 214.824 110.52C214.355 111.032 213.757 111.48 213.032 111.864C212.349 112.205 211.688 112.376 211.048 112.376C210.579 112.376 210.131 112.099 209.704 111.544C209.277 110.947 208.893 110.243 208.552 109.432C208.253 108.579 207.976 107.768 207.72 107L207.336 105.528L204.584 108.152C204.029 108.749 203.475 109.304 202.92 109.816C202.408 110.285 202.088 110.627 201.96 110.84C201.747 111.224 201.341 111.608 200.744 111.992C200.189 112.376 199.421 112.76 198.44 113.144ZM198.632 109.368C199.357 108.941 200.189 108.323 201.128 107.512C202.067 106.659 202.984 105.741 203.88 104.76C204.776 103.736 205.523 102.797 206.12 101.944C206.845 100.963 207.4 100.045 207.784 99.192C208.168 98.3387 208.445 97.528 208.616 96.76C208.445 96.2907 208.168 95.8 207.784 95.288C207.4 94.7333 207.059 94.4347 206.76 94.392C205.821 94.392 204.819 94.9893 203.752 96.184C202.728 97.336 201.725 98.5947 200.744 99.96C200.573 100.173 200.339 100.515 200.04 100.984C199.741 101.453 199.443 101.901 199.144 102.328C198.888 102.712 198.717 102.968 198.632 103.096C198.504 103.267 198.248 103.757 197.864 104.568C197.523 105.336 197.181 106.125 196.84 106.936C196.499 107.704 196.328 108.216 196.328 108.472C196.328 108.728 196.349 109.005 196.392 109.304C196.477 109.603 196.691 109.795 197.032 109.88C197.373 109.965 197.907 109.795 198.632 109.368ZM241.728 114.232C241.301 114.232 240.853 113.997 240.384 113.528C239.957 113.059 239.573 112.483 239.232 111.8C238.933 111.075 238.784 110.392 238.784 109.752C238.784 109.112 238.933 107.917 239.232 106.168C239.573 104.419 239.978 102.648 240.448 100.856C240.789 99.7467 240.896 99.1067 240.768 98.936C240.64 98.7653 240.064 99 239.04 99.64C238.442 99.9387 237.909 100.259 237.44 100.6C236.97 100.899 236.565 101.24 236.224 101.624C236.01 101.795 235.69 102.072 235.264 102.456C234.837 102.84 234.389 103.203 233.92 103.544C233.365 103.971 232.661 104.568 231.808 105.336C230.954 106.104 230.101 106.872 229.248 107.64C228.437 108.408 227.818 109.005 227.392 109.432C227.306 109.603 227.178 109.752 227.008 109.88C226.837 110.008 226.645 110.093 226.432 110.136C226.218 110.136 225.984 110.093 225.728 110.008C225.258 109.88 224.81 109.603 224.384 109.176C224 108.749 223.808 108.259 223.808 107.704C223.808 107.277 223.978 106.552 224.32 105.528C224.661 104.461 225.109 103.181 225.664 101.688C226.261 100.195 226.944 98.616 227.712 96.952C227.84 96.7387 227.946 96.4827 228.032 96.184C228.117 95.8427 228.181 95.48 228.224 95.096C228.309 94.712 228.352 94.3493 228.352 94.008C228.352 93.7947 228.373 93.5813 228.416 93.368C228.501 93.112 228.586 92.8773 228.672 92.664C228.8 92.408 228.906 92.2373 228.992 92.152C229.162 91.8107 229.461 91.7253 229.888 91.896C230.314 92.024 230.677 92.3227 230.976 92.792C231.616 93.3893 231.936 94.136 231.936 95.032C231.978 95.928 231.765 97.0373 231.296 98.36C231.125 98.6587 230.976 98.9573 230.848 99.256C230.762 99.512 230.677 99.7467 230.592 99.96C230.506 100.131 230.442 100.28 230.4 100.408C230.357 100.493 230.336 100.536 230.336 100.536C230.506 100.536 230.89 100.344 231.488 99.96C232.085 99.576 232.789 99.1493 233.6 98.68C234.24 98.2107 234.794 97.784 235.264 97.4C235.776 96.9733 236.202 96.6533 236.544 96.44C236.885 96.184 237.098 96.056 237.184 96.056C237.354 96.056 237.568 95.992 237.824 95.864C238.08 95.736 238.293 95.5867 238.464 95.416C238.634 95.2453 238.762 95.16 238.848 95.16C238.976 95.1173 239.04 95.096 239.04 95.096C239.04 95.096 239.125 95.096 239.296 95.096C239.466 95.0533 239.637 94.9467 239.808 94.776C240.149 94.52 240.597 94.456 241.152 94.584C241.706 94.6693 242.218 94.8827 242.688 95.224C243.157 95.5653 243.392 95.9493 243.392 96.376C243.392 96.5467 243.434 96.696 243.52 96.824C243.648 96.9093 243.712 96.952 243.712 96.952C244.053 96.952 244.266 97.4853 244.352 98.552C244.48 99.6187 244.373 100.643 244.032 101.624C244.032 102.264 243.904 103.032 243.648 103.928C243.434 104.824 243.242 105.677 243.072 106.488C242.73 107.555 242.496 108.493 242.368 109.304C242.24 110.115 242.218 110.797 242.304 111.352C242.389 111.907 242.538 112.355 242.752 112.696C242.922 112.995 242.922 113.336 242.752 113.72C242.581 114.061 242.24 114.232 241.728 114.232ZM255.116 111.864C254.945 111.864 254.732 111.821 254.476 111.736C254.263 111.608 254.156 111.544 254.156 111.544C254.156 111.373 254.092 111.16 253.964 110.904C253.879 110.648 253.836 110.435 253.836 110.264C253.537 110.093 253.367 109.923 253.324 109.752C253.281 109.539 253.345 109.197 253.516 108.728C253.772 108.301 254.113 107.619 254.54 106.68C254.967 105.699 255.415 104.653 255.884 103.544C256.353 102.392 256.801 101.261 257.228 100.152C257.655 99.0427 258.017 98.104 258.316 97.336C258.615 96.5253 258.785 96.0347 258.828 95.864C258.828 95.6933 258.892 95.48 259.02 95.224C259.148 94.968 259.297 94.7547 259.468 94.584C259.809 94.2853 260.172 94.264 260.556 94.52C260.94 94.7333 261.26 95.1173 261.516 95.672C261.815 96.184 261.964 96.76 261.964 97.4C261.964 97.6987 261.751 98.4667 261.324 99.704C260.897 100.899 260.321 102.328 259.596 103.992C258.913 105.656 258.145 107.341 257.292 109.048C256.652 110.285 256.247 111.075 256.076 111.416C255.905 111.715 255.585 111.864 255.116 111.864ZM264.524 87.608C264.012 87.608 263.457 87.416 262.86 87.032C262.305 86.6053 261.815 86.0933 261.388 85.496C261.004 84.856 260.812 84.216 260.812 83.576C260.812 83.3627 260.94 83.064 261.196 82.68C261.452 82.296 261.708 81.912 261.964 81.528C262.22 81.144 262.348 80.9093 262.348 80.824C262.689 80.824 262.945 80.8453 263.116 80.888C263.329 80.888 263.585 80.9733 263.884 81.144C264.353 82.2107 264.929 83.0853 265.612 83.768C266.337 84.4507 266.7 85.0267 266.7 85.496C266.7 86.4347 266.615 87.032 266.444 87.288C266.273 87.5013 265.633 87.608 264.524 87.608ZM278.253 113.336C277.699 113.592 277.059 113.699 276.333 113.656C275.608 113.613 274.627 113.379 273.389 112.952C273.304 112.952 273.112 112.867 272.813 112.696C272.557 112.525 272.28 112.312 271.981 112.056C271.725 111.757 271.512 111.437 271.341 111.096C270.659 110.115 270.381 108.664 270.509 106.744C270.637 104.824 271.235 102.52 272.301 99.832C272.6 99.192 273.048 98.3813 273.645 97.4C274.285 96.4187 274.904 95.5227 275.501 94.712C276.141 93.8587 276.589 93.368 276.845 93.24C276.845 93.24 277.08 93.1547 277.549 92.984C278.019 92.8133 278.616 92.536 279.341 92.152C279.555 92.0667 279.789 91.9813 280.045 91.896C280.344 91.8107 280.643 91.7467 280.941 91.704C281.24 91.6613 281.496 91.6613 281.709 91.704C282.563 91.7467 283.437 92.0667 284.333 92.664C285.272 93.2187 286.04 93.88 286.637 94.648C287.235 95.3733 287.427 96.0133 287.213 96.568C287.213 96.6533 287.085 96.824 286.829 97.08C286.616 97.2933 286.36 97.528 286.061 97.784C285.805 97.9973 285.592 98.2107 285.421 98.424C285.208 98.68 284.909 98.7867 284.525 98.744C284.184 98.7013 283.864 98.5307 283.565 98.232C283.309 97.8907 283.16 97.464 283.117 96.952C283.032 96.6107 282.712 96.2907 282.157 95.992C281.645 95.6933 281.389 95.544 281.389 95.544C281.048 95.544 280.557 95.864 279.917 96.504C279.32 97.1013 278.723 97.8267 278.125 98.68C277.357 99.448 276.696 100.365 276.141 101.432C275.587 102.456 275.139 103.437 274.797 104.376C274.499 105.272 274.285 105.912 274.157 106.296C273.987 106.723 273.965 107.32 274.093 108.088C274.221 108.856 274.371 109.325 274.541 109.496C274.712 109.581 275.139 109.603 275.821 109.56C276.547 109.517 277.4 109.432 278.381 109.304C279.363 109.133 280.323 108.941 281.261 108.728C282.2 108.515 282.968 108.28 283.565 108.024C284.376 107.512 285.08 107.213 285.677 107.128C286.275 107.043 286.723 107.043 287.021 107.128C287.491 107.299 287.768 107.533 287.853 107.832C287.939 108.131 287.832 108.472 287.533 108.856C287.235 109.197 286.723 109.56 285.997 109.944C285.315 110.285 284.696 110.669 284.141 111.096C283.629 111.48 283.373 111.779 283.373 111.992C283.203 111.992 283.011 112.056 282.797 112.184C282.627 112.269 282.477 112.291 282.349 112.248C282.264 112.248 281.923 112.312 281.325 112.44C280.728 112.568 280.109 112.717 279.469 112.888C278.872 113.059 278.467 113.208 278.253 113.336ZM296.56 112.696C296.39 112.355 296.176 112.099 295.92 111.928C295.664 111.715 295.536 111.523 295.536 111.352C295.536 111.181 295.515 111.011 295.472 110.84C295.472 110.627 295.387 110.435 295.216 110.264C295.003 110.008 295.024 109.432 295.28 108.536C295.536 107.597 295.963 106.467 296.56 105.144C297.158 103.779 297.862 102.349 298.672 100.856C299.014 100.515 299.355 100.067 299.696 99.512C300.038 98.9573 300.294 98.5947 300.464 98.424C300.464 98.2533 300.528 98.104 300.656 97.976C300.784 97.8053 300.934 97.72 301.104 97.72V97.336C301.104 97.1227 301.296 96.76 301.68 96.248C302.107 95.736 302.619 95.1813 303.216 94.584C303.814 93.944 304.432 93.3467 305.072 92.792C305.712 92.1947 306.246 91.768 306.672 91.512C307.568 90.9147 308.486 90.552 309.424 90.424C310.406 90.296 311.238 90.5093 311.92 91.064C312.048 91.192 312.262 91.4053 312.56 91.704C312.859 92.0027 313.2 92.344 313.584 92.728C314.011 93.0693 314.438 93.432 314.864 93.816L317.232 95.928L316.08 99.128C315.526 100.835 315.376 102.328 315.632 103.608C315.931 104.888 316.358 105.997 316.912 106.936C317.126 107.405 317.552 107.853 318.192 108.28C318.875 108.707 319.515 108.963 320.112 109.048C320.454 109.091 320.774 109.219 321.072 109.432C321.371 109.645 321.52 109.987 321.52 110.456C321.52 110.883 321.435 111.224 321.264 111.48C321.094 111.736 320.795 111.907 320.368 111.992C318.96 112.163 317.638 111.821 316.4 110.968C315.206 110.115 314.096 108.707 313.072 106.744C312.902 106.488 312.667 106.019 312.368 105.336C312.112 104.611 311.963 104.141 311.92 103.928C311.75 104.141 311.43 104.547 310.96 105.144C310.491 105.699 310.128 106.104 309.872 106.36C306.843 109.432 304.219 111.501 302 112.568C299.824 113.592 298.011 113.635 296.56 112.696ZM298.864 109.112C298.864 109.411 299.312 109.411 300.208 109.112C301.147 108.771 302.15 108.173 303.216 107.32C304.667 106.083 306.118 104.717 307.568 103.224C309.062 101.731 310.256 100.344 311.152 99.064L312.56 96.76C312.134 95.7787 311.664 95.1173 311.152 94.776C310.683 94.392 310.278 94.2 309.936 94.2C309.382 94.2 308.55 94.712 307.44 95.736C306.374 96.76 305.222 98.1253 303.984 99.832C302.747 101.539 301.574 103.416 300.464 105.464C300.038 106.317 299.654 107.149 299.312 107.96C299.014 108.728 298.864 109.112 298.864 109.112Z" fill="black"/>
</g>
</svg>
