<svg width="353" height="140" viewBox="0 0 353 140" fill="none" xmlns="http://www.w3.org/2000/svg">
<g id="Group 6">
<g id="Vector 1">
<path d="M64.5265 133.208H52.6236C47.1303 111.448 46.4446 99.1946 47.6118 77.2855C42.6253 71.5092 40.405 67.6816 37.5883 59.6921C41.4186 66.4253 43.8863 69.8036 49.1476 74.7722C52.3661 65.3129 55.205 58.5653 58.2618 53.056C52.3902 44.1619 52.3946 39.3805 51.3707 30.7885C54.5553 42.9321 56.4157 47.4677 59.8914 50.267C63.309 44.7139 67.1059 40.3135 72.0442 35.1869C57.5527 51.2062 46.3589 95.5073 53.8765 99.2773C61.3942 103.047 72.6191 91.169 82.6942 82.9406C75.8196 94.6446 58.9032 105.076 55.1295 107.446C51.3558 109.815 64.5265 133.208 64.5265 133.208Z" fill="white"/>
<path d="M93.3442 71.6305C91.8756 84.5975 88.6705 90.5483 79.5619 99.2773C106.25 101.598 117.713 83.0435 126.547 44.612C89.1435 48.9041 67.3938 50.6824 63.9001 82.3122C72.7156 73.1197 79.0391 70.5418 93.3442 71.6305Z" fill="white"/>
<path d="M80.8148 25.1335C81.4452 33.9588 78.9697 37.5509 73.2971 43.3553C92.9847 37.88 97.6942 28.7648 100.235 6.91171C74.1908 10.0407 65.5671 15.169 63.9001 32.0452C68.9458 25.7347 72.49 23.8524 80.8148 25.1335Z" fill="white"/>
<path d="M44.4794 32.6735C35.0637 23.5494 36.5588 15.7484 43.853 0C57.2969 11.2986 59.9442 17.642 56.7559 28.9641L56.7372 28.9235C54.2628 23.5521 52.8699 20.5284 47.6118 18.8501C44.0245 22.7178 43.8859 26.099 44.4794 32.6735Z" fill="white"/>
<path d="M46.3589 55.2937C47.1217 36.3467 36.8038 28.6885 0 20.1068C4.52704 54.6398 11.3248 66.2357 33.203 69.1171C25.934 60.953 22.8452 56.2038 24.4324 46.497C36.3153 46.1077 40.2558 49.0252 46.3589 55.2937Z" fill="white"/>
</g>
<g id="Senda&#226;&#128;&#168;">
<path d="M136.143 65.2C135.375 64.9867 134.756 64.7947 134.287 64.624C133.817 64.496 133.583 64.432 133.583 64.432C133.668 64.2187 133.625 64.0267 133.455 63.856C133.327 63.6853 133.028 63.5787 132.559 63.536C131.919 63.152 131.321 62.6613 130.767 62.064C130.255 61.5093 129.828 60.9547 129.487 60.4C129.145 59.8453 128.889 59.376 128.719 58.992C128.42 58.352 128.271 57.968 128.271 57.84C128.313 57.6693 128.569 57.4773 129.039 57.264C129.508 56.9227 129.849 56.816 130.063 56.944C130.319 57.072 130.617 57.4987 130.959 58.224C131.513 59.2053 132.452 59.952 133.775 60.464C135.14 60.976 136.655 61.2107 138.319 61.168C140.025 61.0827 141.647 60.6987 143.183 60.016C144.761 59.376 145.743 58.7147 146.127 58.032C146.553 57.3067 146.404 56.3893 145.679 55.28C145.551 54.9387 145.401 54.6613 145.231 54.448C145.06 54.2347 144.783 53.9573 144.399 53.616C144.057 53.2747 143.481 52.72 142.671 51.952C142.031 51.6533 141.433 51.376 140.879 51.12C140.367 50.864 139.812 50.5867 139.215 50.288C138.532 49.9467 137.7 49.456 136.719 48.816C135.78 48.1333 134.884 47.3867 134.031 46.576C133.177 45.7653 132.559 45.0187 132.175 44.336C131.492 43.696 130.98 42.8213 130.639 41.712C130.297 40.56 130.169 39.344 130.255 38.064C130.34 36.784 130.66 35.632 131.215 34.608C131.471 34.0107 131.897 33.2853 132.495 32.432C133.135 31.536 133.839 30.64 134.607 29.744C135.375 28.848 136.121 28.0373 136.847 27.312C137.572 26.5867 138.169 26.0747 138.639 25.776C138.98 25.4347 139.343 25.0933 139.727 24.752C140.111 24.368 140.303 24.176 140.303 24.176C140.345 23.9627 140.409 23.856 140.495 23.856C140.623 23.856 140.687 23.856 140.687 23.856C140.9 23.728 141.369 23.5147 142.095 23.216C142.82 22.9173 143.609 22.3627 144.463 21.552C147.321 20.1867 149.647 19.184 151.439 18.544C153.231 17.904 154.703 17.584 155.855 17.584C156.921 17.6267 157.881 17.8827 158.735 18.352C159.631 18.7787 160.356 19.3547 160.911 20.08C161.508 20.8053 161.871 21.68 161.999 22.704C162.297 23.728 162.212 24.9227 161.743 26.288C161.273 27.6107 160.569 28.8693 159.631 30.064C158.735 31.216 157.753 32.0907 156.687 32.688C155.492 33.2 154.681 33.4347 154.255 33.392C153.871 33.3067 153.7 32.8587 153.743 32.048C153.743 31.7067 153.849 31.3013 154.063 30.832C154.319 30.3627 154.98 29.5307 156.047 28.336C157.412 26.3307 158.244 24.7307 158.543 23.536C158.841 22.3413 158.564 21.68 157.711 21.552C157.455 21.4667 156.985 21.4667 156.303 21.552C155.663 21.6373 154.937 21.7653 154.127 21.936C153.359 22.064 152.697 22.2133 152.143 22.384C151.588 22.512 151.311 22.6187 151.311 22.704C151.311 22.704 151.311 22.768 151.311 22.896C151.311 23.024 151.225 23.0667 151.055 23.024C150.969 23.024 150.607 23.1947 149.967 23.536C149.327 23.8773 148.559 24.3253 147.663 24.88C146.767 25.4347 145.871 25.9893 144.975 26.544C144.079 27.0987 143.311 27.5893 142.671 28.016C142.073 28.4 141.753 28.6347 141.711 28.72C141.625 29.1893 141.135 29.616 140.239 30C139.385 30.512 138.596 31.2587 137.871 32.24C137.188 33.2213 136.42 34.4373 135.567 35.888C134.841 36.8693 134.329 37.936 134.031 39.088C133.732 40.1973 133.732 41.0933 134.031 41.776C134.244 42.4587 134.905 43.3333 136.015 44.4C137.124 45.4667 138.511 46.4907 140.175 47.472C141.625 48.2827 142.927 49.0933 144.079 49.904C145.231 50.672 146.169 51.4187 146.895 52.144C147.663 52.8693 148.175 53.5093 148.431 54.064C148.943 54.7893 149.305 55.536 149.519 56.304C149.775 57.0293 149.903 57.7333 149.903 58.416C149.945 59.0987 149.881 59.7173 149.711 60.272C149.412 60.9547 148.879 61.6587 148.111 62.384C147.385 63.1093 146.767 63.4507 146.255 63.408C145.785 63.536 145.423 63.6853 145.167 63.856C144.953 64.0267 144.697 64.176 144.399 64.304C144.1 64.4747 143.46 64.6453 142.479 64.816C141.54 64.9867 140.495 65.0933 139.343 65.136C138.191 65.2213 137.124 65.2427 136.143 65.2ZM170.626 59.76C169.73 60.528 168.684 60.976 167.49 61.104C166.338 61.232 165.207 61.0613 164.098 60.592C162.988 60.08 162.071 59.312 161.346 58.288C160.62 57.3493 160.151 56.2827 159.938 55.088C159.724 53.8507 159.703 52.2507 159.874 50.288C160.002 48.624 160.535 46.96 161.474 45.296C162.412 43.5893 163.543 42.0747 164.866 40.752C166.231 39.4293 167.575 38.512 168.898 38C169.538 37.5733 170.071 37.3813 170.498 37.424C170.967 37.424 171.671 37.4667 172.61 37.552C173.591 37.68 174.316 37.872 174.786 38.128C175.298 38.384 175.703 38.7253 176.002 39.152C176.642 39.792 177.068 40.432 177.282 41.072C177.495 41.6693 177.602 42.2667 177.602 42.864C177.431 43.8027 176.791 44.9547 175.682 46.32C174.615 47.6427 173.207 48.7307 171.458 49.584C170.519 49.8827 169.495 50.0107 168.386 49.968C167.276 49.9253 166.359 49.648 165.634 49.136C164.823 48.7947 164.29 48.8587 164.034 49.328C163.778 49.7547 163.543 50.8213 163.33 52.528C163.159 54.1493 163.287 55.344 163.714 56.112C164.14 56.8373 164.716 57.264 165.442 57.392C166.295 57.5627 166.956 57.6907 167.426 57.776C167.938 57.8187 168.556 57.6267 169.282 57.2C169.964 56.7733 170.391 56.5387 170.562 56.496C170.732 56.4107 170.86 56.3253 170.946 56.24C171.074 56.112 171.351 55.8347 171.778 55.408C172.076 55.1093 172.311 54.896 172.482 54.768C172.652 54.5973 172.844 54.512 173.058 54.512C173.271 54.512 173.463 54.6187 173.634 54.832C173.804 55.0027 173.975 55.1307 174.146 55.216C174.572 55.216 174.658 55.472 174.402 55.984C174.188 56.496 173.74 57.1147 173.058 57.84C172.375 58.5227 171.564 59.1627 170.626 59.76ZM170.562 46.192C171.031 45.9787 171.522 45.68 172.034 45.296C172.546 44.8693 172.972 44.4213 173.314 43.952C173.698 43.44 173.89 43.0133 173.89 42.672C173.89 42.0747 173.612 41.584 173.058 41.2C172.503 40.7733 171.671 40.7093 170.562 41.008C170.092 41.136 169.559 41.456 168.962 41.968C168.364 42.4373 167.788 42.9707 167.234 43.568C166.722 44.1653 166.295 44.6987 165.954 45.168C165.655 45.6373 165.548 45.9147 165.634 46C165.762 46.2133 166.124 46.384 166.722 46.512C167.319 46.5973 167.98 46.6187 168.706 46.576C169.474 46.5333 170.092 46.4053 170.562 46.192ZM206.03 59.056C205.177 59.056 204.473 58.8853 203.918 58.544C203.364 58.16 202.894 57.5413 202.51 56.688C202.34 56.0907 202.19 55.4293 202.062 54.704C201.977 53.936 201.934 53.232 201.934 52.592C201.934 51.9093 201.998 51.4613 202.126 51.248C202.297 51.0773 202.361 50.7787 202.318 50.352C202.318 49.8827 202.318 49.392 202.318 48.88C202.276 48.0267 202.062 47.5573 201.678 47.472C201.337 47.344 200.825 47.472 200.142 47.856C199.374 48.3253 198.372 48.9653 197.134 49.776C195.897 50.544 194.596 51.3973 193.23 52.336C191.908 53.2747 190.649 54.256 189.454 55.28C188.516 56.304 187.94 57.0933 187.726 57.648C187.556 58.16 187.3 58.416 186.958 58.416C186.617 58.5867 186.318 58.608 186.062 58.48C185.849 58.3093 185.529 58.0533 185.102 57.712C184.804 57.3707 184.505 57.0507 184.206 56.752C183.908 56.4107 183.716 56.1547 183.63 55.984C183.63 55.7707 183.694 55.3227 183.822 54.64C183.95 53.9573 184.1 53.2747 184.27 52.592C184.484 51.9093 184.633 51.4613 184.718 51.248C184.932 51.248 185.102 51.0347 185.23 50.608C185.401 50.1813 185.657 49.712 185.998 49.2C186.084 48.688 186.297 48.0053 186.638 47.152C187.022 46.256 187.364 45.4667 187.662 44.784C188.26 43.76 188.665 42.9067 188.878 42.224C189.134 41.5413 189.305 40.688 189.39 39.664C189.348 39.4933 189.39 39.344 189.518 39.216C189.646 39.0453 189.796 38.96 189.966 38.96C190.308 38.6187 190.713 38.5333 191.182 38.704C191.652 38.832 192.078 39.152 192.462 39.664C193.23 40.688 193.529 41.7547 193.358 42.864C193.23 43.9307 192.548 45.4667 191.31 47.472C191.012 48.1547 190.777 48.688 190.606 49.072C190.478 49.4133 190.414 49.6907 190.414 49.904C190.414 49.904 190.628 49.7547 191.054 49.456C191.524 49.1573 192.036 48.816 192.59 48.432C193.188 48.0053 193.657 47.6853 193.998 47.472C194.212 47.2587 194.702 46.8747 195.47 46.32C196.238 45.7653 197.049 45.232 197.902 44.72C198.798 44.1653 199.46 43.8453 199.886 43.76C200.228 43.5893 200.59 43.44 200.974 43.312C201.358 43.1413 201.636 43.056 201.806 43.056C202.148 43.056 202.574 43.248 203.086 43.632C203.641 43.9733 204.153 44.4 204.622 44.912C205.092 45.3813 205.369 45.7867 205.454 46.128C205.454 46.2987 205.454 46.4693 205.454 46.64C205.497 46.8107 205.54 46.9813 205.582 47.152C205.753 47.7067 205.838 48.4533 205.838 49.392C205.881 50.3307 205.86 51.184 205.774 51.952C205.689 52.72 205.54 53.168 205.326 53.296C205.326 53.296 205.326 53.36 205.326 53.488C205.369 53.5733 205.476 53.616 205.646 53.616C205.646 53.7867 205.646 53.8933 205.646 53.936C205.433 53.936 205.348 54.128 205.39 54.512C205.433 54.8533 205.561 55.2373 205.774 55.664C206.03 56.0907 206.286 56.432 206.542 56.688C207.054 57.2 207.268 57.6907 207.182 58.16C207.097 58.5867 206.713 58.8853 206.03 59.056ZM231.771 61.36C231.6 61.36 231.344 61.3387 231.003 61.296C230.704 61.2107 230.448 61.0187 230.235 60.72C229.595 59.952 229.189 59.312 229.019 58.8C228.848 58.288 228.827 57.5413 228.955 56.56C229.04 55.92 229.083 55.3653 229.083 54.896C229.125 54.384 229.168 53.9573 229.211 53.616C229.04 53.4453 228.72 53.5733 228.251 54C227.824 54.384 227.227 54.8747 226.459 55.472C225.008 57.136 223.707 58.416 222.555 59.312C221.445 60.1653 220.443 60.7413 219.547 61.04C218.651 61.296 217.797 61.3813 216.987 61.296C216.261 61.2107 215.685 60.912 215.259 60.4C214.832 59.8453 214.555 59.1413 214.427 58.288C214.341 57.4347 214.341 56.5173 214.427 55.536C214.597 54.128 214.896 52.784 215.323 51.504C215.792 50.224 216.539 48.7947 217.563 47.216C218.032 46.3627 218.651 45.5307 219.419 44.72C220.229 43.8667 221.104 43.12 222.043 42.48C223.024 41.7973 223.963 41.3067 224.859 41.008C225.84 40.624 226.843 40.4107 227.867 40.368C228.891 40.2827 229.808 40.368 230.619 40.624C231.131 40.88 231.536 41.008 231.835 41.008C232.176 41.008 232.432 40.7947 232.603 40.368C232.816 40.0267 233.029 39.5147 233.243 38.832C233.456 38.1067 233.712 37.488 234.011 36.976L235.419 32.816C235.888 31.664 236.4 30.448 236.955 29.168C237.509 27.888 238.171 26.3307 238.939 24.496C239.664 23.1307 240.261 22.3413 240.731 22.128C241.2 21.872 241.733 22.0427 242.331 22.64C242.8 23.1947 242.971 23.8347 242.843 24.56C242.715 25.2427 242.331 26.352 241.691 27.888C241.392 28.3573 241.136 28.8053 240.923 29.232C240.709 29.616 240.411 30.2347 240.027 31.088C239.472 32.4107 238.96 33.6053 238.491 34.672C238.021 35.696 237.531 36.8693 237.019 38.192C236.848 38.8747 236.613 39.664 236.315 40.56C236.059 41.456 235.845 42.2667 235.675 42.992C235.547 43.6747 235.397 44.3147 235.227 44.912C235.099 45.4667 234.949 45.744 234.779 45.744C234.437 46.128 234.117 46.8107 233.819 47.792C233.52 48.7307 233.264 49.712 233.051 50.736C232.88 51.76 232.731 52.6133 232.603 53.296C232.517 53.808 232.453 54.4693 232.411 55.28C232.368 56.0907 232.347 56.88 232.347 57.648C232.347 58.3733 232.347 58.8853 232.347 59.184C232.347 60.1227 232.325 60.72 232.283 60.976C232.24 61.232 232.069 61.36 231.771 61.36ZM218.139 57.328C219.035 57.328 219.973 56.944 220.955 56.176C221.979 55.408 223.003 54.5547 224.027 53.616C224.667 53.0187 225.349 52.2293 226.075 51.248C226.843 50.2667 227.568 49.2853 228.251 48.304C228.976 47.3227 229.552 46.4693 229.979 45.744C230.405 44.976 230.619 44.5067 230.619 44.336C230.619 44.1227 230.427 43.9733 230.043 43.888C229.659 43.8027 229.211 43.76 228.699 43.76C228.229 43.7173 227.845 43.7387 227.547 43.824C226.608 44.0373 225.669 44.464 224.731 45.104C223.835 45.744 222.853 46.704 221.787 47.984C220.677 49.3493 219.76 50.7573 219.035 52.208C218.352 53.6587 217.925 54.8747 217.755 55.856C217.584 56.8373 217.712 57.328 218.139 57.328ZM249.152 60.144C248.81 60.2293 248.362 60.272 247.808 60.272C247.253 60.2293 246.762 60.1653 246.336 60.08C245.952 59.952 245.76 59.824 245.76 59.696C245.76 59.4827 245.653 59.376 245.44 59.376C245.44 59.376 245.333 59.2907 245.12 59.12C244.949 58.9493 244.672 58.7787 244.288 58.608C243.904 58.0107 243.712 57.3707 243.712 56.688C243.712 55.9627 243.904 54.832 244.288 53.296C244.416 52.2293 244.821 50.992 245.504 49.584C246.229 48.1333 247.104 46.6613 248.128 45.168C249.152 43.6747 250.218 42.3307 251.328 41.136C252.48 39.9413 253.525 39.0667 254.464 38.512C255.061 37.9147 255.786 37.5947 256.64 37.552C257.493 37.5093 258.304 37.7013 259.072 38.128C259.498 38.3413 259.925 38.6827 260.352 39.152C260.778 39.6213 261.184 40.1333 261.568 40.688C261.952 41.2427 262.272 41.7973 262.528 42.352C262.656 42.8213 262.72 43.248 262.72 43.632C262.762 43.9733 262.762 44.4 262.72 44.912C262.72 45.424 262.656 46.192 262.528 47.216C262.314 47.984 262.122 48.9227 261.952 50.032C261.824 51.1413 261.76 52.1013 261.76 52.912C261.674 53.7227 261.76 54.2987 262.016 54.64C262.314 54.9813 262.741 55.0027 263.296 54.704C263.808 54.448 264.298 54.3413 264.768 54.384C265.237 54.384 265.6 54.512 265.856 54.768C266.154 55.024 266.304 55.408 266.304 55.92C266.304 56.432 266.048 56.9653 265.536 57.52C265.066 58.032 264.469 58.48 263.744 58.864C263.061 59.2053 262.4 59.376 261.76 59.376C261.29 59.376 260.842 59.0987 260.416 58.544C259.989 57.9467 259.605 57.2427 259.264 56.432C258.965 55.5787 258.688 54.768 258.432 54L258.048 52.528L255.296 55.152C254.741 55.7493 254.186 56.304 253.632 56.816C253.12 57.2853 252.8 57.6267 252.672 57.84C252.458 58.224 252.053 58.608 251.456 58.992C250.901 59.376 250.133 59.76 249.152 60.144ZM249.344 56.368C250.069 55.9413 250.901 55.3227 251.84 54.512C252.778 53.6587 253.696 52.7413 254.592 51.76C255.488 50.736 256.234 49.7973 256.832 48.944C257.557 47.9627 258.112 47.0453 258.496 46.192C258.88 45.3387 259.157 44.528 259.328 43.76C259.157 43.2907 258.88 42.8 258.496 42.288C258.112 41.7333 257.77 41.4347 257.472 41.392C256.533 41.392 255.53 41.9893 254.464 43.184C253.44 44.336 252.437 45.5947 251.456 46.96C251.285 47.1733 251.05 47.5147 250.752 47.984C250.453 48.4533 250.154 48.9013 249.856 49.328C249.6 49.712 249.429 49.968 249.344 50.096C249.216 50.2667 248.96 50.7573 248.576 51.568C248.234 52.336 247.893 53.1253 247.552 53.936C247.21 54.704 247.04 55.216 247.04 55.472C247.04 55.728 247.061 56.0053 247.104 56.304C247.189 56.6027 247.402 56.7947 247.744 56.88C248.085 56.9653 248.618 56.7947 249.344 56.368Z" fill="white"/>
</g>
<path id="Botanica" d="M124.126 124.481C122.292 123.287 121.054 122.241 120.414 121.345C119.774 120.492 120.03 119.703 121.182 118.977C121.438 118.807 121.844 118.956 122.398 119.425C122.996 119.852 123.486 120.257 123.87 120.641C124.724 121.409 125.769 121.879 127.006 122.049C128.286 122.263 129.716 122.156 131.294 121.729C133.086 121.175 134.644 120.407 135.966 119.425C137.332 118.401 138.612 117.164 139.806 115.713C140.702 114.561 141.321 113.324 141.662 112.001C142.004 110.636 142.132 109.377 142.046 108.225C142.004 107.073 141.769 106.263 141.342 105.793C140.276 104.3 138.782 103.276 136.862 102.721C134.985 102.124 132.766 102.167 130.206 102.849C129.908 102.892 129.46 102.977 128.862 103.105C128.265 103.233 127.732 103.361 127.262 103.489C126.793 103.575 126.537 103.617 126.494 103.617C126.196 103.703 125.961 103.809 125.79 103.937C125.62 104.023 125.406 104.343 125.15 104.897C124.937 105.409 124.596 106.348 124.126 107.713C123.657 109.036 122.953 110.999 122.014 113.601C121.118 116.204 120.393 118.06 119.838 119.169C119.326 120.236 118.857 120.727 118.43 120.641C118.046 120.513 117.556 120.044 116.958 119.233C116.617 118.636 116.404 118.06 116.318 117.505C116.233 116.908 116.404 116.225 116.83 115.457C117.044 115.073 117.214 114.732 117.342 114.433C117.47 114.092 117.641 113.516 117.854 112.705C118.068 112.065 118.473 110.956 119.07 109.377C119.71 107.756 120.457 105.879 121.31 103.745C122.164 101.569 123.06 99.3293 123.998 97.0253C124.937 94.7213 125.833 92.5453 126.686 90.4973C127.582 88.4493 128.329 86.7213 128.926 85.3133C129.524 83.9907 129.886 83.0307 130.014 82.4333C130.142 81.836 130.1 81.516 129.886 81.4733C129.886 81.26 129.822 81.068 129.694 80.8973C129.566 80.684 129.524 80.492 129.566 80.3213C129.566 80.1507 129.844 79.916 130.398 79.6173C130.996 79.3187 131.636 79.0413 132.318 78.7853C133.044 78.5293 133.598 78.444 133.982 78.5293C134.196 78.5293 134.452 78.5293 134.75 78.5293C135.049 78.4867 135.198 78.38 135.198 78.2093C135.326 78.2093 135.732 78.1667 136.414 78.0813C137.097 77.996 137.844 77.996 138.654 78.0813C141.513 78.3373 143.732 79.1693 145.31 80.5773C146.889 81.9427 147.657 83.82 147.614 86.2093C147.572 86.9347 147.188 87.916 146.462 89.1533C145.78 90.3907 144.926 91.628 143.902 92.8653C142.921 94.1027 141.961 95.148 141.022 96.0013C140.468 96.4707 139.87 96.9613 139.23 97.4733C138.633 97.9427 138.1 98.348 137.63 98.6893C137.204 98.988 136.99 99.1373 136.99 99.1373C136.99 99.1373 137.161 99.2013 137.502 99.3293C137.844 99.4573 138.206 99.5853 138.59 99.7133C140.553 100.439 142.174 101.356 143.454 102.465C144.734 103.575 145.609 105.111 146.078 107.073C146.249 107.713 146.249 108.503 146.078 109.441C145.95 110.38 145.758 111.319 145.502 112.257C145.246 113.153 144.969 113.921 144.67 114.561C144.372 114.86 144.137 115.18 143.966 115.521C143.796 115.82 143.71 115.969 143.71 115.969C143.71 116.055 143.54 116.396 143.198 116.993C142.857 117.548 142.452 118.167 141.982 118.849C141.513 119.532 141.065 120.129 140.638 120.641C140.212 120.983 139.7 121.388 139.102 121.857C138.548 122.327 137.908 122.775 137.182 123.201C136.5 123.628 135.753 123.991 134.942 124.289C133.748 124.801 132.446 125.143 131.038 125.313C129.673 125.527 128.372 125.548 127.134 125.377C125.897 125.249 124.894 124.951 124.126 124.481ZM127.262 99.8413C127.262 99.8413 127.646 99.7773 128.414 99.6493C129.225 99.4787 130.1 99.308 131.038 99.1373C131.977 98.924 132.66 98.732 133.086 98.5613C133.3 98.4333 133.598 98.2627 133.982 98.0493C134.409 97.836 134.836 97.516 135.262 97.0893C135.86 96.5347 136.606 95.7453 137.502 94.7213C138.441 93.6547 139.358 92.5453 140.254 91.3933C141.15 90.1987 141.833 89.132 142.302 88.1933C143.284 86.6573 143.817 85.5267 143.902 84.8013C143.988 84.0333 143.753 83.372 143.198 82.8173C142.814 82.348 142.153 82.0493 141.214 81.9213C140.318 81.7507 139.358 81.708 138.334 81.7933C137.31 81.836 136.436 81.964 135.71 82.1773C135.156 82.348 134.729 82.5613 134.43 82.8173C134.132 83.0307 133.982 83.372 133.982 83.8413C133.982 84.2253 133.854 84.6093 133.598 84.9933C133.385 85.3347 133.172 85.612 132.958 85.8253C132.916 86.124 132.809 86.4013 132.638 86.6573C132.468 86.8707 132.382 86.9773 132.382 86.9773C132.382 87.148 132.084 87.852 131.486 89.0893C130.889 90.3267 130.292 91.756 129.694 93.3773C128.926 95.212 128.329 96.7053 127.902 97.8573C127.476 98.9667 127.262 99.628 127.262 99.8413ZM158.272 119.873C157.718 119.873 157.27 119.767 156.928 119.553C156.63 119.34 156.246 119.041 155.776 118.657C154.966 117.804 154.39 116.993 154.048 116.225C153.707 115.415 153.6 114.647 153.728 113.921C153.856 113.58 153.899 113.26 153.856 112.961C153.856 112.62 153.856 112.449 153.856 112.449C153.643 112.236 153.579 112.108 153.664 112.065C153.75 111.98 153.835 111.852 153.92 111.681C154.176 111.681 154.262 111.447 154.176 110.977C154.091 110.636 154.262 109.889 154.688 108.737C155.115 107.585 155.648 106.497 156.288 105.473C156.544 105.047 156.928 104.492 157.44 103.809C157.952 103.084 158.507 102.38 159.104 101.697C159.744 100.972 160.32 100.396 160.832 99.9693C161.899 99.0733 162.838 98.412 163.648 97.9853C164.459 97.5587 165.334 97.2387 166.272 97.0253C167.211 96.812 167.851 96.7053 168.192 96.7053C168.576 96.7053 169.088 97.0467 169.728 97.7293C170.71 98.156 171.414 98.668 171.84 99.2653C172.31 99.8627 172.608 100.737 172.736 101.889C172.864 103.169 172.758 104.641 172.416 106.305C172.118 107.927 171.115 109.953 169.408 112.385C168.342 113.921 167.36 115.073 166.464 115.841C165.568 116.567 164.502 117.292 163.264 118.017C162.368 118.615 161.558 119.063 160.832 119.361C160.107 119.617 159.254 119.788 158.272 119.873ZM164.416 113.089C165.44 111.937 166.251 110.849 166.848 109.825C167.488 108.801 168.086 107.5 168.64 105.921C168.811 105.452 168.918 104.876 168.96 104.193C169.003 103.468 168.982 102.807 168.896 102.209C168.854 101.569 168.704 101.207 168.448 101.121C167.936 100.823 167.318 100.737 166.592 100.865C165.867 100.951 165.078 101.356 164.224 102.081C162.902 103.191 161.75 104.577 160.768 106.241C159.787 107.863 158.827 109.719 157.888 111.809C157.248 113.345 157.099 114.583 157.44 115.521C157.824 116.417 158.614 116.737 159.808 116.481C161.046 116.183 162.582 115.052 164.416 113.089ZM184.675 120.385C184.205 120.3 183.715 120.065 183.203 119.681C182.733 119.255 182.307 118.785 181.923 118.273C181.581 117.719 181.347 117.228 181.219 116.801C181.219 116.716 181.155 116.609 181.027 116.481C180.941 116.353 180.899 116.289 180.899 116.289C180.728 116.161 180.621 115.607 180.579 114.625C180.579 113.601 180.643 112.471 180.771 111.233C180.899 109.996 181.048 109.015 181.219 108.289C181.432 107.607 181.752 106.689 182.179 105.537C182.605 104.343 182.968 103.276 183.267 102.337L184.995 98.6253L182.435 97.9213C182.136 97.836 181.88 97.6653 181.667 97.4093C181.496 97.1533 181.411 96.94 181.411 96.7693C181.411 96.428 181.603 96.0227 181.987 95.5533C182.371 95.0413 182.648 94.7853 182.819 94.7853C183.032 94.828 183.416 94.8493 183.971 94.8493C184.568 94.8493 185.144 94.828 185.699 94.7853C186.253 94.7427 186.595 94.7 186.723 94.6573C186.893 94.572 187.064 94.4653 187.235 94.3373C187.405 94.1667 187.533 93.932 187.619 93.6333C187.832 93.164 188.024 92.7373 188.195 92.3533C188.365 91.9267 188.6 91.4573 188.899 90.9453C189.197 90.3907 189.432 89.9213 189.603 89.5373C189.816 89.1533 190.136 88.62 190.563 87.9373C190.776 87.6387 191.011 87.276 191.267 86.8493C191.523 86.4227 191.843 86.06 192.227 85.7613C192.611 85.42 192.995 85.2707 193.379 85.3133C193.805 85.3133 194.339 85.5907 194.979 86.1453C195.32 86.572 195.512 86.892 195.555 87.1053C195.597 87.3187 195.427 87.724 195.043 88.3213C194.701 89.0467 194.296 89.772 193.827 90.4973C193.4 91.2227 192.995 91.948 192.611 92.6733C191.928 93.612 191.8 94.1453 192.227 94.2733C192.653 94.4013 193.848 94.316 195.811 94.0173C197.048 93.804 197.944 93.868 198.499 94.2093C199.053 94.508 199.373 95.02 199.459 95.7453C199.587 96.7693 199.48 97.388 199.139 97.6013C198.797 97.8147 197.816 97.9213 196.195 97.9213C195.171 98.092 194.296 98.1987 193.571 98.2413C192.845 98.2413 192.312 98.2413 191.971 98.2413C191.416 98.284 191.053 98.3053 190.883 98.3053C190.712 98.3053 190.456 98.348 190.115 98.4333C189.773 98.5187 189.517 98.668 189.347 98.8813C189.219 99.052 189.069 99.308 188.899 99.6493C188.728 99.82 188.472 100.268 188.131 100.993C187.789 101.719 187.363 102.508 186.851 103.361C186.253 105.153 185.741 106.945 185.315 108.737C184.888 110.487 184.547 112.193 184.291 113.857C184.12 114.924 184.141 115.671 184.355 116.097C184.568 116.481 185.123 116.716 186.019 116.801C186.488 116.844 187.235 116.844 188.259 116.801C189.325 116.716 190.157 116.588 190.755 116.417C191.224 116.204 191.715 115.991 192.227 115.777C192.739 115.521 193.208 115.265 193.635 115.009C194.019 114.796 194.403 114.583 194.787 114.369C195.171 114.113 195.363 113.985 195.363 113.985C195.576 113.644 195.811 113.537 196.067 113.665C196.323 113.793 196.536 114.113 196.707 114.625C196.707 115.137 196.6 115.671 196.387 116.225C196.173 116.78 195.384 117.441 194.019 118.209C192.099 119.404 190.328 120.129 188.707 120.385C187.128 120.599 185.784 120.599 184.675 120.385ZM209.446 118.977C209.105 119.063 208.657 119.105 208.102 119.105C207.548 119.063 207.057 118.999 206.63 118.913C206.246 118.785 206.054 118.657 206.054 118.529C206.054 118.316 205.948 118.209 205.734 118.209C205.734 118.209 205.628 118.124 205.414 117.953C205.244 117.783 204.966 117.612 204.582 117.441C204.198 116.844 204.006 116.204 204.006 115.521C204.006 114.796 204.198 113.665 204.582 112.129C204.71 111.063 205.116 109.825 205.798 108.417C206.524 106.967 207.398 105.495 208.422 104.001C209.446 102.508 210.513 101.164 211.622 99.9693C212.774 98.7747 213.82 97.9 214.758 97.3453C215.356 96.748 216.081 96.428 216.934 96.3853C217.788 96.3427 218.598 96.5347 219.366 96.9613C219.793 97.1747 220.22 97.516 220.646 97.9853C221.073 98.4547 221.478 98.9667 221.862 99.5213C222.246 100.076 222.566 100.631 222.822 101.185C222.95 101.655 223.014 102.081 223.014 102.465C223.057 102.807 223.057 103.233 223.014 103.745C223.014 104.257 222.95 105.025 222.822 106.049C222.609 106.817 222.417 107.756 222.246 108.865C222.118 109.975 222.054 110.935 222.054 111.745C221.969 112.556 222.054 113.132 222.31 113.473C222.609 113.815 223.036 113.836 223.59 113.537C224.102 113.281 224.593 113.175 225.062 113.217C225.532 113.217 225.894 113.345 226.15 113.601C226.449 113.857 226.598 114.241 226.598 114.753C226.598 115.265 226.342 115.799 225.83 116.353C225.361 116.865 224.764 117.313 224.038 117.697C223.356 118.039 222.694 118.209 222.054 118.209C221.585 118.209 221.137 117.932 220.71 117.377C220.284 116.78 219.9 116.076 219.558 115.265C219.26 114.412 218.982 113.601 218.726 112.833L218.342 111.361L215.59 113.985C215.036 114.583 214.481 115.137 213.926 115.649C213.414 116.119 213.094 116.46 212.966 116.673C212.753 117.057 212.348 117.441 211.75 117.825C211.196 118.209 210.428 118.593 209.446 118.977ZM209.638 115.201C210.364 114.775 211.196 114.156 212.134 113.345C213.073 112.492 213.99 111.575 214.886 110.593C215.782 109.569 216.529 108.631 217.126 107.777C217.852 106.796 218.406 105.879 218.79 105.025C219.174 104.172 219.452 103.361 219.622 102.593C219.452 102.124 219.174 101.633 218.79 101.121C218.406 100.567 218.065 100.268 217.766 100.225C216.828 100.225 215.825 100.823 214.758 102.017C213.734 103.169 212.732 104.428 211.75 105.793C211.58 106.007 211.345 106.348 211.046 106.817C210.748 107.287 210.449 107.735 210.15 108.161C209.894 108.545 209.724 108.801 209.638 108.929C209.51 109.1 209.254 109.591 208.87 110.401C208.529 111.169 208.188 111.959 207.846 112.769C207.505 113.537 207.334 114.049 207.334 114.305C207.334 114.561 207.356 114.839 207.398 115.137C207.484 115.436 207.697 115.628 208.038 115.713C208.38 115.799 208.913 115.628 209.638 115.201ZM252.734 120.065C252.307 120.065 251.859 119.831 251.39 119.361C250.963 118.892 250.579 118.316 250.238 117.633C249.939 116.908 249.79 116.225 249.79 115.585C249.79 114.945 249.939 113.751 250.238 112.001C250.579 110.252 250.984 108.481 251.454 106.689C251.795 105.58 251.902 104.94 251.774 104.769C251.646 104.599 251.07 104.833 250.046 105.473C249.448 105.772 248.915 106.092 248.446 106.433C247.976 106.732 247.571 107.073 247.23 107.457C247.016 107.628 246.696 107.905 246.27 108.289C245.843 108.673 245.395 109.036 244.926 109.377C244.371 109.804 243.667 110.401 242.814 111.169C241.96 111.937 241.107 112.705 240.254 113.473C239.443 114.241 238.824 114.839 238.398 115.265C238.312 115.436 238.184 115.585 238.014 115.713C237.843 115.841 237.651 115.927 237.438 115.969C237.224 115.969 236.99 115.927 236.734 115.841C236.264 115.713 235.816 115.436 235.39 115.009C235.006 114.583 234.814 114.092 234.814 113.537C234.814 113.111 234.984 112.385 235.326 111.361C235.667 110.295 236.115 109.015 236.67 107.521C237.267 106.028 237.95 104.449 238.718 102.785C238.846 102.572 238.952 102.316 239.038 102.017C239.123 101.676 239.187 101.313 239.23 100.929C239.315 100.545 239.358 100.183 239.358 99.8413C239.358 99.628 239.379 99.4147 239.422 99.2013C239.507 98.9453 239.592 98.7107 239.678 98.4973C239.806 98.2413 239.912 98.0707 239.998 97.9853C240.168 97.644 240.467 97.5587 240.894 97.7293C241.32 97.8573 241.683 98.156 241.982 98.6253C242.622 99.2227 242.942 99.9693 242.942 100.865C242.984 101.761 242.771 102.871 242.302 104.193C242.131 104.492 241.982 104.791 241.854 105.089C241.768 105.345 241.683 105.58 241.598 105.793C241.512 105.964 241.448 106.113 241.406 106.241C241.363 106.327 241.342 106.369 241.342 106.369C241.512 106.369 241.896 106.177 242.494 105.793C243.091 105.409 243.795 104.983 244.606 104.513C245.246 104.044 245.8 103.617 246.27 103.233C246.782 102.807 247.208 102.487 247.55 102.273C247.891 102.017 248.104 101.889 248.19 101.889C248.36 101.889 248.574 101.825 248.83 101.697C249.086 101.569 249.299 101.42 249.47 101.249C249.64 101.079 249.768 100.993 249.854 100.993C249.982 100.951 250.046 100.929 250.046 100.929C250.046 100.929 250.131 100.929 250.302 100.929C250.472 100.887 250.643 100.78 250.814 100.609C251.155 100.353 251.603 100.289 252.158 100.417C252.712 100.503 253.224 100.716 253.694 101.057C254.163 101.399 254.398 101.783 254.398 102.209C254.398 102.38 254.44 102.529 254.526 102.657C254.654 102.743 254.718 102.785 254.718 102.785C255.059 102.785 255.272 103.319 255.358 104.385C255.486 105.452 255.379 106.476 255.038 107.457C255.038 108.097 254.91 108.865 254.654 109.761C254.44 110.657 254.248 111.511 254.078 112.321C253.736 113.388 253.502 114.327 253.374 115.137C253.246 115.948 253.224 116.631 253.31 117.185C253.395 117.74 253.544 118.188 253.758 118.529C253.928 118.828 253.928 119.169 253.758 119.553C253.587 119.895 253.246 120.065 252.734 120.065ZM266.122 117.697C265.952 117.697 265.738 117.655 265.482 117.569C265.269 117.441 265.162 117.377 265.162 117.377C265.162 117.207 265.098 116.993 264.97 116.737C264.885 116.481 264.842 116.268 264.842 116.097C264.544 115.927 264.373 115.756 264.33 115.585C264.288 115.372 264.352 115.031 264.522 114.561C264.778 114.135 265.12 113.452 265.546 112.513C265.973 111.532 266.421 110.487 266.89 109.377C267.36 108.225 267.808 107.095 268.234 105.985C268.661 104.876 269.024 103.937 269.322 103.169C269.621 102.359 269.792 101.868 269.834 101.697C269.834 101.527 269.898 101.313 270.026 101.057C270.154 100.801 270.304 100.588 270.474 100.417C270.816 100.119 271.178 100.097 271.562 100.353C271.946 100.567 272.266 100.951 272.522 101.505C272.821 102.017 272.97 102.593 272.97 103.233C272.97 103.532 272.757 104.3 272.33 105.537C271.904 106.732 271.328 108.161 270.602 109.825C269.92 111.489 269.152 113.175 268.298 114.881C267.658 116.119 267.253 116.908 267.082 117.249C266.912 117.548 266.592 117.697 266.122 117.697ZM275.53 93.4413C275.018 93.4413 274.464 93.2493 273.866 92.8653C273.312 92.4387 272.821 91.9267 272.394 91.3293C272.01 90.6893 271.818 90.0493 271.818 89.4093C271.818 89.196 271.946 88.8973 272.202 88.5133C272.458 88.1293 272.714 87.7453 272.97 87.3613C273.226 86.9773 273.354 86.7427 273.354 86.6573C273.696 86.6573 273.952 86.6787 274.122 86.7213C274.336 86.7213 274.592 86.8067 274.89 86.9773C275.36 88.044 275.936 88.9187 276.618 89.6013C277.344 90.284 277.706 90.86 277.706 91.3293C277.706 92.268 277.621 92.8653 277.45 93.1213C277.28 93.3347 276.64 93.4413 275.53 93.4413ZM289.26 119.169C288.705 119.425 288.065 119.532 287.34 119.489C286.614 119.447 285.633 119.212 284.396 118.785C284.31 118.785 284.118 118.7 283.82 118.529C283.564 118.359 283.286 118.145 282.988 117.889C282.732 117.591 282.518 117.271 282.348 116.929C281.665 115.948 281.388 114.497 281.516 112.577C281.644 110.657 282.241 108.353 283.308 105.665C283.606 105.025 284.054 104.215 284.652 103.233C285.292 102.252 285.91 101.356 286.508 100.545C287.148 99.692 287.596 99.2013 287.852 99.0733C287.852 99.0733 288.086 98.988 288.556 98.8173C289.025 98.6467 289.622 98.3693 290.348 97.9853C290.561 97.9 290.796 97.8147 291.052 97.7293C291.35 97.644 291.649 97.58 291.948 97.5373C292.246 97.4947 292.502 97.4947 292.716 97.5373C293.569 97.58 294.444 97.9 295.34 98.4973C296.278 99.052 297.046 99.7133 297.644 100.481C298.241 101.207 298.433 101.847 298.22 102.401C298.22 102.487 298.092 102.657 297.836 102.913C297.622 103.127 297.366 103.361 297.068 103.617C296.812 103.831 296.598 104.044 296.428 104.257C296.214 104.513 295.916 104.62 295.532 104.577C295.19 104.535 294.87 104.364 294.572 104.065C294.316 103.724 294.166 103.297 294.124 102.785C294.038 102.444 293.718 102.124 293.164 101.825C292.652 101.527 292.396 101.377 292.396 101.377C292.054 101.377 291.564 101.697 290.924 102.337C290.326 102.935 289.729 103.66 289.132 104.513C288.364 105.281 287.702 106.199 287.148 107.265C286.593 108.289 286.145 109.271 285.804 110.209C285.505 111.105 285.292 111.745 285.164 112.129C284.993 112.556 284.972 113.153 285.1 113.921C285.228 114.689 285.377 115.159 285.548 115.329C285.718 115.415 286.145 115.436 286.828 115.393C287.553 115.351 288.406 115.265 289.388 115.137C290.369 114.967 291.329 114.775 292.268 114.561C293.206 114.348 293.974 114.113 294.572 113.857C295.382 113.345 296.086 113.047 296.684 112.961C297.281 112.876 297.729 112.876 298.028 112.961C298.497 113.132 298.774 113.367 298.86 113.665C298.945 113.964 298.838 114.305 298.54 114.689C298.241 115.031 297.729 115.393 297.004 115.777C296.321 116.119 295.702 116.503 295.148 116.929C294.636 117.313 294.38 117.612 294.38 117.825C294.209 117.825 294.017 117.889 293.804 118.017C293.633 118.103 293.484 118.124 293.356 118.081C293.27 118.081 292.929 118.145 292.332 118.273C291.734 118.401 291.116 118.551 290.476 118.721C289.878 118.892 289.473 119.041 289.26 119.169ZM307.567 118.529C307.396 118.188 307.183 117.932 306.927 117.761C306.671 117.548 306.543 117.356 306.543 117.185C306.543 117.015 306.521 116.844 306.479 116.673C306.479 116.46 306.393 116.268 306.223 116.097C306.009 115.841 306.031 115.265 306.287 114.369C306.543 113.431 306.969 112.3 307.567 110.977C308.164 109.612 308.868 108.183 309.679 106.689C310.02 106.348 310.361 105.9 310.703 105.345C311.044 104.791 311.3 104.428 311.471 104.257C311.471 104.087 311.535 103.937 311.663 103.809C311.791 103.639 311.94 103.553 312.111 103.553V103.169C312.111 102.956 312.303 102.593 312.687 102.081C313.113 101.569 313.625 101.015 314.223 100.417C314.82 99.7773 315.439 99.18 316.079 98.6253C316.719 98.028 317.252 97.6013 317.679 97.3453C318.575 96.748 319.492 96.3853 320.431 96.2573C321.412 96.1293 322.244 96.3427 322.927 96.8973C323.055 97.0253 323.268 97.2387 323.567 97.5373C323.865 97.836 324.207 98.1773 324.591 98.5613C325.017 98.9027 325.444 99.2653 325.871 99.6493L328.239 101.761L327.087 104.961C326.532 106.668 326.383 108.161 326.639 109.441C326.937 110.721 327.364 111.831 327.919 112.769C328.132 113.239 328.559 113.687 329.199 114.113C329.881 114.54 330.521 114.796 331.119 114.881C331.46 114.924 331.78 115.052 332.079 115.265C332.377 115.479 332.527 115.82 332.527 116.289C332.527 116.716 332.441 117.057 332.271 117.313C332.1 117.569 331.801 117.74 331.375 117.825C329.967 117.996 328.644 117.655 327.407 116.801C326.212 115.948 325.103 114.54 324.079 112.577C323.908 112.321 323.673 111.852 323.375 111.169C323.119 110.444 322.969 109.975 322.927 109.761C322.756 109.975 322.436 110.38 321.967 110.977C321.497 111.532 321.135 111.937 320.879 112.193C317.849 115.265 315.225 117.335 313.007 118.401C310.831 119.425 309.017 119.468 307.567 118.529ZM309.871 114.945C309.871 115.244 310.319 115.244 311.215 114.945C312.153 114.604 313.156 114.007 314.223 113.153C315.673 111.916 317.124 110.551 318.575 109.057C320.068 107.564 321.263 106.177 322.159 104.897L323.567 102.593C323.14 101.612 322.671 100.951 322.159 100.609C321.689 100.225 321.284 100.033 320.943 100.033C320.388 100.033 319.556 100.545 318.447 101.569C317.38 102.593 316.228 103.959 314.991 105.665C313.753 107.372 312.58 109.249 311.471 111.297C311.044 112.151 310.66 112.983 310.319 113.793C310.02 114.561 309.871 114.945 309.871 114.945Z" fill="white"/>
</g>
</svg>
