<svg width="110" height="120" viewBox="0 0 110 120" fill="none" xmlns="http://www.w3.org/2000/svg">
<path d="M83.5222 12.0602C82.4119 11.7942 81.2829 12.4441 81.0046 13.5142L78.9293 21.5141C78.6513 22.5861 79.3277 23.672 80.4382 23.9401C80.6084 23.9821 80.7765 24.0001 80.9446 24.0001C81.8744 24.0001 82.7191 23.394 82.9557 22.4861L85.0311 14.4862C85.3091 13.4144 84.6324 12.3283 83.5222 12.0602Z" fill="#EA39EE"/>
<path d="M109.781 21.1063C109.268 20.1184 108.023 19.7143 106.995 20.2103L105.553 20.9052C105.318 19.3677 104.946 17.8534 104.432 16.3794C103.399 13.4158 101.861 10.7786 99.9033 8.55648L103.164 5.41422C103.976 4.63212 103.976 3.36814 103.164 2.58627C102.352 1.80416 101.041 1.80416 100.229 2.58627L96.9365 5.75946C95.3276 4.50181 93.5371 3.46165 91.5911 2.67158C85.168 0.0618225 78.0851 0.62807 71.9314 3.64165L70.2683 0.970257C69.679 0.0243225 68.4046 -0.283645 67.4208 0.286353C66.4391 0.854241 66.1195 2.08236 66.7111 3.03041L68.3873 5.72243C64.1918 8.62445 60.6654 12.7635 58.4361 17.8555C57.3475 20.3448 56.2795 23.1882 56.0453 28.0714C53.6219 28.232 51.2675 28.67 49.011 29.3609L47.6295 25.3672C47.2664 24.3212 46.0936 23.7512 45.004 24.1032C43.9166 24.4531 43.327 25.5852 43.6901 26.6333L45.1424 30.8312C42.3238 32.119 39.705 33.815 37.348 35.8468C34.4256 33.95 32.948 33.1405 31.2961 32.4931C28.7182 31.4837 26.0665 31.0109 23.4949 31.0114L22.7886 27.6083C22.5666 26.5262 21.4789 25.8224 20.348 26.0403C19.2231 26.2564 18.4946 27.3104 18.7208 28.3923L19.3522 31.4349C13.9852 32.5583 9.42925 35.8561 7.35997 40.7553C6.91488 41.8104 6.60308 42.8972 6.41872 44.0002H2.07536C0.929815 44.0002 0 44.8962 0 46.0001C0 47.104 0.929815 48 2.07536 48H6.31268C6.52355 49.886 7.09753 51.7711 8.0344 53.587C9.25681 55.9558 11.0175 58.0418 13.1787 59.7339L10.7925 62.7998C10.1054 63.6839 10.2902 64.9378 11.2076 65.5999C11.5812 65.8699 12.0193 65.9999 12.4507 65.9999C13.0816 65.9999 13.7043 65.7238 14.1131 65.2L16.6542 61.935C17.2567 62.2385 17.8764 62.5188 18.5153 62.7691C19.3975 63.115 20.2898 63.3972 21.4169 63.749C22.3613 64.0441 23.4837 64.3966 24.9289 64.8967C25.0289 67.8904 25.4801 70.9389 26.2771 73.9998H19.8681C16.9252 73.9998 14.528 76.3077 14.528 79.1458V80.8536C14.528 83.6917 16.9252 85.9996 19.8681 85.9996H22.1273L34.5683 96.4897C35.1121 96.9256 36.7412 97.9998 39.4331 97.9998C40.3172 97.9998 41.3115 97.3398 42.3617 96.6418C43.1981 96.0837 44.0635 95.5098 45.068 95.1118C48.9261 93.5757 52.0062 93.2858 55.4285 96.5858L63.5517 104.888C64.2429 105.68 65.5152 106.058 67.0447 105.998C69.0953 105.914 70.7888 104.884 71.8473 104.034L75.002 101.5C77.1959 99.7376 80.3132 99.5037 82.7643 100.92L86.7825 103.162L88.2663 104.014L94.8643 85.9993H96.3562C99.3013 85.9993 101.696 83.6914 101.696 80.8534V79.1455C101.696 76.3075 99.3013 73.9996 96.3562 73.9996H89.9467C90.8576 70.4896 91.3194 66.9681 91.3194 63.4996C91.3194 63.3571 91.316 63.2156 91.3146 63.0735L96.6223 59.6636C97.5749 59.0517 97.8323 57.8097 97.1972 56.8896C96.56 55.9697 95.2712 55.7217 94.3185 56.3355L91.0001 58.4674C90.8026 56.9172 90.5153 55.402 90.143 53.9278C91.1956 52.6983 92.2359 51.5212 93.2474 50.3787C97.2841 45.8187 101.099 41.5128 103.448 36.1447C104.996 32.6065 105.799 28.8992 105.85 25.2352L108.851 23.7894C109.876 23.2942 110.293 22.0942 109.781 21.1063ZM20.078 59.0632C19.7749 58.9446 19.4787 58.8154 19.1861 58.6821L20.3394 57.2004C21.0265 56.3163 20.8417 55.0624 19.9243 54.4003C19.0049 53.7382 17.7057 53.9182 17.0186 54.8004L15.6694 56.5338C14.0226 55.2176 12.6845 53.614 11.7512 51.8055C11.1096 50.5627 10.6952 49.2816 10.5026 48.0005H12.4524C13.598 48.0005 14.5278 47.1045 14.5278 46.0006C14.5278 44.8967 13.598 44.0006 12.4524 44.0006H10.6431C10.7789 43.411 10.9659 42.8304 11.2052 42.2637C12.7326 38.6443 16.123 36.2072 20.1636 35.3473L20.7957 38.3928C20.9908 39.3427 21.8583 40.0008 22.8275 40.0008C22.9625 40.0008 23.0995 39.9889 23.2364 39.9607C24.3613 39.7446 25.0897 38.6907 24.8635 37.6088L24.3275 35.0255C26.1144 35.1176 27.9434 35.498 29.7307 36.1997C30.9656 36.6837 32.1486 37.3198 34.3382 38.7197C30.8838 42.5171 28.289 47.0838 26.7047 52.0549C26.6781 52.1376 26.6514 52.2201 26.6254 52.3029C26.5918 52.4105 26.5597 52.5185 26.5274 52.6263C25.7471 55.1986 25.2322 57.8979 25.0189 60.6879C24.1266 60.3925 23.3704 60.1551 22.6991 59.9454C21.6825 59.6271 20.8772 59.377 20.078 59.0632ZM97.5455 79.146V80.8539C97.5455 81.486 97.0121 82 96.3562 82H19.8678C19.2119 82 18.6785 81.486 18.6785 80.8539V79.146C18.6785 78.5139 19.2119 77.9999 19.8678 77.9999H27.4873H88.7379H96.3564C97.0121 77.9999 97.5455 78.5141 97.5455 79.146ZM81.2911 67.1099C81.6917 67.6879 82.3496 67.9999 83.0199 67.9999C83.4142 67.9999 83.8147 67.8918 84.1696 67.6638L87.0882 65.7888C86.9104 68.496 86.4279 71.2795 85.6554 73.9998H30.5669C29.5909 70.5862 29.0872 67.1943 29.0609 63.8946L29.0624 63.501C29.0741 60.0993 29.5868 56.7628 30.5511 53.6067C30.5553 53.5931 30.5591 53.5795 30.5633 53.5662C30.61 53.4136 30.6601 53.2624 30.709 53.1108C33.3921 44.8505 39.1427 38.1558 46.4648 34.6552L47.8409 38.6332C48.1315 39.4711 48.9409 40.0013 49.8104 40.0013C50.0262 40.0013 50.2485 39.9673 50.4664 39.8972C51.5538 39.5473 52.1434 38.4153 51.7802 37.3672L50.3234 33.1557C52.8032 32.4038 55.4151 32.0002 58.1124 32.0002C58.1447 32.0002 58.1766 32.0014 58.2089 32.0014C58.5314 32.0026 58.8527 32.0098 59.1728 32.0223C59.2518 32.0253 59.3309 32.0281 59.4099 32.0316C71.6812 32.6056 82.2093 41.2854 85.8505 53.9972L86.1355 54.9909C86.6161 56.9163 86.9372 58.92 87.0811 60.9857L81.8661 64.3361C80.9134 64.9481 80.6561 66.19 81.2911 67.1099ZM99.6233 34.5915C97.5229 39.3875 94.0797 43.2774 90.0907 47.7813C89.6244 48.307 89.1541 48.8388 88.6781 49.3781C83.9171 37.3322 73.1726 28.891 60.2004 28.0688C60.4186 23.9544 61.2983 21.613 62.2612 19.4094C64.1344 15.1326 67.0598 11.6369 70.5283 9.16093L72.9376 13.0302C73.3258 13.6541 74.0126 14.0003 74.7185 14.0003C75.0816 14.0003 75.451 13.9082 75.7852 13.7144C76.7668 13.1465 77.0864 11.9183 76.4949 10.9703L74.0703 7.07594C79.1039 4.68884 84.8107 4.25923 89.9791 6.35735C91.4211 6.94305 92.7568 7.70406 93.9763 8.61249L91.9282 10.5862C91.1166 11.3683 91.1166 12.6322 91.9282 13.4141C92.3329 13.8041 92.8643 14.0001 93.3955 14.0001C93.9269 14.0001 94.4581 13.8041 94.8628 13.4141L96.9513 11.4015C98.471 13.1894 99.6751 15.2936 100.498 17.6532C101.077 19.3192 101.447 21.0479 101.609 22.8057L98.6942 24.2099C97.6688 24.7058 97.2517 25.9058 97.7644 26.8939C98.1297 27.5959 98.8623 27.9999 99.624 27.9999C99.9354 27.9999 100.253 27.932 100.55 27.7899L101.572 27.2973C101.312 29.7547 100.663 32.2147 99.6233 34.5915Z" fill="#EA39EE"/>
<path d="M92.8909 30.0601L84.5892 32.06C83.4789 32.3279 82.8023 33.414 83.0803 34.486C83.3169 35.394 84.1616 36.0001 85.0914 36.0001C85.2595 36.0001 85.4275 35.9821 85.5978 35.9401L93.8995 33.9402C95.0098 33.6723 95.6864 32.5862 95.4084 31.5142C95.1302 30.4443 94.0011 29.7901 92.8909 30.0601Z" fill="#EA39EE"/>
<path d="M42.9763 54.5862C42.1647 53.804 40.853 53.804 40.0416 54.5862C39.2303 55.3683 39.2303 56.6322 40.0416 57.4141L46.268 63.4141C46.6727 63.8041 47.2041 64 47.7353 64C48.2667 64 48.7979 63.8041 49.2026 63.4141C50.0142 62.632 50.0142 61.368 49.2026 60.5861L42.9763 54.5862Z" fill="#EA39EE"/>
<path d="M70.972 44.04C69.8449 43.82 68.7534 44.524 68.5313 45.608L66.456 55.608C66.2298 56.6901 66.9582 57.7441 68.0831 57.96C68.22 57.9879 68.3569 58.0001 68.4919 58.0001C69.4612 58.0001 70.3287 57.3422 70.5238 56.392L72.5991 46.392C72.8253 45.3101 72.0969 44.2561 70.972 44.04Z" fill="#EA39EE"/>
<path d="M95.4704 116H83.8753L86.8413 107.902L80.6566 104.366C79.6893 103.808 78.498 103.898 77.6616 104.572L74.5049 107.106C72.28 108.894 69.7605 109.892 67.2179 109.994C64.3601 110.122 61.8944 109.216 60.4477 107.54L52.451 99.3722C50.828 97.81 49.8608 97.5342 46.6501 98.8083C46.0544 99.0443 45.4068 99.4762 44.7177 99.9342C43.2609 100.902 41.6109 102 39.4336 102C35.3843 102 32.8004 100.278 31.8791 99.5362L24.2725 93.1701L23.8573 92.8181L32.348 116H18.6783C17.5327 116 16.6029 116.896 16.6029 118C16.6029 119.104 17.5327 120 18.6783 120H33.8129V120H82.4094V120H95.4694C96.615 120 97.5448 119.104 97.5448 118C97.5448 116.896 96.6162 116 95.4704 116Z" fill="#EA39EE"/>
</svg>
