<svg width="311" height="104" viewBox="0 0 311 104" fill="none" xmlns="http://www.w3.org/2000/svg">
<g id="Group 38">
<g id="Group 8">
<path id="Macetas" d="M142.304 88.072C142.261 88.328 142.005 88.392 141.536 88.264C141.109 88.1787 140.725 87.88 140.384 87.368C140.043 86.5573 139.872 85.8107 139.872 85.128C139.872 84.4453 139.893 83.4213 139.936 82.056C140.192 80.5627 140.533 78.6213 140.96 76.232C141.429 73.8 141.963 71.0907 142.56 68.104C143.2 65.0747 143.883 61.9173 144.608 58.632C145.12 56.9253 145.525 55.368 145.824 53.96C146.165 52.5093 146.421 51.336 146.592 50.44C146.763 49.544 146.848 49.096 146.848 49.096C146.848 48.968 146.72 49.032 146.464 49.288C146.251 49.5013 146.037 49.7573 145.824 50.056C145.611 50.3547 145.525 50.5893 145.568 50.76C145.568 50.76 145.419 50.9733 145.12 51.4C144.821 51.8267 144.437 52.4027 143.968 53.128C143.541 53.5547 143.029 54.408 142.432 55.688C141.835 56.968 141.173 58.1627 140.448 59.272C139.765 60.552 139.04 61.9387 138.272 63.432C137.504 64.8827 136.821 66.0987 136.224 67.08C135.84 67.6347 135.456 68.2747 135.072 69C134.688 69.7253 134.453 70.1947 134.368 70.408C134.197 70.8773 133.899 71.4533 133.472 72.136C133.045 72.776 132.576 73.416 132.064 74.056C131.808 74.44 131.552 74.8453 131.296 75.272C131.04 75.656 130.827 75.9973 130.656 76.296C130.528 76.552 130.464 76.68 130.464 76.68C130.464 76.808 130.251 77.192 129.824 77.832C129.44 78.472 128.949 79.176 128.352 79.944C127.797 80.712 127.264 81.3733 126.752 81.928C125.259 83.5067 124.064 84.4453 123.168 84.744C122.272 85 121.269 84.616 120.16 83.592C119.605 82.9093 119.2 82.1413 118.944 81.288C118.688 80.392 118.581 79.304 118.624 78.024C118.667 76.7013 118.816 75.0587 119.072 73.096C119.371 71.6027 119.648 70.1093 119.904 68.616C120.16 67.08 120.395 65.6507 120.608 64.328C120.864 62.9627 121.077 61.8107 121.248 60.872C121.461 59.9333 121.632 59.3147 121.76 59.016C121.845 58.1627 121.824 57.6933 121.696 57.608C121.568 57.5227 121.312 57.7787 120.928 58.376C120.757 58.6747 120.309 59.4213 119.584 60.616C118.859 61.768 118.005 63.1973 117.024 64.904C116.085 66.6107 115.147 68.4667 114.208 70.472C112.459 73.7147 111.008 76.4027 109.856 78.536C108.747 80.6267 107.851 82.2907 107.168 83.528C106.528 84.7653 106.059 85.6827 105.76 86.28C105.461 86.8773 105.248 87.2827 105.12 87.496C104.992 87.7093 104.885 87.8587 104.8 87.944C104.416 87.944 104.011 87.7733 103.584 87.432C103.2 87.1333 102.795 86.7707 102.368 86.344C102.24 86.0453 102.176 85.7467 102.176 85.448C102.219 85.1493 102.368 84.7227 102.624 84.168C102.88 83.5707 103.264 82.6747 103.776 81.48C104.331 80.3707 104.843 79.4107 105.312 78.6C105.781 77.7467 106.144 77.2347 106.4 77.064C106.613 76.7227 106.805 76.3813 106.976 76.04C107.147 75.6987 107.253 75.2933 107.296 74.824C107.509 74.568 107.829 74.056 108.256 73.288C108.725 72.4773 109.195 71.6027 109.664 70.664C110.005 70.1093 110.432 69.384 110.944 68.488C111.499 67.592 112.075 66.6107 112.672 65.544C113.269 64.4347 113.803 63.3893 114.272 62.408C116.235 59.0373 117.899 56.2 119.264 53.896C120.629 51.5493 121.653 50.056 122.336 49.416C122.549 49.2027 122.763 48.904 122.976 48.52C123.232 48.136 123.36 47.7947 123.36 47.496C123.36 46.6 123.531 45.7893 123.872 45.064C124.256 44.296 124.64 43.9547 125.024 44.04C125.451 44.04 125.835 44.0827 126.176 44.168C126.517 44.2533 126.88 44.5307 127.264 45C127.605 45.512 127.904 46.024 128.16 46.536C128.416 47.048 128.395 48.072 128.096 49.608C128.096 50.2053 128.032 50.888 127.904 51.656C127.776 52.3813 127.648 53.064 127.52 53.704C127.435 54.3013 127.371 54.7707 127.328 55.112C126.773 56.776 126.261 58.6533 125.792 60.744C125.323 62.792 124.896 64.8827 124.512 67.016C124.128 69.1067 123.808 71.0693 123.552 72.904C123.296 74.696 123.125 76.1893 123.04 77.384C122.997 78.536 123.04 79.1973 123.168 79.368C123.467 79.5387 123.723 79.56 123.936 79.432C124.149 79.304 124.512 78.7493 125.024 77.768C125.323 77.256 125.728 76.6373 126.24 75.912C126.795 75.144 127.328 74.44 127.84 73.8C128.181 73.2027 128.715 72.3067 129.44 71.112C130.165 69.9173 131.083 68.3813 132.192 66.504C133.344 64.6267 134.709 62.344 136.288 59.656C137.909 56.9253 139.744 53.768 141.792 50.184C142.773 48.6907 143.691 47.24 144.544 45.832C145.44 44.3813 146.165 43.4427 146.72 43.016C147.317 42.4613 147.936 42.3333 148.576 42.632C149.216 42.888 149.771 43.4427 150.24 44.296C150.752 45.1493 151.029 46.216 151.072 47.496C151.115 48.0933 151.029 49.0533 150.816 50.376C150.645 51.6987 150.368 53.2133 149.984 54.92C149.6 56.584 149.109 58.312 148.512 60.104C148.384 60.8293 148.171 61.7467 147.872 62.856C147.616 63.9227 147.317 65.032 146.976 66.184C146.635 67.336 146.293 68.424 145.952 69.448C145.739 70.856 145.483 72.2427 145.184 73.608C144.928 74.9733 144.843 75.8907 144.928 76.36C144.544 77.0427 144.288 78.024 144.16 79.304C144.032 80.584 143.968 81.9067 143.968 83.272C143.797 84.936 143.669 86.1093 143.584 86.792C143.499 87.4747 143.349 87.7947 143.136 87.752C142.581 87.5813 142.304 87.688 142.304 88.072ZM156.111 82.696C155.94 82.3547 155.727 82.0987 155.471 81.928C155.215 81.7147 155.087 81.5227 155.087 81.352C155.087 81.1813 155.065 81.0107 155.023 80.84C155.023 80.6267 154.937 80.4347 154.767 80.264C154.553 80.008 154.575 79.432 154.831 78.536C155.087 77.5973 155.513 76.4667 156.111 75.144C156.708 73.7787 157.412 72.3493 158.223 70.856C158.564 70.5147 158.905 70.0667 159.247 69.512C159.588 68.9573 159.844 68.5947 160.015 68.424C160.015 68.2533 160.079 68.104 160.207 67.976C160.335 67.8053 160.484 67.72 160.655 67.72V67.336C160.655 67.1227 160.847 66.76 161.231 66.248C161.657 65.736 162.169 65.1813 162.767 64.584C163.364 63.944 163.983 63.3467 164.623 62.792C165.263 62.1947 165.796 61.768 166.223 61.512C167.119 60.9147 168.036 60.552 168.975 60.424C169.956 60.296 170.788 60.5093 171.471 61.064C171.599 61.192 171.812 61.4053 172.111 61.704C172.409 62.0027 172.751 62.344 173.135 62.728C173.561 63.0693 173.988 63.432 174.415 63.816L176.783 65.928L175.631 69.128C175.076 70.8347 174.927 72.328 175.183 73.608C175.481 74.888 175.908 75.9973 176.463 76.936C176.676 77.4053 177.103 77.8533 177.743 78.28C178.425 78.7067 179.065 78.9627 179.663 79.048C180.004 79.0907 180.324 79.2187 180.623 79.432C180.921 79.6453 181.071 79.9867 181.071 80.456C181.071 80.8827 180.985 81.224 180.815 81.48C180.644 81.736 180.345 81.9067 179.919 81.992C178.511 82.1627 177.188 81.8213 175.951 80.968C174.756 80.1147 173.647 78.7067 172.623 76.744C172.452 76.488 172.217 76.0187 171.919 75.336C171.663 74.6107 171.513 74.1413 171.471 73.928C171.3 74.1413 170.98 74.5467 170.511 75.144C170.041 75.6987 169.679 76.104 169.423 76.36C166.393 79.432 163.769 81.5013 161.551 82.568C159.375 83.592 157.561 83.6347 156.111 82.696ZM158.415 79.112C158.415 79.4107 158.863 79.4107 159.759 79.112C160.697 78.7707 161.7 78.1733 162.767 77.32C164.217 76.0827 165.668 74.7173 167.119 73.224C168.612 71.7307 169.807 70.344 170.703 69.064L172.111 66.76C171.684 65.7787 171.215 65.1173 170.703 64.776C170.233 64.392 169.828 64.2 169.487 64.2C168.932 64.2 168.1 64.712 166.991 65.736C165.924 66.76 164.772 68.1253 163.535 69.832C162.297 71.5387 161.124 73.416 160.015 75.464C159.588 76.3173 159.204 77.1493 158.863 77.96C158.564 78.728 158.415 79.112 158.415 79.112ZM193.776 84.296C192.539 84.5093 191.408 84.4453 190.384 84.104C189.36 83.72 188.528 83.1013 187.888 82.248C187.291 81.352 186.992 80.2213 186.992 78.856C186.864 77.576 187.013 76.104 187.44 74.44C187.867 72.7333 188.485 71.0267 189.296 69.32C190.149 67.6133 191.067 66.1413 192.048 64.904C192.901 63.88 193.755 62.9413 194.608 62.088C195.461 61.2347 196.229 60.6587 196.912 60.36C197.509 60.104 198.064 59.9547 198.576 59.912C199.131 59.8267 199.579 59.784 199.92 59.784C200.603 59.9547 201.328 60.2747 202.096 60.744C202.907 61.1707 203.312 61.64 203.312 62.152C203.312 62.152 203.355 62.216 203.44 62.344C203.568 62.4293 203.632 62.472 203.632 62.472C203.888 62.472 204.101 62.7493 204.272 63.304C204.485 63.8587 204.613 64.4987 204.656 65.224C204.699 65.9067 204.592 66.4827 204.336 66.952C204.165 67.7627 203.867 68.4667 203.44 69.064C203.013 69.6613 202.629 69.96 202.288 69.96C202.117 69.96 201.947 69.9813 201.776 70.024C201.648 70.024 201.584 70.1307 201.584 70.344C201.584 70.5573 201.456 70.6427 201.2 70.6C200.987 70.5573 200.752 70.4293 200.496 70.216C200.24 69.96 200.048 69.6613 199.92 69.32C199.92 69.1067 200.005 68.744 200.176 68.232C200.347 67.72 200.517 67.0587 200.688 66.248C200.944 65.0533 200.923 64.2853 200.624 63.944C200.325 63.56 199.749 63.5387 198.896 63.88C197.829 64.4773 196.805 65.3093 195.824 66.376C194.885 67.4427 194.011 68.8293 193.2 70.536C192.389 72.2 191.664 74.2907 191.024 76.808C190.768 77.7893 190.661 78.6427 190.704 79.368C190.789 80.0933 190.896 80.4773 191.024 80.52C191.621 80.6907 192.432 80.7333 193.456 80.648C194.48 80.52 195.227 80.328 195.696 80.072C196.379 79.7307 197.147 79.2827 198 78.728C198.853 78.1307 199.6 77.5973 200.24 77.128C200.453 77 200.709 76.7867 201.008 76.488C201.307 76.1893 201.627 75.9547 201.968 75.784C202.309 75.272 202.608 74.9733 202.864 74.888C203.12 74.8027 203.504 74.76 204.016 74.76C204.357 74.8453 204.677 74.9733 204.976 75.144C205.275 75.3147 205.467 75.4853 205.552 75.656C205.68 75.8267 205.616 75.976 205.36 76.104C205.189 76.104 205.083 76.168 205.04 76.296C205.04 76.3813 205.04 76.424 205.04 76.424C205.125 76.5947 204.933 76.9573 204.464 77.512C204.037 78.024 203.483 78.6 202.8 79.24C202.117 79.88 201.456 80.4347 200.816 80.904C200.219 81.3307 199.792 81.544 199.536 81.544C199.109 81.544 198.896 81.672 198.896 81.928C198.896 82.0133 198.576 82.2267 197.936 82.568C197.339 82.9093 196.635 83.2507 195.824 83.592C195.056 83.9333 194.373 84.168 193.776 84.296ZM218.894 85.192C217.017 85.192 215.481 84.488 214.286 83.08C213.091 81.6293 212.515 79.8373 212.558 77.704C212.643 76.168 212.942 74.5253 213.454 72.776C214.009 70.984 214.734 69.2773 215.63 67.656C216.526 65.992 217.507 64.5413 218.574 63.304C219.641 62.0667 220.75 61.192 221.902 60.68C222.329 60.4667 222.777 60.296 223.246 60.168C223.758 60.04 224.27 59.976 224.782 59.976C225.251 59.976 225.742 60.0613 226.254 60.232C226.766 60.36 227.193 60.5093 227.534 60.68C228.259 60.9787 228.814 61.3413 229.198 61.768C229.582 62.1947 229.923 62.856 230.222 63.752C230.35 64.5627 230.414 65.1387 230.414 65.48C230.414 65.8213 230.307 66.3333 230.094 67.016C229.582 68.552 228.921 69.8747 228.11 70.984C227.299 72.0933 226.211 73.032 224.846 73.8C224.505 74.0133 224.099 74.184 223.63 74.312C223.203 74.3973 222.755 74.44 222.286 74.44C221.433 74.44 220.601 74.2907 219.79 73.992C219.022 73.6507 218.403 73.16 217.934 72.52L217.486 72.008L217.294 72.52C216.867 73.672 216.526 74.7387 216.27 75.72C216.057 76.7013 215.95 77.5973 215.95 78.408C215.95 78.92 215.993 79.4107 216.078 79.88C216.206 80.3493 216.377 80.7547 216.59 81.096C216.761 81.352 217.038 81.544 217.422 81.672C217.849 81.7573 218.297 81.8 218.766 81.8C219.065 81.8 219.363 81.8 219.662 81.8C220.003 81.7573 220.323 81.672 220.622 81.544C221.347 81.288 221.923 81.0107 222.35 80.712C222.819 80.4133 223.289 80.0933 223.758 79.752L224.014 79.624H223.95C224.462 79.368 224.91 79.112 225.294 78.856C225.721 78.6 225.934 78.472 225.934 78.472C226.105 78.472 226.275 78.3653 226.446 78.152C226.787 77.9813 227.214 78.0453 227.726 78.344C228.281 78.6427 228.558 79.0267 228.558 79.496C228.515 79.7093 228.323 80.0507 227.982 80.52C227.641 80.9467 227.257 81.352 226.83 81.736C226.446 82.12 226.126 82.3333 225.87 82.376C225.827 82.4187 225.678 82.504 225.422 82.632C225.166 82.7173 224.995 82.8027 224.91 82.888H224.974C224.59 83.4 224.206 83.656 223.822 83.656H223.31C223.139 83.9547 222.585 84.296 221.646 84.68C220.707 85.0213 219.79 85.192 218.894 85.192ZM221.774 71.112C222.542 71.112 223.203 70.8987 223.758 70.472C224.355 70.0027 224.867 69.4907 225.294 68.936C226.147 67.784 226.638 66.6747 226.766 65.608C226.937 64.4987 226.809 63.7307 226.382 63.304C226.126 63.176 225.891 63.112 225.678 63.112C225.507 63.0693 225.145 63.1333 224.59 63.304C224.206 63.3893 223.673 63.7093 222.99 64.264C222.307 64.8187 221.625 65.4373 220.942 66.12C220.302 66.8027 219.811 67.3787 219.47 67.848L218.638 69.192C218.979 69.064 219.299 69 219.598 69C219.939 68.9573 220.131 68.9787 220.174 69.064C220.174 69.448 220.238 69.8107 220.366 70.152C220.537 70.4507 220.729 70.6853 220.942 70.856C221.198 71.0267 221.475 71.112 221.774 71.112ZM244.763 84.872C244.165 84.7013 243.675 84.5093 243.291 84.296C242.907 84.04 242.395 83.6347 241.755 83.08C241.243 82.3973 240.837 81.7573 240.539 81.16C240.283 80.5627 240.112 79.88 240.027 79.112C239.941 78.3013 239.899 77.2773 239.899 76.04C239.899 75.528 239.984 74.76 240.155 73.736C240.368 72.712 240.603 71.6453 240.859 70.536C241.157 69.384 241.413 68.36 241.627 67.464C241.883 66.568 242.032 65.992 242.075 65.736C242.203 65.1813 241.989 64.8613 241.435 64.776C240.88 64.6907 240.261 64.6693 239.579 64.712C238.939 64.712 238.512 64.648 238.299 64.52C238.128 64.4773 238.043 64.4133 238.043 64.328C238.043 64.2 238.043 64.136 238.043 64.136C238.043 63.9653 238.021 63.8587 237.979 63.816C237.979 63.7307 237.915 63.5813 237.787 63.368C237.701 63.1973 237.744 62.9627 237.915 62.664C238.128 62.3227 238.469 62.1093 238.939 62.024C239.323 61.9387 239.835 61.8747 240.475 61.832C241.157 61.7467 241.84 61.5973 242.523 61.384C243.205 61.128 243.76 60.744 244.187 60.232C244.571 59.2933 245.019 58.248 245.531 57.096C246.043 55.944 246.533 54.92 247.003 54.024C247.515 53.0853 247.856 52.5093 248.027 52.296C248.752 51.912 249.285 51.7627 249.627 51.848C249.968 51.8907 250.352 52.2533 250.779 52.936C250.992 53.2347 251.141 53.4693 251.227 53.64C251.355 53.8107 251.376 54.0667 251.291 54.408C251.205 54.7493 250.971 55.2827 250.587 56.008C250.245 56.7333 249.712 57.7787 248.987 59.144C248.773 59.5707 248.581 59.9547 248.411 60.296C248.24 60.5947 248.155 60.744 248.155 60.744C248.325 60.7867 248.581 60.808 248.923 60.808C249.264 60.808 249.691 60.7867 250.203 60.744C250.672 60.6587 251.269 60.5947 251.995 60.552C252.72 60.4667 253.296 60.4667 253.723 60.552C254.704 60.552 255.429 60.744 255.899 61.128C256.368 61.4693 256.624 62.0667 256.667 62.92C256.752 63.3893 256.645 63.6667 256.347 63.752C256.091 63.8373 255.387 63.88 254.235 63.88C253.851 63.88 253.253 63.9013 252.443 63.944C251.632 63.9867 250.779 64.0293 249.883 64.072C249.029 64.1147 248.283 64.1787 247.643 64.264C247.045 64.3067 246.747 64.3707 246.747 64.456C246.619 64.5413 246.405 64.9467 246.107 65.672C245.851 66.3973 245.573 67.2293 245.275 68.168C245.019 69.064 244.784 69.8747 244.571 70.6C244.272 72.0507 244.037 73.5013 243.867 74.952C243.739 76.4027 243.717 77.6613 243.803 78.728C243.888 79.7947 244.123 80.5413 244.507 80.968C244.891 81.352 245.637 81.4373 246.747 81.224C247.856 80.968 248.752 80.5627 249.435 80.008C250.203 79.368 250.821 79.048 251.291 79.048C251.803 79.048 252.08 79.2827 252.123 79.752C252.208 80.1787 251.973 80.7973 251.419 81.608C250.907 82.376 250.267 83.0587 249.499 83.656C248.731 84.2107 247.92 84.616 247.067 84.872C246.256 85.0853 245.488 85.0853 244.763 84.872ZM265.118 82.888C264.606 82.9733 264.051 82.888 263.454 82.632C262.857 82.376 262.323 82.0133 261.854 81.544C261.427 81.0747 261.15 80.584 261.022 80.072C260.851 79.176 260.958 78.0667 261.342 76.744C261.769 75.3787 262.366 73.9493 263.134 72.456C263.945 70.92 264.841 69.448 265.822 68.04C266.846 66.632 267.891 65.416 268.958 64.392C270.067 63.3253 271.091 62.6 272.03 62.216C272.499 61.9173 272.862 61.7253 273.118 61.64C273.417 61.512 273.715 61.4907 274.014 61.576C274.355 61.6613 274.846 61.8747 275.486 62.216C276.083 62.3867 276.531 62.5787 276.83 62.792C277.129 63.0053 277.513 63.432 277.982 64.072C278.323 64.712 278.579 65.352 278.75 65.992C278.921 66.632 279.07 67.3573 279.198 68.168C279.539 69.2347 279.667 69.9387 279.582 70.28C279.497 70.5787 279.369 70.8133 279.198 70.984C278.857 71.4107 278.771 71.624 278.942 71.624C278.942 71.624 278.921 71.7093 278.878 71.88C278.878 72.008 278.793 72.2213 278.622 72.52C278.323 73.4587 278.089 74.44 277.918 75.464C277.79 76.4453 277.811 77.256 277.982 77.896C278.323 78.8347 278.942 79.3893 279.838 79.56C280.734 79.7307 281.651 79.3467 282.59 78.408C283.059 78.0667 283.507 77.768 283.934 77.512C284.361 77.2133 284.574 77.2347 284.574 77.576C284.574 77.576 284.638 77.64 284.766 77.768C284.894 77.8533 285.043 77.896 285.214 77.896C285.427 77.896 285.555 77.9813 285.598 78.152C285.683 78.3227 285.683 78.5573 285.598 78.856C285.555 79.112 285.427 79.4107 285.214 79.752C284.574 80.392 284.254 80.8187 284.254 81.032C284.254 81.032 284.169 81.1173 283.998 81.288C283.87 81.416 283.635 81.6293 283.294 81.928C282.526 82.3973 281.545 82.632 280.35 82.632C279.198 82.632 278.302 82.3973 277.662 81.928C277.022 81.4587 276.425 80.8187 275.87 80.008C275.358 79.1973 275.017 78.4933 274.846 77.896L274.526 77.256L272.67 78.472C272.201 78.9413 271.689 79.3893 271.134 79.816C270.622 80.2427 270.281 80.5413 270.11 80.712C269.982 80.8827 269.833 81.032 269.662 81.16C269.534 81.288 269.385 81.352 269.214 81.352C269.043 81.352 268.894 81.352 268.766 81.352C268.638 81.352 268.574 81.352 268.574 81.352C268.574 81.5227 268.361 81.736 267.934 81.992C267.55 82.248 267.081 82.4613 266.526 82.632C266.014 82.8027 265.545 82.888 265.118 82.888ZM264.478 79.432C264.734 79.432 265.182 79.24 265.822 78.856C266.505 78.4293 267.251 77.9387 268.062 77.384C268.915 76.8293 269.662 76.2747 270.302 75.72C270.985 75.1653 271.454 74.7387 271.71 74.44C271.881 74.2693 272.158 73.992 272.542 73.608C272.926 73.1813 273.267 72.8187 273.566 72.52C274.547 71.4107 275.23 70.1947 275.614 68.872C275.998 67.5067 275.955 66.44 275.486 65.672C275.315 65.2027 275.102 64.9467 274.846 64.904C274.59 64.8613 274.057 65.0107 273.246 65.352C272.734 65.6507 272.094 66.2267 271.326 67.08C270.601 67.8907 269.811 68.8507 268.958 69.96C268.147 71.0267 267.379 72.136 266.654 73.288C265.929 74.44 265.331 75.5067 264.862 76.488C264.393 77.4693 264.158 78.2373 264.158 78.792C264.158 78.9627 264.201 79.112 264.286 79.24C264.414 79.368 264.478 79.432 264.478 79.432ZM296.488 84.104C294.355 84.104 292.797 83.336 291.816 81.8C291.517 81.3733 291.368 80.9467 291.368 80.52C291.411 80.0507 291.539 79.7307 291.752 79.56C292.008 79.3893 292.307 79.5387 292.648 80.008C293.245 80.3493 294.099 80.52 295.208 80.52C295.763 80.52 296.339 80.4773 296.936 80.392C297.533 80.264 298.131 80.0933 298.728 79.88C299.368 79.5813 299.795 79.3253 300.008 79.112C300.221 78.856 300.179 78.6427 299.88 78.472H299.944C298.835 78.1733 297.704 77.704 296.552 77.064C295.443 76.3813 294.483 75.656 293.672 74.888C292.861 74.0773 292.392 73.352 292.264 72.712C291.923 71.3893 292.008 70.0453 292.52 68.68C293.032 67.272 293.757 66.0347 294.696 64.968C295.037 64.7547 295.464 64.4987 295.976 64.2C296.488 63.8587 296.893 63.6667 297.192 63.624V63.688C298.003 62.8347 298.984 62.152 300.136 61.64C301.331 61.128 302.589 60.6587 303.912 60.232L304.872 60.104C305.384 60.0187 305.811 59.976 306.152 59.976C306.109 59.976 306.195 60.0187 306.408 60.104C306.621 60.1467 306.813 60.1893 306.984 60.232C307.24 60.36 307.453 60.424 307.624 60.424C308.179 60.5093 308.691 60.7653 309.16 61.192C309.629 61.6187 309.992 62.1307 310.248 62.728C310.547 63.2827 310.653 63.816 310.568 64.328C310.483 65.1387 310.227 65.864 309.8 66.504C309.416 67.144 308.947 67.5067 308.392 67.592C308.477 67.5493 308.413 67.4853 308.2 67.4C308.029 67.272 307.837 67.144 307.624 67.016L307.432 67.144C307.432 67.144 307.411 67.1013 307.368 67.016C307.368 66.888 307.325 66.7387 307.24 66.568C307.112 66.312 307.048 66.0347 307.048 65.736C307.048 65.3947 307.069 65.032 307.112 64.648C307.197 64.1787 307.197 63.9013 307.112 63.816C307.069 63.7307 306.792 63.6667 306.28 63.624C305.683 63.496 304.808 63.6027 303.656 63.944C302.547 64.2853 301.608 64.7547 300.84 65.352C299.901 65.9493 299.112 66.5253 298.472 67.08C297.832 67.592 297.32 68.104 296.936 68.616C296.552 69.0853 296.211 69.64 295.912 70.28C295.699 70.5787 295.507 70.8773 295.336 71.176C295.208 71.432 295.144 71.6667 295.144 71.88C295.144 72.3493 295.485 72.84 296.168 73.352C296.893 73.8213 297.96 74.376 299.368 75.016C300.477 75.4853 301.416 75.9973 302.184 76.552C302.952 77.1067 303.485 77.7467 303.784 78.472C303.869 78.6427 303.891 78.856 303.848 79.112C303.848 79.3253 303.805 79.4747 303.72 79.56C303.805 79.6453 303.848 79.7093 303.848 79.752V79.688C304.189 80.2 304.189 80.7333 303.848 81.288C303.549 81.8427 303.016 82.3333 302.248 82.76C301.523 83.144 300.627 83.4427 299.56 83.656H299.624C299.069 83.8267 298.515 83.9547 297.96 84.04C297.448 84.0827 296.957 84.104 296.488 84.104Z" fill="black"/>
</g>
<g id="Group">
<g id="Group_2">
<g id="Group_3">
<path id="Vector" d="M72.4371 9.64811C71.4742 9.4353 70.495 9.95523 70.2537 10.8114L68.4538 17.2113C68.2127 18.0689 68.7993 18.9376 69.7625 19.1521C69.9101 19.1856 70.0559 19.2001 70.2016 19.2001C71.008 19.2001 71.7406 18.7152 71.9459 17.9888L73.7458 11.5889C73.9869 10.7315 73.4001 9.86261 72.4371 9.64811Z" fill="#EA39EE"/>
<path id="Vector_2" d="M95.2107 16.885C94.7661 16.0947 93.6861 15.7715 92.7951 16.1682L91.544 16.7241C91.34 15.4941 91.0173 14.2827 90.5718 13.1035C89.6759 10.7326 88.3422 8.62286 86.6441 6.84518L89.4722 4.33138C90.1761 3.70569 90.1761 2.69451 89.4722 2.06901C88.7683 1.44333 87.6307 1.44333 86.927 2.06901L84.0711 4.60756C82.6758 3.60144 81.1229 2.76932 79.4352 2.13726C73.8645 0.049458 67.7216 0.502456 62.3847 2.91332L60.9424 0.776205C60.4313 0.019458 59.326 -0.226916 58.4727 0.229082C57.6214 0.683393 57.3442 1.66589 57.8572 2.42432L59.311 4.57794C55.6723 6.89956 52.6139 10.2108 50.6805 14.2844C49.7363 16.2758 48.8101 18.5506 48.607 22.4571C46.5052 22.5856 44.4633 22.936 42.5063 23.4887L41.3082 20.2938C40.9932 19.4569 39.9761 19.0009 39.0311 19.2826C38.088 19.5625 37.5767 20.4681 37.8916 21.3066L39.1511 24.6649C36.7066 25.6952 34.4354 27.052 32.3912 28.6774C29.8566 27.16 28.5752 26.5124 27.1425 25.9945C24.9068 25.1869 22.6069 24.8087 20.3767 24.8091L19.7641 22.0866C19.5716 21.2209 18.6282 20.6579 17.6474 20.8323C16.6718 21.0051 16.04 21.8483 16.2362 22.7138L16.7838 25.1479C12.1291 26.0466 8.1778 28.6849 6.38316 32.6042C5.99714 33.4483 5.72672 34.3178 5.56683 35.2001H1.79992C0.806411 35.2001 0 35.9169 0 36.8001C0 37.6832 0.806411 38.4 1.79992 38.4H5.47486C5.65774 39.9088 6.15555 41.4169 6.96808 42.8696C8.02825 44.7647 9.55522 46.4334 11.4296 47.7871L9.3601 50.2398C8.76421 50.9471 8.92452 51.9502 9.72017 52.4799C10.0442 52.6959 10.4241 52.7999 10.7983 52.7999C11.3454 52.7999 11.8854 52.5791 12.24 52.16L14.4439 49.548C14.9664 49.7908 15.5038 50.015 16.058 50.2153C16.823 50.492 17.597 50.7178 18.5745 50.9992C19.3935 51.2353 20.367 51.5173 21.6204 51.9174C21.7071 54.3123 22.0984 56.7511 22.7896 59.1999H17.2312C14.6789 59.1999 12.5999 61.0462 12.5999 63.3166V64.6829C12.5999 66.9533 14.6789 68.7996 17.2312 68.7996H19.1906L29.9804 77.1917C30.4521 77.5405 31.8649 78.3998 34.1996 78.3998C34.9663 78.3998 35.8287 77.8718 36.7395 77.3134C37.4649 76.867 38.2154 76.4078 39.0866 76.0894C42.4327 74.8605 45.104 74.6286 48.072 77.2686L55.1171 83.9102C55.7166 84.5438 56.82 84.8462 58.1466 84.7982C59.925 84.7311 61.3938 83.907 62.3118 83.227L65.0478 81.1997C66.9505 79.7901 69.654 79.603 71.7799 80.7356L75.2647 82.5293L76.5517 83.2108L82.274 68.7994H83.5678C86.1221 68.7994 88.1992 66.9531 88.1992 64.6827V63.3164C88.1992 61.046 86.1221 59.1997 83.5678 59.1997H78.009C78.799 56.3917 79.1996 53.5745 79.1996 50.7997C79.1996 50.6857 79.1966 50.5724 79.1953 50.4588L83.7986 47.7309C84.6249 47.2413 84.848 46.2478 84.2973 45.5117C83.7446 44.7757 82.6269 44.5773 81.8006 45.0684L78.9226 46.7739C78.7513 45.5338 78.5022 44.3216 78.1793 43.1422C79.0922 42.1586 79.9944 41.217 80.8717 40.3029C84.3726 36.6549 87.6811 33.2102 89.7186 28.9157C91.0612 26.0852 91.7577 23.1194 91.8018 20.1882L94.4043 19.0315C95.2934 18.6353 95.6554 17.6753 95.2107 16.885ZM17.4132 47.2505C17.1504 47.1556 16.8935 47.0523 16.6397 46.9457L17.64 45.7603C18.2359 45.053 18.0756 44.0499 17.2799 43.5202C16.4826 42.9905 15.3558 43.1345 14.7599 43.8403L13.5898 45.227C12.1616 44.174 11.001 42.8912 10.1916 41.4444C9.63517 40.4501 9.27573 39.4252 9.10867 38.4004H10.7997C11.7933 38.4004 12.5997 37.6836 12.5997 36.8004C12.5997 35.9173 11.7933 35.2005 10.7997 35.2005H9.23059C9.34829 34.7288 9.5105 34.2643 9.71806 33.811C11.0427 30.9154 13.9832 28.9658 17.4875 28.2778L18.0357 30.7142C18.2049 31.4741 18.9573 32.0006 19.7979 32.0006C19.915 32.0006 20.0337 31.9911 20.1525 31.9686C21.1281 31.7957 21.7598 30.9525 21.5636 30.087L21.0987 28.0204C22.6485 28.0941 24.2347 28.3984 25.7849 28.9598C26.8558 29.347 27.8818 29.8558 29.7809 30.9758C26.785 34.0136 24.5345 37.6671 23.1604 41.6439C23.1374 41.7101 23.1142 41.7761 23.0917 41.8423C23.0626 41.9284 23.0347 42.0148 23.0067 42.101C22.33 44.1588 21.8834 46.3183 21.6984 48.5503C20.9245 48.314 20.2687 48.1241 19.6865 47.9563C18.8048 47.7016 18.1064 47.5016 17.4132 47.2505ZM84.5993 63.3168V64.6831C84.5993 65.1888 84.1367 65.6 83.5678 65.6H17.231C16.6621 65.6 16.1995 65.1888 16.1995 64.6831V63.3168C16.1995 62.8111 16.6621 62.3999 17.231 62.3999H23.8392H76.9607H83.5681C84.1367 62.3999 84.5993 62.8113 84.5993 63.3168ZM70.5022 53.6879C70.8496 54.1503 71.4202 54.3999 72.0016 54.3999C72.3435 54.3999 72.6909 54.3134 72.9986 54.131L75.5299 52.631C75.3757 54.7968 74.9572 57.0236 74.2873 59.1999H26.5101C25.6636 56.4689 25.2268 53.7554 25.204 51.1156L25.2052 50.8008C25.2154 48.0795 25.66 45.4102 26.4964 42.8854C26.5 42.8745 26.5034 42.8636 26.5069 42.8529C26.5474 42.7309 26.5909 42.6099 26.6333 42.4886C28.9603 35.8804 33.9477 30.5247 40.298 27.7242L41.4915 30.9066C41.7435 31.5769 42.4455 32.001 43.1996 32.001C43.3867 32.001 43.5795 31.9738 43.7685 31.9178C44.7116 31.6378 45.2229 30.7322 44.908 29.8937L43.6445 26.5245C45.7952 25.923 48.0604 25.6002 50.3997 25.6002C50.4278 25.6002 50.4554 25.6011 50.4835 25.6011C50.7632 25.602 51.0418 25.6079 51.3194 25.6178C51.388 25.6202 51.4565 25.6225 51.5251 25.6253C62.1677 26.0845 71.2985 33.0283 74.4564 43.1977L74.7037 43.9927C75.1205 45.533 75.3989 47.136 75.5238 48.7886L71.0009 51.4689C70.1746 51.9584 69.9515 52.952 70.5022 53.6879ZM86.4014 27.6732C84.5797 31.51 81.5935 34.6219 78.1339 38.2251C77.7295 38.6456 77.3216 39.0711 76.9088 39.5025C72.7797 29.8658 63.4611 23.1128 52.2106 22.4551C52.3998 19.1635 53.1628 17.2904 53.9979 15.5275C55.6225 12.106 58.1597 9.30948 61.1678 7.32874L63.2574 10.4242C63.594 10.9233 64.1897 11.2002 64.8019 11.2002C65.1168 11.2002 65.4372 11.1265 65.727 10.9715C66.5784 10.5172 66.8555 9.53467 66.3425 8.77624L64.2397 5.66075C68.6053 3.75107 73.5547 3.40738 78.0371 5.08588C79.2877 5.55444 80.4462 6.16325 81.5038 6.88999L79.7275 8.46892C79.0236 9.09461 79.0236 10.1058 79.7275 10.7313C80.0785 11.0433 80.5394 11.2 81.0001 11.2C81.461 11.2 81.9217 11.0433 82.2727 10.7313L84.084 9.12123C85.4019 10.5515 86.4463 12.2348 87.1597 14.1226C87.6626 15.4553 87.983 16.8383 88.1232 18.2446L85.5956 19.3679C84.7063 19.7646 84.3445 20.7246 84.7892 21.5151C85.106 22.0767 85.7413 22.3999 86.402 22.3999C86.672 22.3999 86.9475 22.3456 87.2048 22.2319L88.0914 21.8378C87.8659 23.8037 87.3033 25.7717 86.4014 27.6732Z" fill="#EA39EE"/>
<path id="Vector_3" d="M80.5624 24.0481L73.3625 25.648C72.3996 25.8623 71.8127 26.7312 72.0538 27.5888C72.2591 28.3152 72.9917 28.8001 73.7981 28.8001C73.9438 28.8001 74.0896 28.7856 74.2372 28.7521L81.4371 27.1521C82.4001 26.9378 82.9869 26.0689 82.7458 25.2113C82.5045 24.3554 81.5253 23.8321 80.5624 24.0481Z" fill="#EA39EE"/>
<path id="Vector_4" d="M37.2725 43.6688C36.5686 43.0432 35.431 43.0432 34.7273 43.6688C34.0237 44.2945 34.0237 45.3057 34.7273 45.9312L40.1273 50.7312C40.4783 51.0432 40.9392 51.1999 41.3999 51.1999C41.8608 51.1999 42.3215 51.0432 42.6725 50.7312C43.3764 50.1055 43.3764 49.0943 42.6725 48.4688L37.2725 43.6688Z" fill="#EA39EE"/>
<path id="Vector_5" d="M61.5526 35.2321C60.5751 35.056 59.6284 35.6192 59.4359 36.4864L57.6359 44.4865C57.4398 45.3521 58.0715 46.1953 59.0471 46.368C59.1659 46.3903 59.2846 46.4001 59.4017 46.4001C60.2423 46.4001 60.9947 45.8738 61.1638 45.1136L62.9638 37.1136C63.1599 36.2481 62.5282 35.4049 61.5526 35.2321Z" fill="#EA39EE"/>
<path id="Vector_6" d="M82.7996 92.7999H72.7434L75.3158 86.3216L69.9519 83.4928C69.113 83.0464 68.0798 83.1184 67.3544 83.6576L64.6166 85.6848C62.687 87.1153 60.5019 87.9137 58.2968 87.9952C55.8182 88.0976 53.6798 87.3729 52.4251 86.0321L45.4897 79.4977C44.0822 78.2481 43.2433 78.0274 40.4587 79.0466C39.9421 79.2354 39.3804 79.581 38.7828 79.9474C37.5193 80.7217 36.0883 81.6002 34.2 81.6002C30.6881 81.6002 28.4471 80.2226 27.6481 79.629L21.051 74.5361L20.691 74.2545L28.0548 92.7999H16.1993C15.2058 92.7999 14.3994 93.5167 14.3994 94.3998C14.3994 95.2829 15.2058 95.9997 16.1993 95.9997H29.3252V95.9999H71.4721V95.9997H82.7987C83.7923 95.9997 84.5987 95.2829 84.5987 94.3998C84.5987 93.5167 83.7933 92.7999 82.7996 92.7999Z" fill="#EA39EE"/>
</g>
</g>
</g>
</g>
</svg>
