<svg width="353" height="117" viewBox="0 0 353 117" fill="none" xmlns="http://www.w3.org/2000/svg">
<g id="Group 36">
<g id="Group 6">
<path id="Plantas" d="M118.046 100.905C117.534 100.905 117.108 100.628 116.766 100.073C116.51 99.8173 116.34 99.4546 116.254 98.9853C116.212 98.5586 116.361 97.7693 116.702 96.6173C117.044 95.4226 117.62 93.6093 118.43 91.1773C118.857 89.556 119.198 88.3826 119.454 87.6573C119.71 86.8893 119.838 86.3346 119.838 85.9933C119.838 85.524 119.881 85.14 119.966 84.8413C120.094 84.5 120.158 84.18 120.158 83.8813C120.414 83.8813 120.67 83.6466 120.926 83.1773C121.182 82.708 121.396 82.068 121.566 81.2573C121.737 80.532 121.886 79.956 122.014 79.5293C122.185 79.06 122.27 78.74 122.27 78.5693C122.484 78.228 122.697 77.6946 122.91 76.9693C123.166 76.244 123.55 75.3693 124.062 74.3453C124.404 73.0653 124.788 71.7426 125.214 70.3773C125.641 68.9693 126.068 67.668 126.494 66.4733C126.964 65.236 127.348 64.276 127.646 63.5933C128.116 62.2706 128.478 61.3533 128.734 60.8413C128.99 60.2866 128.99 59.924 128.734 59.7533C128.436 59.54 128.372 59.1773 128.542 58.6653C128.713 58.1533 129.182 57.5773 129.95 56.9373C130.42 56.3826 130.825 55.9986 131.166 55.7853C131.508 55.5293 131.934 55.4013 132.446 55.4013C133.001 55.4013 133.79 55.444 134.814 55.5293C135.582 55.572 136.393 55.5933 137.246 55.5933C138.142 55.5933 138.697 55.5933 138.91 55.5933C139.294 55.764 139.764 55.956 140.318 56.1693C140.873 56.34 141.364 56.5106 141.79 56.6813C142.26 56.852 142.494 57.0013 142.494 57.1293C142.494 57.3853 142.58 57.556 142.75 57.6413C142.964 57.684 143.177 57.7266 143.39 57.7693C143.689 57.7693 144.094 58.004 144.606 58.4733C145.118 58.9 145.652 59.4546 146.206 60.1373C146.761 60.7773 147.188 61.46 147.486 62.1853C147.828 62.9106 148.084 63.5933 148.254 64.2333C148.468 64.8733 148.468 65.7906 148.254 66.9853C148.212 67.6253 148.105 68.2653 147.934 68.9053C147.806 69.5453 147.657 69.972 147.486 70.1853C147.23 70.356 146.996 70.5693 146.782 70.8253C146.569 71.0813 146.462 71.316 146.462 71.5293C146.462 71.7 146.313 72.0413 146.014 72.5533C145.716 73.0226 145.332 73.5773 144.862 74.2173C144.393 74.8573 143.881 75.4973 143.326 76.1373C142.772 76.7773 142.238 77.332 141.726 77.8013C141.172 78.484 140.51 79.124 139.742 79.7213C139.017 80.3186 138.356 80.8093 137.758 81.1933C136.649 81.7053 135.412 82.2173 134.046 82.7293C132.724 83.2413 131.444 83.668 130.206 84.0093C129.012 84.3506 128.009 84.5 127.198 84.4573C125.961 84.628 125.15 84.7986 124.766 84.9693C124.425 85.0973 124.169 85.46 123.998 86.0573C123.785 86.612 123.572 87.188 123.358 87.7853C123.188 88.34 123.102 88.724 123.102 88.9373C123.017 89.108 122.804 89.6413 122.462 90.5373C122.164 91.3906 121.822 92.3933 121.438 93.5453C121.097 94.6973 120.756 95.828 120.414 96.9373C120.073 98.0466 119.817 98.964 119.646 99.6893C119.476 100.287 119.262 100.628 119.006 100.713C118.75 100.841 118.43 100.905 118.046 100.905ZM125.982 81.0653C126.153 81.236 126.814 81.2573 127.966 81.1293C129.118 81.0013 130.356 80.6813 131.678 80.1693C132.532 79.8706 133.385 79.508 134.238 79.0813C135.134 78.6546 135.988 78.1853 136.798 77.6733C137.225 77.3746 137.865 76.8413 138.718 76.0733C139.572 75.3053 140.425 74.388 141.278 73.3213C141.406 73.108 141.62 72.7026 141.918 72.1053C142.26 71.4653 142.558 70.868 142.814 70.3133C143.198 69.716 143.582 68.8413 143.966 67.6893C144.35 66.4946 144.436 65.5133 144.222 64.7453C144.009 63.636 143.454 62.612 142.558 61.6733C141.662 60.692 140.596 60.0306 139.358 59.6893C138.42 59.5186 137.63 59.4333 136.99 59.4333C136.393 59.4333 135.732 59.4973 135.006 59.6253C134.324 59.8386 133.812 60.1373 133.47 60.5213C133.172 60.9053 132.766 61.716 132.254 62.9533C131.956 63.5506 131.529 64.468 130.974 65.7053C130.42 66.9 129.95 68.0306 129.566 69.0973C128.798 71.9133 128.03 74.2386 127.262 76.0733C126.537 77.8653 126.089 78.996 125.918 79.4653C125.961 79.9346 125.94 80.276 125.854 80.4893C125.769 80.66 125.812 80.852 125.982 81.0653ZM152.839 97.8333C152.028 98.0466 151.367 97.876 150.855 97.3213C150.386 96.7666 150.108 95.9133 150.023 94.7613C149.938 93.6093 150.066 92.244 150.407 90.6653C150.62 90.1533 150.791 89.6626 150.919 89.1933C151.047 88.6813 151.111 88.276 151.111 87.9773C151.196 87.5506 151.367 86.932 151.623 86.1213C151.879 85.268 152.156 84.3933 152.455 83.4973C152.754 82.6013 153.031 81.812 153.287 81.1293C153.586 80.404 153.778 79.956 153.863 79.7853C154.034 79.7853 154.183 79.636 154.311 79.3373C154.439 79.0386 154.503 78.74 154.503 78.4413C154.503 78.1 154.567 77.716 154.695 77.2893C154.866 76.8626 155.036 76.564 155.207 76.3933C155.207 76.18 155.25 75.9453 155.335 75.6893C155.463 75.3906 155.527 75.156 155.527 74.9853C155.527 74.8146 155.57 74.644 155.655 74.4733C155.783 74.3026 155.847 74.132 155.847 73.9613C156.146 73.4066 156.53 72.532 156.999 71.3373C157.511 70.1 158.044 68.7346 158.599 67.2413C159.196 65.748 159.751 64.276 160.263 62.8253C160.775 61.3746 161.18 60.1586 161.479 59.1773C161.82 58.1533 161.991 57.5346 161.991 57.3213C161.991 56.98 162.076 56.724 162.247 56.5533C162.418 56.3826 162.674 56.2973 163.015 56.2973C163.143 56.1693 163.292 56.084 163.463 56.0413C163.676 55.9986 163.868 55.9773 164.039 55.9773C164.039 55.9773 164.124 56.0626 164.295 56.2333C164.466 56.404 164.722 56.66 165.063 57.0013C165.404 57.3 165.596 57.6413 165.639 58.0253C165.724 58.4093 165.767 58.8573 165.767 59.3693C165.767 59.924 165.703 60.4146 165.575 60.8413C165.447 61.268 165.191 61.8866 164.807 62.6973C164.423 63.508 163.826 64.7666 163.015 66.4733C162.674 67.3266 162.311 68.1373 161.927 68.9053C161.543 69.6306 161.351 70.0786 161.351 70.2493C161.351 70.42 161.266 70.676 161.095 71.0173C160.967 71.3586 160.818 71.7853 160.647 72.2973C160.476 72.6386 160.242 73.1506 159.943 73.8333C159.644 74.4733 159.324 75.1773 158.983 75.9453C158.684 76.6706 158.428 77.3106 158.215 77.8653C158.002 78.3773 157.895 78.676 157.895 78.7613C157.895 78.932 157.874 79.1026 157.831 79.2733C157.831 79.444 157.746 79.6146 157.575 79.7853C157.404 79.7853 157.298 79.9133 157.255 80.1693C157.255 80.3826 157.255 80.4893 157.255 80.4893C157.255 80.916 156.914 82.0466 156.231 83.8813C155.548 86.228 154.908 88.3826 154.311 90.3453C153.756 92.308 153.479 93.8866 153.479 95.0813C153.479 96.1053 153.458 96.788 153.415 97.1293C153.372 97.428 153.18 97.6626 152.839 97.8333ZM165.379 95.5293C165.209 95.188 164.995 94.932 164.739 94.7613C164.483 94.548 164.355 94.356 164.355 94.1853C164.355 94.0146 164.334 93.844 164.291 93.6733C164.291 93.46 164.206 93.268 164.035 93.0973C163.822 92.8413 163.843 92.2653 164.099 91.3693C164.355 90.4306 164.782 89.3 165.379 87.9773C165.977 86.612 166.681 85.1826 167.491 83.6893C167.833 83.348 168.174 82.9 168.515 82.3453C168.857 81.7906 169.113 81.428 169.283 81.2573C169.283 81.0866 169.347 80.9373 169.475 80.8093C169.603 80.6386 169.753 80.5533 169.923 80.5533V80.1693C169.923 79.956 170.115 79.5933 170.499 79.0813C170.926 78.5693 171.438 78.0146 172.035 77.4173C172.633 76.7773 173.251 76.18 173.891 75.6253C174.531 75.028 175.065 74.6013 175.491 74.3453C176.387 73.748 177.305 73.3853 178.243 73.2573C179.225 73.1293 180.057 73.3426 180.739 73.8973C180.867 74.0253 181.081 74.2386 181.379 74.5373C181.678 74.836 182.019 75.1773 182.403 75.5613C182.83 75.9026 183.257 76.2653 183.683 76.6493L186.051 78.7613L184.899 81.9613C184.345 83.668 184.195 85.1613 184.451 86.4413C184.75 87.7213 185.177 88.8306 185.731 89.7693C185.945 90.2386 186.371 90.6866 187.011 91.1133C187.694 91.54 188.334 91.796 188.931 91.8813C189.273 91.924 189.593 92.052 189.891 92.2653C190.19 92.4786 190.339 92.82 190.339 93.2893C190.339 93.716 190.254 94.0573 190.083 94.3133C189.913 94.5693 189.614 94.74 189.187 94.8253C187.779 94.996 186.457 94.6546 185.219 93.8013C184.025 92.948 182.915 91.54 181.891 89.5773C181.721 89.3213 181.486 88.852 181.187 88.1693C180.931 87.444 180.782 86.9746 180.739 86.7613C180.569 86.9746 180.249 87.38 179.779 87.9773C179.31 88.532 178.947 88.9373 178.691 89.1933C175.662 92.2653 173.038 94.3346 170.819 95.4013C168.643 96.4253 166.83 96.468 165.379 95.5293ZM167.683 91.9453C167.683 92.244 168.131 92.244 169.027 91.9453C169.966 91.604 170.969 91.0066 172.035 90.1533C173.486 88.916 174.937 87.5506 176.387 86.0573C177.881 84.564 179.075 83.1773 179.971 81.8973L181.379 79.5933C180.953 78.612 180.483 77.9506 179.971 77.6093C179.502 77.2253 179.097 77.0333 178.755 77.0333C178.201 77.0333 177.369 77.5453 176.259 78.5693C175.193 79.5933 174.041 80.9586 172.803 82.6653C171.566 84.372 170.393 86.2493 169.283 88.2973C168.857 89.1506 168.473 89.9826 168.131 90.7933C167.833 91.5613 167.683 91.9453 167.683 91.9453ZM215.909 97.0653C215.482 97.0653 215.034 96.8306 214.565 96.3613C214.138 95.892 213.754 95.316 213.413 94.6333C213.114 93.908 212.965 93.2253 212.965 92.5853C212.965 91.9453 213.114 90.7506 213.413 89.0013C213.754 87.252 214.16 85.4813 214.629 83.6893C214.97 82.58 215.077 81.94 214.949 81.7693C214.821 81.5986 214.245 81.8333 213.221 82.4733C212.624 82.772 212.09 83.092 211.621 83.4333C211.152 83.732 210.746 84.0733 210.405 84.4573C210.192 84.628 209.872 84.9053 209.445 85.2893C209.018 85.6733 208.57 86.036 208.101 86.3773C207.546 86.804 206.842 87.4013 205.989 88.1693C205.136 88.9373 204.282 89.7053 203.429 90.4733C202.618 91.2413 202 91.8386 201.573 92.2653C201.488 92.436 201.36 92.5853 201.189 92.7133C201.018 92.8413 200.826 92.9266 200.613 92.9693C200.4 92.9693 200.165 92.9266 199.909 92.8413C199.44 92.7133 198.992 92.436 198.565 92.0093C198.181 91.5826 197.989 91.092 197.989 90.5373C197.989 90.1106 198.16 89.3853 198.501 88.3613C198.842 87.2946 199.29 86.0146 199.845 84.5213C200.442 83.028 201.125 81.4493 201.893 79.7853C202.021 79.572 202.128 79.316 202.213 79.0173C202.298 78.676 202.362 78.3133 202.405 77.9293C202.49 77.5453 202.533 77.1826 202.533 76.8413C202.533 76.628 202.554 76.4146 202.597 76.2013C202.682 75.9453 202.768 75.7106 202.853 75.4973C202.981 75.2413 203.088 75.0706 203.173 74.9853C203.344 74.644 203.642 74.5586 204.069 74.7293C204.496 74.8573 204.858 75.156 205.157 75.6253C205.797 76.2226 206.117 76.9693 206.117 77.8653C206.16 78.7613 205.946 79.8706 205.477 81.1933C205.306 81.492 205.157 81.7906 205.029 82.0893C204.944 82.3453 204.858 82.58 204.773 82.7933C204.688 82.964 204.624 83.1133 204.581 83.2413C204.538 83.3266 204.517 83.3693 204.517 83.3693C204.688 83.3693 205.072 83.1773 205.669 82.7933C206.266 82.4093 206.97 81.9826 207.781 81.5133C208.421 81.044 208.976 80.6173 209.445 80.2333C209.957 79.8066 210.384 79.4866 210.725 79.2733C211.066 79.0173 211.28 78.8893 211.365 78.8893C211.536 78.8893 211.749 78.8253 212.005 78.6973C212.261 78.5693 212.474 78.42 212.645 78.2493C212.816 78.0786 212.944 77.9933 213.029 77.9933C213.157 77.9506 213.221 77.9293 213.221 77.9293C213.221 77.9293 213.306 77.9293 213.477 77.9293C213.648 77.8866 213.818 77.78 213.989 77.6093C214.33 77.3533 214.778 77.2893 215.333 77.4173C215.888 77.5026 216.4 77.716 216.869 78.0573C217.338 78.3986 217.573 78.7826 217.573 79.2093C217.573 79.38 217.616 79.5293 217.701 79.6573C217.829 79.7426 217.893 79.7853 217.893 79.7853C218.234 79.7853 218.448 80.3186 218.533 81.3853C218.661 82.452 218.554 83.476 218.213 84.4573C218.213 85.0973 218.085 85.8653 217.829 86.7613C217.616 87.6573 217.424 88.5106 217.253 89.3213C216.912 90.388 216.677 91.3266 216.549 92.1373C216.421 92.948 216.4 93.6306 216.485 94.1853C216.57 94.74 216.72 95.188 216.933 95.5293C217.104 95.828 217.104 96.1693 216.933 96.5533C216.762 96.8946 216.421 97.0653 215.909 97.0653ZM233.841 101.033C232.433 100.82 231.473 100.287 230.961 99.4333C230.492 98.6226 230.385 97.364 230.641 95.6573C230.897 94.8466 231.047 94.1213 231.089 93.4813C231.175 92.7986 231.367 92.372 231.665 92.2013C231.665 92.2013 231.687 92.1373 231.729 92.0093C231.815 91.8813 231.793 91.7533 231.665 91.6253C231.665 91.0706 231.857 90.3026 232.241 89.3213C232.327 89.0653 232.433 88.7666 232.561 88.4253C232.732 88.0413 232.817 87.8493 232.817 87.8493C232.604 87.508 232.604 87.2306 232.817 87.0173C233.031 86.804 233.244 86.612 233.457 86.4413C233.713 86.228 233.735 85.9933 233.521 85.7373C233.436 85.5666 233.543 85.1826 233.841 84.5853C234.14 83.9453 234.481 83.284 234.865 82.6013C235.249 81.9186 235.505 81.3853 235.633 81.0013C235.633 80.916 235.74 80.6173 235.953 80.1053C236.167 79.5933 236.423 78.996 236.721 78.3133C237.02 77.6306 237.297 77.012 237.553 76.4573C237.852 75.9026 238.044 75.54 238.129 75.3693C238.556 75.156 238.385 75.0066 237.617 74.9213C236.849 74.836 236.039 74.8146 235.185 74.8573C233.863 74.8146 232.796 74.7506 231.985 74.6653C231.217 74.58 230.577 74.388 230.065 74.0893C229.553 73.492 229.361 73.0653 229.489 72.8093C229.66 72.5106 230.172 72.34 231.025 72.2973C231.58 72.2546 232.007 72.2333 232.305 72.2333C232.647 72.2333 233.073 72.212 233.585 72.1693C234.14 72.084 234.993 71.9773 236.145 71.8493L239.409 71.5933L239.601 70.5053C239.943 69.9506 240.22 69.46 240.433 69.0333C240.689 68.564 240.903 68.0946 241.073 67.6253C241.244 67.156 241.372 66.6653 241.457 66.1533C241.457 66.1533 241.649 65.812 242.033 65.1293C242.417 64.404 242.652 63.6573 242.737 62.8893C243.249 62.036 243.697 61.268 244.081 60.5853C244.465 59.86 244.7 59.412 244.785 59.2413C245.255 58.8573 245.575 58.6653 245.745 58.6653C245.959 58.6653 246.385 58.8786 247.025 59.3053C247.409 59.5186 247.751 59.7746 248.049 60.0733C248.348 60.372 248.54 60.692 248.625 61.0333C248.711 61.332 248.583 61.6306 248.241 61.9293C248.156 62.1 248.028 62.42 247.857 62.8893C247.687 63.316 247.559 63.6786 247.473 63.9773C247.217 64.276 246.897 64.7666 246.513 65.4493C246.172 66.0893 245.937 66.7506 245.809 67.4333C245.468 68.1586 245.148 68.82 244.849 69.4173C244.551 69.972 244.316 70.2493 244.145 70.2493C244.231 70.676 244.487 70.8893 244.913 70.8893C245.34 70.8466 246.044 70.804 247.025 70.7613C247.836 70.676 248.391 70.5906 248.689 70.5053C249.031 70.3773 249.415 70.42 249.841 70.6333C250.055 70.932 250.225 71.2733 250.353 71.6573C250.481 72.0413 250.503 72.404 250.417 72.7453C250.375 73.044 250.204 73.2573 249.905 73.3853C249.692 73.3853 249.244 73.5133 248.561 73.7693C247.921 73.9826 247.111 74.1106 246.129 74.1533L242.737 74.4733L241.649 76.6493C241.351 77.204 241.095 77.716 240.881 78.1853C240.668 78.612 240.519 78.868 240.433 78.9533C240.433 79.2093 240.284 79.5933 239.985 80.1053C239.729 80.6173 239.452 81.172 239.153 81.7693C238.897 82.4946 238.599 83.156 238.257 83.7533C237.959 84.3506 237.809 84.6493 237.809 84.6493C237.639 84.6493 237.553 84.7773 237.553 85.0333C237.767 85.5453 237.703 85.9293 237.361 86.1853C237.148 86.3133 236.956 86.5053 236.785 86.7613C236.657 86.9746 236.593 87.0813 236.593 87.0813C236.764 87.252 236.785 87.4653 236.657 87.7213C236.572 87.9773 236.444 88.2546 236.273 88.5533C236.273 88.8946 236.167 89.3853 235.953 90.0253C235.783 90.6653 235.591 91.2626 235.377 91.8173C235.42 92.5853 235.463 93.076 235.505 93.2893C235.548 93.5026 235.655 93.588 235.825 93.5453C236.039 93.588 236.231 93.588 236.401 93.5453C236.572 93.5026 236.743 93.4813 236.913 93.4813C237.511 93.2253 237.191 94.7186 235.953 97.9613C235.271 99.028 234.801 99.796 234.545 100.265C234.289 100.777 234.055 101.033 233.841 101.033ZM257.909 95.9773C257.568 96.0626 257.12 96.1053 256.565 96.1053C256.01 96.0626 255.52 95.9986 255.093 95.9133C254.709 95.7853 254.517 95.6573 254.517 95.5293C254.517 95.316 254.41 95.2093 254.197 95.2093C254.197 95.2093 254.09 95.124 253.877 94.9533C253.706 94.7826 253.429 94.612 253.045 94.4413C252.661 93.844 252.469 93.204 252.469 92.5213C252.469 91.796 252.661 90.6653 253.045 89.1293C253.173 88.0626 253.578 86.8253 254.261 85.4173C254.986 83.9666 255.861 82.4946 256.885 81.0013C257.909 79.508 258.976 78.164 260.085 76.9693C261.237 75.7746 262.282 74.9 263.221 74.3453C263.818 73.748 264.544 73.428 265.397 73.3853C266.25 73.3426 267.061 73.5346 267.829 73.9613C268.256 74.1746 268.682 74.516 269.109 74.9853C269.536 75.4546 269.941 75.9666 270.325 76.5213C270.709 77.076 271.029 77.6306 271.285 78.1853C271.413 78.6546 271.477 79.0813 271.477 79.4653C271.52 79.8066 271.52 80.2333 271.477 80.7453C271.477 81.2573 271.413 82.0253 271.285 83.0493C271.072 83.8173 270.88 84.756 270.709 85.8653C270.581 86.9746 270.517 87.9346 270.517 88.7453C270.432 89.556 270.517 90.132 270.773 90.4733C271.072 90.8146 271.498 90.836 272.053 90.5373C272.565 90.2813 273.056 90.1746 273.525 90.2173C273.994 90.2173 274.357 90.3453 274.613 90.6013C274.912 90.8573 275.061 91.2413 275.061 91.7533C275.061 92.2653 274.805 92.7986 274.293 93.3533C273.824 93.8653 273.226 94.3133 272.501 94.6973C271.818 95.0386 271.157 95.2093 270.517 95.2093C270.048 95.2093 269.6 94.932 269.173 94.3773C268.746 93.78 268.362 93.076 268.021 92.2653C267.722 91.412 267.445 90.6013 267.189 89.8333L266.805 88.3613L264.053 90.9853C263.498 91.5826 262.944 92.1373 262.389 92.6493C261.877 93.1186 261.557 93.46 261.429 93.6733C261.216 94.0573 260.81 94.4413 260.213 94.8253C259.658 95.2093 258.89 95.5933 257.909 95.9773ZM258.101 92.2013C258.826 91.7746 259.658 91.156 260.597 90.3453C261.536 89.492 262.453 88.5746 263.349 87.5933C264.245 86.5693 264.992 85.6306 265.589 84.7773C266.314 83.796 266.869 82.8786 267.253 82.0253C267.637 81.172 267.914 80.3613 268.085 79.5933C267.914 79.124 267.637 78.6333 267.253 78.1213C266.869 77.5666 266.528 77.268 266.229 77.2253C265.29 77.2253 264.288 77.8226 263.221 79.0173C262.197 80.1693 261.194 81.428 260.213 82.7933C260.042 83.0066 259.808 83.348 259.509 83.8173C259.21 84.2866 258.912 84.7346 258.613 85.1613C258.357 85.5453 258.186 85.8013 258.101 85.9293C257.973 86.1 257.717 86.5906 257.333 87.4013C256.992 88.1693 256.65 88.9586 256.309 89.7693C255.968 90.5373 255.797 91.0493 255.797 91.3053C255.797 91.5613 255.818 91.8386 255.861 92.1373C255.946 92.436 256.16 92.628 256.501 92.7133C256.842 92.7986 257.376 92.628 258.101 92.2013ZM285.26 98.0893C284.45 97.748 283.682 97.3 282.956 96.7453C282.231 96.148 281.762 95.6573 281.548 95.2733C281.548 94.8893 281.612 94.6333 281.74 94.5053C281.868 94.3346 282.231 94.2706 282.828 94.3133C283.468 94.3133 284.492 94.3986 285.9 94.5693C286.412 94.5693 287.052 94.5266 287.82 94.4413C288.588 94.356 289.292 94.228 289.932 94.0573C290.615 93.8866 290.999 93.6733 291.084 93.4173C291.298 93.4173 291.34 93.3533 291.212 93.2253C291.084 93.0546 290.935 92.884 290.764 92.7133C290.594 92.7133 290.402 92.6493 290.188 92.5213C289.975 92.3506 289.783 92.2653 289.612 92.2653C289.612 92.052 289.399 91.8173 288.972 91.5613C288.588 91.2626 288.183 91.028 287.756 90.8573C286.818 90.0893 286.007 89.4066 285.324 88.8093C284.642 88.1693 284.386 87.7426 284.556 87.5293C284.556 87.3586 284.556 87.2733 284.556 87.2733C284.556 87.2306 284.556 87.2093 284.556 87.2093C284.258 87.2093 283.916 86.7826 283.532 85.9293C283.191 85.076 283.02 84.308 283.02 83.6253C283.02 83.1133 283.17 82.4733 283.468 81.7053C283.767 80.8946 284.172 80.0626 284.684 79.2093C285.196 78.356 285.73 77.652 286.284 77.0973C287.052 76.372 288.012 75.604 289.164 74.7933C290.316 73.94 291.447 73.1933 292.556 72.5533C293.708 71.8706 294.668 71.4226 295.436 71.2093C296.204 70.9106 296.908 70.7613 297.548 70.7613C298.231 70.7613 298.828 70.9106 299.34 71.2093C299.767 71.4226 300.151 71.7426 300.492 72.1693C300.876 72.5533 301.196 72.9586 301.452 73.3853C301.751 73.7693 301.943 74.1106 302.028 74.4093C302.028 74.9213 301.986 75.4973 301.9 76.1373C301.815 76.7346 301.687 77.268 301.516 77.7373C301.388 78.2066 301.175 78.4413 300.876 78.4413C300.876 78.4413 300.812 78.4626 300.684 78.5053C300.599 78.5053 300.556 78.612 300.556 78.8253C300.556 79.252 300.236 79.7426 299.596 80.2973C298.786 80.852 298.082 81.1933 297.484 81.3213C296.887 81.4066 296.524 81.172 296.396 80.6173C296.268 80.4466 296.183 80.2973 296.14 80.1693C296.098 80.0413 295.991 79.9773 295.82 79.9773C295.82 79.9773 295.756 79.9133 295.628 79.7853C295.5 79.6573 295.436 79.444 295.436 79.1453C295.436 78.9746 295.5 78.8253 295.628 78.6973C295.756 78.5266 295.82 78.4413 295.82 78.4413C296.034 78.4413 296.311 78.2066 296.652 77.7373C296.994 77.2253 297.292 76.692 297.548 76.1373C297.847 75.54 297.996 75.1346 297.996 74.9213C297.996 74.6653 297.954 74.516 297.868 74.4733C297.826 74.4306 297.634 74.4093 297.292 74.4093C296.695 74.6653 295.97 75.0066 295.116 75.4333C294.263 75.86 293.452 76.2866 292.684 76.7133C291.959 77.0973 291.426 77.46 291.084 77.8013C290.914 78.1 290.807 78.292 290.764 78.3773C290.722 78.42 290.615 78.4413 290.444 78.4413C290.444 78.2706 290.295 78.356 289.996 78.6973C289.74 78.996 289.399 79.4226 288.972 79.9773C288.588 80.532 288.204 81.0866 287.82 81.6413C287.479 82.1533 287.223 82.5373 287.052 82.7933C286.967 82.8786 286.86 83.1346 286.732 83.5613C286.647 83.9453 286.604 84.308 286.604 84.6493C286.434 85.1613 286.455 85.524 286.668 85.7373C286.882 85.908 287.351 86.292 288.076 86.8893C289.57 87.9986 290.743 88.916 291.596 89.6413C292.45 90.3666 293.09 90.964 293.516 91.4333C293.943 91.9026 294.199 92.3293 294.284 92.7133C295.052 93.9933 295.287 94.9746 294.988 95.6573C294.69 96.34 293.964 96.9373 292.812 97.4493C292.386 97.6626 291.682 97.8333 290.7 97.9613C289.719 98.0893 288.716 98.1533 287.692 98.1533C286.668 98.196 285.858 98.1746 285.26 98.0893Z" fill="black"/>
</g>
<g id="plant 1" clip-path="url(#clip0_144_20)">
<g id="Group">
<path id="Vector" d="M75.8577 100.578C72.5468 100.642 69.4763 101.293 66.8896 102.349C65.8794 100.47 64.2681 98.7635 62.1917 97.313C64.1906 92.6846 68.5651 86.411 78.057 82.6668C80.8976 83.9046 86.504 85.0989 90.2479 77.7976C90.6247 77.0723 90.2586 76.1856 89.481 75.8601C86.5094 74.6095 79.5054 72.6413 76.7048 80.2937C66.8254 84.289 62.0714 90.8241 59.8054 95.8624C57.4457 94.6246 54.6853 93.6687 51.6576 93.0716C50.8265 91.7005 50.2386 90.1475 49.9473 88.4663C48.9051 82.4695 51.8847 76.9877 57.9161 73.7945C65.9222 69.566 69.7035 65.2657 71.4431 61.8085C71.4458 61.8239 82.175 42.4341 66.128 33.4081C50.9548 24.8844 43.4537 32.1677 37.866 19.5795C37.556 18.8773 36.4844 18.949 36.3348 19.6999C35.0681 26.053 32.8929 42.6417 42.9433 49.0717C52.6463 55.2786 69.5351 49.2331 71.4137 60.0607C69.177 57.3212 66.9964 57.1597 66.9964 57.1597C67.0098 57.2212 67.3412 62.5492 55.2117 69.097C47.1682 73.4383 42.9914 81.1292 44.4184 89.3556C44.6001 90.4038 44.8673 91.4212 45.2094 92.3976C44.6883 92.3873 44.1592 92.3873 43.6301 92.3976C37.5694 92.5129 32.0698 93.9993 27.877 96.3519C23.5693 92.2771 22.0141 84.3505 21.525 80.9241C23.3769 78.551 25.9289 73.4409 19.1093 68.3718C18.4385 67.8669 17.4605 68.0335 16.9688 68.6998C15.1062 71.219 11.7204 77.3388 18.7779 81.5084C19.307 85.1732 20.8997 92.9024 25.2903 97.6205C25.0578 98.0075 25.0578 98.0049 24.8226 98.397C23.1738 98.1561 21.4502 98.0305 19.6678 98.0664C8.66337 98.2817 -0.141777 103.943 -0.000146148 110.711C0.141484 117.482 93.2088 116.487 93.0859 110.711C92.9576 104.935 85.2481 100.399 75.8577 100.578Z" fill="black"/>
<g id="sun">
<path id="Vector_2" d="M97.3536 35.4045V39.6817C97.3536 41.3757 98.7753 42.7468 100.542 42.7468C102.308 42.7468 103.73 41.3757 103.73 39.6817V35.4045C102.669 35.6326 101.64 35.753 100.542 35.753C99.4434 35.753 98.337 35.6326 97.3536 35.4045Z" fill="#EEB039"/>
<path id="Vector_3" d="M103.732 8.9184V4.6386C103.732 2.94718 102.311 1.57611 100.544 1.57611C98.778 1.57611 97.3563 2.94718 97.3563 4.6386V8.9184C98.337 8.69032 99.446 8.56731 100.544 8.56731C101.643 8.56731 102.671 8.69032 103.732 8.9184Z" fill="#EEB039"/>
<path id="Vector_4" d="M112.556 29.3538C111.41 31.1067 109.86 32.5931 108.035 33.6874L111.196 36.7166C111.816 37.3163 112.639 37.6161 113.457 37.6161C114.274 37.6161 115.092 37.3189 115.72 36.7166C116.968 35.5198 116.968 33.5798 115.72 32.383L112.556 29.3538Z" fill="#EEB039"/>
<path id="Vector_5" d="M88.5111 14.9665C89.6575 13.2136 91.2074 11.7272 93.0299 10.6329L89.8713 7.60116C88.6206 6.40435 86.5951 6.40435 85.3498 7.60116C84.0991 8.80053 84.0991 10.7431 85.3498 11.9373L88.5111 14.9665Z" fill="#EEB039"/>
<path id="Vector_6" d="M88.5111 29.3513L85.3498 32.383C84.0991 33.5824 84.0991 35.5224 85.3498 36.7166C85.9724 37.3163 86.7901 37.6161 87.6159 37.6161C88.4336 37.6161 89.2459 37.3189 89.8766 36.7166L93.0352 33.6874C91.2074 32.5906 89.6575 31.1042 88.5111 29.3513Z" fill="#EEB039"/>
<path id="Vector_7" d="M112.556 14.9665L115.715 11.9373C116.963 10.7405 116.963 8.79796 115.715 7.60116C114.464 6.40435 112.439 6.40435 111.196 7.60116L108.035 10.6329C109.86 11.7298 111.41 13.2162 112.556 14.9665Z" fill="#EEB039"/>
<path id="Vector_8" d="M118.801 19.0951H114.344C114.582 20.1125 114.707 21.0992 114.707 22.1525C114.707 23.2058 114.582 24.2719 114.344 25.2098H118.801C120.568 25.2098 122 23.8464 122 22.1525C122 20.4585 120.568 19.0951 118.801 19.0951Z" fill="#EEB039"/>
<path id="Vector_9" d="M86.3599 22.1525C86.3599 21.0992 86.4855 20.1125 86.7233 19.0951H82.2633C80.4969 19.0951 79.0673 20.4585 79.0673 22.1525C79.0673 23.8464 80.4969 25.2098 82.2633 25.2098H86.7233C86.4855 24.2719 86.3599 23.2058 86.3599 22.1525Z" fill="#EEB039"/>
<path id="Vector_10" d="M100.534 33.1236C106.847 33.1236 111.966 28.2151 111.966 22.1602C111.966 16.1052 106.847 11.1967 100.534 11.1967C94.22 11.1967 89.1017 16.1052 89.1017 22.1602C89.1017 28.2151 94.22 33.1236 100.534 33.1236Z" fill="#EEB039"/>
</g>
</g>
</g>
</g>
<defs>
<clipPath id="clip0_144_20">
<rect width="122" height="117" fill="white"/>
</clipPath>
</defs>
</svg>
