<svg width="122" height="120" viewBox="0 0 122 120" fill="none" xmlns="http://www.w3.org/2000/svg">
<path d="M75.8595 104.352C72.5486 104.42 69.4781 105.106 66.8914 106.219C65.8813 104.239 64.2699 102.44 62.1935 100.911C64.1924 96.0321 68.5669 89.4195 78.0588 85.473C80.8994 86.7777 86.5059 88.0364 90.2497 80.3406C90.6265 79.5761 90.2604 78.6415 89.4828 78.2984C86.5112 76.9802 79.5072 74.9057 76.7067 82.9716C66.8273 87.1828 62.0733 94.071 59.8072 99.3817C57.4476 98.077 54.6871 97.0694 51.6594 96.44C50.8283 94.9949 50.2404 93.3579 49.9492 91.5859C48.907 85.265 51.8866 79.487 57.9179 76.1212C65.924 71.6642 69.7053 67.1315 71.4449 63.4875C71.4476 63.5037 82.1768 43.066 66.1298 33.5522C50.9566 24.5679 43.4555 32.2448 37.8678 18.9763C37.5578 18.2361 36.4862 18.3118 36.3366 19.1032C35.0699 25.7996 32.8947 43.2848 42.9451 50.0623C52.6482 56.6047 69.5369 50.2324 71.4155 61.6452C69.1789 58.7576 66.9983 58.5874 66.9983 58.5874C67.0116 58.6522 67.343 64.2681 55.2135 71.1698C47.17 75.7458 42.9932 83.8522 44.4202 92.5232C44.6019 93.628 44.8692 94.7004 45.2112 95.7296C44.6901 95.7188 44.161 95.7188 43.6319 95.7296C37.5712 95.8512 32.0716 97.4179 27.8789 99.8976C23.5711 95.6026 22.0159 87.2477 21.5269 83.6361C23.3787 81.1347 25.9308 75.7485 19.1111 70.4054C18.4404 69.8732 17.4623 70.0488 16.9706 70.7511C15.1081 73.4065 11.7223 79.8571 18.7798 84.252C19.3089 88.1148 20.9015 96.2617 25.2921 101.235C25.0596 101.643 25.0596 101.64 24.8244 102.053C23.1756 101.799 21.452 101.667 19.6696 101.705C8.6652 101.932 -0.139946 107.899 0.00168491 115.033C0.143315 122.169 93.2106 121.121 93.0877 115.033C92.9594 108.944 85.2499 104.163 75.8595 104.352Z" fill="#EA39EE"/>
<path d="M97.3555 35.6565V40.1649C97.3555 41.9504 98.7771 43.3956 100.543 43.3956C102.31 43.3956 103.732 41.9504 103.732 40.1649V35.6565C102.671 35.8969 101.642 36.0239 100.543 36.0239C99.4452 36.0239 98.3389 35.8969 97.3555 35.6565Z" fill="#EA39EE"/>
<path d="M103.734 7.73908V3.22799C103.734 1.44517 102.313 0 100.546 0C98.7798 0 97.3582 1.44517 97.3582 3.22799V7.73908C98.3389 7.49867 99.4479 7.36901 100.546 7.36901C101.644 7.36901 102.673 7.49867 103.734 7.73908Z" fill="#EA39EE"/>
<path d="M112.558 29.2789C111.412 31.1265 109.862 32.6932 108.036 33.8467L111.198 37.0396C111.818 37.6716 112.641 37.9877 113.459 37.9877C114.276 37.9877 115.094 37.6744 115.722 37.0396C116.97 35.7781 116.97 33.7332 115.722 32.4717L112.558 29.2789Z" fill="#EA39EE"/>
<path d="M88.5128 14.114C89.6593 12.2664 91.2092 10.6997 93.0317 9.54623L89.873 6.35065C88.6224 5.08917 86.5968 5.08917 85.3515 6.35065C84.1009 7.61484 84.1009 9.66239 85.3515 10.9212L88.5128 14.114Z" fill="#EA39EE"/>
<path d="M88.5128 29.2762L85.3515 32.4718C84.1009 33.7359 84.1009 35.7808 85.3515 37.0396C85.9742 37.6717 86.7919 37.9877 87.6176 37.9877C88.4353 37.9877 89.2477 37.6744 89.8784 37.0396L93.037 33.8467C91.2092 32.6906 89.6593 31.1238 88.5128 29.2762Z" fill="#EA39EE"/>
<path d="M112.558 14.114L115.717 10.9212C116.965 9.65968 116.965 7.61214 115.717 6.35065C114.466 5.08917 112.44 5.08917 111.198 6.35065L108.036 9.54623C109.862 10.7024 111.412 12.2691 112.558 14.114Z" fill="#EA39EE"/>
<path d="M118.803 18.4657H114.346C114.584 19.5381 114.709 20.5781 114.709 21.6883C114.709 22.7985 114.584 23.9222 114.346 24.9109H118.803C120.569 24.9109 122.002 23.4738 122.002 21.6883C122.002 19.9028 120.569 18.4657 118.803 18.4657Z" fill="#EA39EE"/>
<path d="M86.3617 21.6883C86.3617 20.5781 86.4873 19.5381 86.7252 18.4657H82.2651C80.4988 18.4657 79.0691 19.9028 79.0691 21.6883C79.0691 23.4738 80.4988 24.9109 82.2651 24.9109H86.7252C86.4873 23.9222 86.3617 22.7985 86.3617 21.6883Z" fill="#EA39EE"/>
<path d="M100.536 33.2524C106.849 33.2524 111.967 28.0786 111.967 21.6965C111.967 15.3143 106.849 10.1405 100.536 10.1405C94.2218 10.1405 89.1035 15.3143 89.1035 21.6965C89.1035 28.0786 94.2218 33.2524 100.536 33.2524Z" fill="#EA39EE"/>
</svg>
