<svg width="326" height="126" viewBox="0 0 326 126" fill="none" xmlns="http://www.w3.org/2000/svg">
<g id="Group 37">
<path id="Porta" d="M164.913 64.88C164.433 64.88 164.033 64.62 163.713 64.1C163.473 63.86 163.313 63.52 163.233 63.08C163.193 62.68 163.333 61.94 163.653 60.86C163.973 59.74 164.513 58.04 165.273 55.76C165.673 54.24 165.993 53.14 166.233 52.46C166.473 51.74 166.593 51.22 166.593 50.9C166.593 50.46 166.633 50.1 166.713 49.82C166.833 49.5 166.893 49.2 166.893 48.92C167.133 48.92 167.373 48.7 167.613 48.26C167.853 47.82 168.053 47.22 168.213 46.46C168.373 45.78 168.513 45.24 168.633 44.84C168.793 44.4 168.873 44.1 168.873 43.94C169.073 43.62 169.273 43.12 169.473 42.44C169.713 41.76 170.073 40.94 170.553 39.98C170.873 38.78 171.233 37.54 171.633 36.26C172.033 34.94 172.433 33.72 172.833 32.6C173.273 31.44 173.633 30.54 173.913 29.9C174.353 28.66 174.693 27.8 174.933 27.32C175.173 26.8 175.173 26.46 174.933 26.3C174.653 26.1 174.593 25.76 174.753 25.28C174.913 24.8 175.353 24.26 176.073 23.66C176.513 23.14 176.893 22.78 177.213 22.58C177.533 22.34 177.933 22.22 178.413 22.22C178.933 22.22 179.673 22.26 180.633 22.34C181.353 22.38 182.113 22.4 182.913 22.4C183.753 22.4 184.273 22.4 184.473 22.4C184.833 22.56 185.273 22.74 185.793 22.94C186.313 23.1 186.773 23.26 187.173 23.42C187.613 23.58 187.833 23.72 187.833 23.84C187.833 24.08 187.913 24.24 188.073 24.32C188.273 24.36 188.473 24.4 188.673 24.44C188.953 24.44 189.333 24.66 189.813 25.1C190.293 25.5 190.793 26.02 191.313 26.66C191.833 27.26 192.233 27.9 192.513 28.58C192.833 29.26 193.073 29.9 193.233 30.5C193.433 31.1 193.433 31.96 193.233 33.08C193.193 33.68 193.093 34.28 192.933 34.88C192.813 35.48 192.673 35.88 192.513 36.08C192.273 36.24 192.053 36.44 191.853 36.68C191.653 36.92 191.553 37.14 191.553 37.34C191.553 37.5 191.413 37.82 191.133 38.3C190.853 38.74 190.493 39.26 190.053 39.86C189.613 40.46 189.133 41.06 188.613 41.66C188.093 42.26 187.593 42.78 187.113 43.22C186.593 43.86 185.973 44.46 185.253 45.02C184.573 45.58 183.953 46.04 183.393 46.4C182.353 46.88 181.193 47.36 179.913 47.84C178.673 48.32 177.473 48.72 176.313 49.04C175.193 49.36 174.253 49.5 173.493 49.46C172.333 49.62 171.573 49.78 171.213 49.94C170.893 50.06 170.653 50.4 170.493 50.96C170.293 51.48 170.093 52.02 169.893 52.58C169.733 53.1 169.653 53.46 169.653 53.66C169.573 53.82 169.373 54.32 169.053 55.16C168.773 55.96 168.453 56.9 168.093 57.98C167.773 59.06 167.453 60.12 167.133 61.16C166.813 62.2 166.573 63.06 166.413 63.74C166.253 64.3 166.053 64.62 165.813 64.7C165.573 64.82 165.273 64.88 164.913 64.88ZM172.353 46.28C172.513 46.44 173.133 46.46 174.213 46.34C175.293 46.22 176.453 45.92 177.693 45.44C178.493 45.16 179.293 44.82 180.093 44.42C180.933 44.02 181.733 43.58 182.493 43.1C182.893 42.82 183.493 42.32 184.293 41.6C185.093 40.88 185.893 40.02 186.693 39.02C186.813 38.82 187.013 38.44 187.293 37.88C187.613 37.28 187.893 36.72 188.133 36.2C188.493 35.64 188.853 34.82 189.213 33.74C189.573 32.62 189.653 31.7 189.453 30.98C189.253 29.94 188.733 28.98 187.893 28.1C187.053 27.18 186.053 26.56 184.893 26.24C184.013 26.08 183.273 26 182.673 26C182.113 26 181.493 26.06 180.813 26.18C180.173 26.38 179.693 26.66 179.373 27.02C179.093 27.38 178.713 28.14 178.233 29.3C177.953 29.86 177.553 30.72 177.033 31.88C176.513 33 176.073 34.06 175.713 35.06C174.993 37.7 174.273 39.88 173.553 41.6C172.873 43.28 172.453 44.34 172.293 44.78C172.333 45.22 172.313 45.54 172.233 45.74C172.153 45.9 172.193 46.08 172.353 46.28ZM197.469 61.1C196.949 61.1 196.529 61 196.209 60.8C195.929 60.6 195.569 60.32 195.129 59.96C194.369 59.16 193.829 58.4 193.509 57.68C193.189 56.92 193.089 56.2 193.209 55.52C193.329 55.2 193.369 54.9 193.329 54.62C193.329 54.3 193.329 54.14 193.329 54.14C193.129 53.94 193.069 53.82 193.149 53.78C193.229 53.7 193.309 53.58 193.389 53.42C193.629 53.42 193.709 53.2 193.629 52.76C193.549 52.44 193.709 51.74 194.109 50.66C194.509 49.58 195.009 48.56 195.609 47.6C195.849 47.2 196.209 46.68 196.689 46.04C197.169 45.36 197.689 44.7 198.249 44.06C198.849 43.38 199.389 42.84 199.869 42.44C200.869 41.6 201.749 40.98 202.509 40.58C203.269 40.18 204.089 39.88 204.969 39.68C205.849 39.48 206.449 39.38 206.769 39.38C207.129 39.38 207.609 39.7 208.209 40.34C209.129 40.74 209.789 41.22 210.189 41.78C210.629 42.34 210.909 43.16 211.029 44.24C211.149 45.44 211.049 46.82 210.729 48.38C210.449 49.9 209.509 51.8 207.909 54.08C206.909 55.52 205.989 56.6 205.149 57.32C204.309 58 203.309 58.68 202.149 59.36C201.309 59.92 200.549 60.34 199.869 60.62C199.189 60.86 198.389 61.02 197.469 61.1ZM203.229 54.74C204.189 53.66 204.949 52.64 205.509 51.68C206.109 50.72 206.669 49.5 207.189 48.02C207.349 47.58 207.449 47.04 207.489 46.4C207.529 45.72 207.509 45.1 207.429 44.54C207.389 43.94 207.249 43.6 207.009 43.52C206.529 43.24 205.949 43.16 205.269 43.28C204.589 43.36 203.849 43.74 203.049 44.42C201.809 45.46 200.729 46.76 199.809 48.32C198.889 49.84 197.989 51.58 197.109 53.54C196.509 54.98 196.369 56.14 196.689 57.02C197.049 57.86 197.789 58.16 198.909 57.92C200.069 57.64 201.509 56.58 203.229 54.74ZM218.621 59.9C218.261 59.62 218.001 59.34 217.841 59.06C217.721 58.78 217.721 58.24 217.841 57.44C217.961 56.32 218.121 55.34 218.321 54.5C218.521 53.62 218.761 52.62 219.041 51.5C219.121 51.02 219.341 50.2 219.701 49.04C220.101 47.88 220.581 46.62 221.141 45.26C221.701 43.9 222.261 42.62 222.821 41.42C223.381 40.18 223.861 39.26 224.261 38.66C224.581 38.42 224.961 38.32 225.401 38.36C225.881 38.4 226.281 38.58 226.601 38.9C227.041 39.26 227.101 39.9 226.781 40.82C226.501 41.7 225.901 43.1 224.981 45.02C224.501 46.1 224.141 46.92 223.901 47.48C223.661 48 223.561 48.32 223.601 48.44C223.641 48.52 223.821 48.46 224.141 48.26C224.381 47.82 224.821 47.32 225.461 46.76C226.101 46.16 226.781 45.58 227.501 45.02C228.221 44.46 228.901 43.96 229.541 43.52C230.181 43.08 230.621 42.8 230.861 42.68C231.181 42.48 231.541 42.32 231.941 42.2C232.381 42.04 232.681 41.92 232.841 41.84C233.761 41.4 234.701 41.24 235.661 41.36C236.621 41.48 237.221 41.84 237.461 42.44C237.501 42.76 237.621 43 237.821 43.16C238.061 43.32 238.181 43.4 238.181 43.4C238.341 43.4 238.421 43.46 238.421 43.58C238.461 43.7 238.481 43.76 238.481 43.76C238.481 44.04 238.261 44.22 237.821 44.3C237.421 44.34 236.901 44.38 236.261 44.42C235.741 44.46 235.281 44.56 234.881 44.72C234.481 44.88 234.001 45.08 233.441 45.32C231.921 46.2 230.461 47.06 229.061 47.9C227.701 48.74 226.381 49.86 225.101 51.26C224.821 51.58 224.541 51.96 224.261 52.4C223.981 52.84 223.681 53.32 223.361 53.84C223.161 54.04 222.961 54.48 222.761 55.16C222.561 55.84 222.381 56.5 222.221 57.14C222.101 57.74 222.041 58.1 222.041 58.22C222.041 58.22 221.981 58.42 221.861 58.82C221.741 59.18 221.541 59.54 221.261 59.9C220.781 60.54 220.381 60.86 220.061 60.86C219.741 60.86 219.261 60.54 218.621 59.9ZM249.602 61.88C249.042 61.72 248.582 61.54 248.222 61.34C247.862 61.1 247.382 60.72 246.782 60.2C246.302 59.56 245.922 58.96 245.642 58.4C245.402 57.84 245.242 57.2 245.162 56.48C245.082 55.72 245.042 54.76 245.042 53.6C245.042 53.12 245.122 52.4 245.282 51.44C245.482 50.48 245.702 49.48 245.942 48.44C246.222 47.36 246.462 46.4 246.662 45.56C246.902 44.72 247.042 44.18 247.082 43.94C247.202 43.42 247.002 43.12 246.482 43.04C245.962 42.96 245.382 42.94 244.742 42.98C244.142 42.98 243.742 42.92 243.542 42.8C243.382 42.76 243.302 42.7 243.302 42.62C243.302 42.5 243.302 42.44 243.302 42.44C243.302 42.28 243.282 42.18 243.242 42.14C243.242 42.06 243.182 41.92 243.062 41.72C242.982 41.56 243.022 41.34 243.182 41.06C243.382 40.74 243.702 40.54 244.142 40.46C244.502 40.38 244.982 40.32 245.582 40.28C246.222 40.2 246.862 40.06 247.502 39.86C248.142 39.62 248.662 39.26 249.062 38.78C249.422 37.9 249.842 36.92 250.322 35.84C250.802 34.76 251.262 33.8 251.702 32.96C252.182 32.08 252.502 31.54 252.662 31.34C253.342 30.98 253.842 30.84 254.162 30.92C254.482 30.96 254.842 31.3 255.242 31.94C255.442 32.22 255.582 32.44 255.662 32.6C255.782 32.76 255.802 33 255.722 33.32C255.642 33.64 255.422 34.14 255.062 34.82C254.742 35.5 254.242 36.48 253.562 37.76C253.362 38.16 253.182 38.52 253.022 38.84C252.862 39.12 252.782 39.26 252.782 39.26C252.942 39.3 253.182 39.32 253.502 39.32C253.822 39.32 254.222 39.3 254.702 39.26C255.142 39.18 255.702 39.12 256.382 39.08C257.062 39 257.602 39 258.002 39.08C258.922 39.08 259.602 39.26 260.042 39.62C260.482 39.94 260.722 40.5 260.762 41.3C260.842 41.74 260.742 42 260.462 42.08C260.222 42.16 259.562 42.2 258.482 42.2C258.122 42.2 257.562 42.22 256.802 42.26C256.042 42.3 255.242 42.34 254.402 42.38C253.602 42.42 252.902 42.48 252.302 42.56C251.742 42.6 251.462 42.66 251.462 42.74C251.342 42.82 251.142 43.2 250.862 43.88C250.622 44.56 250.362 45.34 250.082 46.22C249.842 47.06 249.622 47.82 249.422 48.5C249.142 49.86 248.922 51.22 248.762 52.58C248.642 53.94 248.622 55.12 248.702 56.12C248.782 57.12 249.002 57.82 249.362 58.22C249.722 58.58 250.422 58.66 251.462 58.46C252.502 58.22 253.342 57.84 253.982 57.32C254.702 56.72 255.282 56.42 255.722 56.42C256.202 56.42 256.462 56.64 256.502 57.08C256.582 57.48 256.362 58.06 255.842 58.82C255.362 59.54 254.762 60.18 254.042 60.74C253.322 61.26 252.562 61.64 251.762 61.88C251.002 62.08 250.282 62.08 249.602 61.88ZM270.065 60.26C269.745 60.34 269.325 60.38 268.805 60.38C268.285 60.34 267.825 60.28 267.425 60.2C267.065 60.08 266.885 59.96 266.885 59.84C266.885 59.64 266.785 59.54 266.585 59.54C266.585 59.54 266.485 59.46 266.285 59.3C266.125 59.14 265.865 58.98 265.505 58.82C265.145 58.26 264.965 57.66 264.965 57.02C264.965 56.34 265.145 55.28 265.505 53.84C265.625 52.84 266.005 51.68 266.645 50.36C267.325 49 268.145 47.62 269.105 46.22C270.065 44.82 271.065 43.56 272.105 42.44C273.185 41.32 274.165 40.5 275.045 39.98C275.605 39.42 276.285 39.12 277.085 39.08C277.885 39.04 278.645 39.22 279.365 39.62C279.765 39.82 280.165 40.14 280.565 40.58C280.965 41.02 281.345 41.5 281.705 42.02C282.065 42.54 282.365 43.06 282.605 43.58C282.725 44.02 282.785 44.42 282.785 44.78C282.825 45.1 282.825 45.5 282.785 45.98C282.785 46.46 282.725 47.18 282.605 48.14C282.405 48.86 282.225 49.74 282.065 50.78C281.945 51.82 281.885 52.72 281.885 53.48C281.805 54.24 281.885 54.78 282.125 55.1C282.405 55.42 282.805 55.44 283.325 55.16C283.805 54.92 284.265 54.82 284.705 54.86C285.145 54.86 285.485 54.98 285.725 55.22C286.005 55.46 286.145 55.82 286.145 56.3C286.145 56.78 285.905 57.28 285.425 57.8C284.985 58.28 284.425 58.7 283.745 59.06C283.105 59.38 282.485 59.54 281.885 59.54C281.445 59.54 281.025 59.28 280.625 58.76C280.225 58.2 279.865 57.54 279.545 56.78C279.265 55.98 279.005 55.22 278.765 54.5L278.405 53.12L275.825 55.58C275.305 56.14 274.785 56.66 274.265 57.14C273.785 57.58 273.485 57.9 273.365 58.1C273.165 58.46 272.785 58.82 272.225 59.18C271.705 59.54 270.985 59.9 270.065 60.26ZM270.245 56.72C270.925 56.32 271.705 55.74 272.585 54.98C273.465 54.18 274.325 53.32 275.165 52.4C276.005 51.44 276.705 50.56 277.265 49.76C277.945 48.84 278.465 47.98 278.825 47.18C279.185 46.38 279.445 45.62 279.605 44.9C279.445 44.46 279.185 44 278.825 43.52C278.465 43 278.145 42.72 277.865 42.68C276.985 42.68 276.045 43.24 275.045 44.36C274.085 45.44 273.145 46.62 272.225 47.9C272.065 48.1 271.845 48.42 271.565 48.86C271.285 49.3 271.005 49.72 270.725 50.12C270.485 50.48 270.325 50.72 270.245 50.84C270.125 51 269.885 51.46 269.525 52.22C269.205 52.94 268.885 53.68 268.565 54.44C268.245 55.16 268.085 55.64 268.085 55.88C268.085 56.12 268.105 56.38 268.145 56.66C268.225 56.94 268.425 57.12 268.745 57.2C269.065 57.28 269.565 57.12 270.245 56.72Z" fill="black"/>
<path id="Macetas" d="M163.603 110.88C163.563 111.12 163.323 111.18 162.883 111.06C162.483 110.98 162.123 110.7 161.803 110.22C161.483 109.46 161.323 108.76 161.323 108.12C161.323 107.48 161.343 106.52 161.383 105.24C161.623 103.84 161.943 102.02 162.343 99.78C162.783 97.5 163.283 94.96 163.843 92.16C164.443 89.32 165.083 86.36 165.763 83.28C166.243 81.68 166.623 80.22 166.903 78.9C167.223 77.54 167.463 76.44 167.623 75.6C167.783 74.76 167.863 74.34 167.863 74.34C167.863 74.22 167.743 74.28 167.503 74.52C167.303 74.72 167.103 74.96 166.903 75.24C166.703 75.52 166.623 75.74 166.663 75.9C166.663 75.9 166.523 76.1 166.243 76.5C165.963 76.9 165.603 77.44 165.163 78.12C164.763 78.52 164.283 79.32 163.723 80.52C163.163 81.72 162.543 82.84 161.863 83.88C161.223 85.08 160.543 86.38 159.823 87.78C159.103 89.14 158.463 90.28 157.903 91.2C157.543 91.72 157.183 92.32 156.823 93C156.463 93.68 156.243 94.12 156.163 94.32C156.003 94.76 155.723 95.3 155.323 95.94C154.923 96.54 154.483 97.14 154.003 97.74C153.763 98.1 153.523 98.48 153.283 98.88C153.043 99.24 152.843 99.56 152.683 99.84C152.563 100.08 152.503 100.2 152.503 100.2C152.503 100.32 152.303 100.68 151.903 101.28C151.543 101.88 151.083 102.54 150.523 103.26C150.003 103.98 149.503 104.6 149.023 105.12C147.623 106.6 146.503 107.48 145.663 107.76C144.823 108 143.883 107.64 142.843 106.68C142.323 106.04 141.943 105.32 141.703 104.52C141.463 103.68 141.363 102.66 141.403 101.46C141.443 100.22 141.583 98.68 141.823 96.84C142.103 95.44 142.363 94.04 142.603 92.64C142.843 91.2 143.063 89.86 143.263 88.62C143.503 87.34 143.703 86.26 143.863 85.38C144.063 84.5 144.223 83.92 144.343 83.64C144.423 82.84 144.403 82.4 144.283 82.32C144.163 82.24 143.923 82.48 143.563 83.04C143.403 83.32 142.983 84.02 142.303 85.14C141.623 86.22 140.823 87.56 139.903 89.16C139.023 90.76 138.143 92.5 137.263 94.38C135.623 97.42 134.263 99.94 133.183 101.94C132.143 103.9 131.303 105.46 130.663 106.62C130.063 107.78 129.623 108.64 129.343 109.2C129.063 109.76 128.863 110.14 128.743 110.34C128.623 110.54 128.523 110.68 128.443 110.76C128.083 110.76 127.703 110.6 127.303 110.28C126.943 110 126.563 109.66 126.163 109.26C126.043 108.98 125.983 108.7 125.983 108.42C126.023 108.14 126.163 107.74 126.403 107.22C126.643 106.66 127.003 105.82 127.483 104.7C128.003 103.66 128.483 102.76 128.923 102C129.363 101.2 129.703 100.72 129.943 100.56C130.143 100.24 130.323 99.92 130.483 99.6C130.643 99.28 130.743 98.9 130.783 98.46C130.983 98.22 131.283 97.74 131.683 97.02C132.123 96.26 132.563 95.44 133.003 94.56C133.323 94.04 133.723 93.36 134.203 92.52C134.723 91.68 135.263 90.76 135.823 89.76C136.383 88.72 136.883 87.74 137.323 86.82C139.163 83.66 140.723 81 142.003 78.84C143.283 76.64 144.243 75.24 144.883 74.64C145.083 74.44 145.283 74.16 145.483 73.8C145.723 73.44 145.843 73.12 145.843 72.84C145.843 72 146.003 71.24 146.323 70.56C146.683 69.84 147.043 69.52 147.403 69.6C147.803 69.6 148.163 69.64 148.483 69.72C148.803 69.8 149.143 70.06 149.503 70.5C149.823 70.98 150.103 71.46 150.343 71.94C150.583 72.42 150.563 73.38 150.283 74.82C150.283 75.38 150.223 76.02 150.103 76.74C149.983 77.42 149.863 78.06 149.743 78.66C149.663 79.22 149.603 79.66 149.563 79.98C149.043 81.54 148.563 83.3 148.123 85.26C147.683 87.18 147.283 89.14 146.923 91.14C146.563 93.1 146.263 94.94 146.023 96.66C145.783 98.34 145.623 99.74 145.543 100.86C145.503 101.94 145.543 102.56 145.663 102.72C145.943 102.88 146.183 102.9 146.383 102.78C146.583 102.66 146.923 102.14 147.403 101.22C147.683 100.74 148.063 100.16 148.543 99.48C149.063 98.76 149.563 98.1 150.043 97.5C150.363 96.94 150.863 96.1 151.543 94.98C152.223 93.86 153.083 92.42 154.123 90.66C155.203 88.9 156.483 86.76 157.963 84.24C159.483 81.68 161.203 78.72 163.123 75.36C164.043 73.96 164.903 72.6 165.703 71.28C166.543 69.92 167.223 69.04 167.743 68.64C168.303 68.12 168.883 68 169.483 68.28C170.083 68.52 170.603 69.04 171.043 69.84C171.523 70.64 171.783 71.64 171.823 72.84C171.863 73.4 171.783 74.3 171.583 75.54C171.423 76.78 171.163 78.2 170.803 79.8C170.443 81.36 169.983 82.98 169.423 84.66C169.303 85.34 169.103 86.2 168.823 87.24C168.583 88.24 168.303 89.28 167.983 90.36C167.663 91.44 167.343 92.46 167.023 93.42C166.823 94.74 166.583 96.04 166.303 97.32C166.063 98.6 165.983 99.46 166.063 99.9C165.703 100.54 165.463 101.46 165.343 102.66C165.223 103.86 165.163 105.1 165.163 106.38C165.003 107.94 164.883 109.04 164.803 109.68C164.723 110.32 164.583 110.62 164.383 110.58C163.863 110.42 163.603 110.52 163.603 110.88ZM176.546 105.84C176.386 105.52 176.186 105.28 175.946 105.12C175.706 104.92 175.586 104.74 175.586 104.58C175.586 104.42 175.566 104.26 175.526 104.1C175.526 103.9 175.446 103.72 175.286 103.56C175.086 103.32 175.106 102.78 175.346 101.94C175.586 101.06 175.986 100 176.546 98.76C177.106 97.48 177.766 96.14 178.526 94.74C178.846 94.42 179.166 94 179.486 93.48C179.806 92.96 180.046 92.62 180.206 92.46C180.206 92.3 180.266 92.16 180.386 92.04C180.506 91.88 180.646 91.8 180.806 91.8V91.44C180.806 91.24 180.986 90.9 181.346 90.42C181.746 89.94 182.226 89.42 182.786 88.86C183.346 88.26 183.926 87.7 184.526 87.18C185.126 86.62 185.626 86.22 186.026 85.98C186.866 85.42 187.726 85.08 188.606 84.96C189.526 84.84 190.306 85.04 190.946 85.56C191.066 85.68 191.266 85.88 191.546 86.16C191.826 86.44 192.146 86.76 192.506 87.12C192.906 87.44 193.306 87.78 193.706 88.14L195.926 90.12L194.846 93.12C194.326 94.72 194.186 96.12 194.426 97.32C194.706 98.52 195.106 99.56 195.626 100.44C195.826 100.88 196.226 101.3 196.826 101.7C197.466 102.1 198.066 102.34 198.626 102.42C198.946 102.46 199.246 102.58 199.526 102.78C199.806 102.98 199.946 103.3 199.946 103.74C199.946 104.14 199.866 104.46 199.706 104.7C199.546 104.94 199.266 105.1 198.866 105.18C197.546 105.34 196.306 105.02 195.146 104.22C194.026 103.42 192.986 102.1 192.026 100.26C191.866 100.02 191.646 99.58 191.366 98.94C191.126 98.26 190.986 97.82 190.946 97.62C190.786 97.82 190.486 98.2 190.046 98.76C189.606 99.28 189.266 99.66 189.026 99.9C186.186 102.78 183.726 104.72 181.646 105.72C179.606 106.68 177.906 106.72 176.546 105.84ZM178.706 102.48C178.706 102.76 179.126 102.76 179.966 102.48C180.846 102.16 181.786 101.6 182.786 100.8C184.146 99.64 185.506 98.36 186.866 96.96C188.266 95.56 189.386 94.26 190.226 93.06L191.546 90.9C191.146 89.98 190.706 89.36 190.226 89.04C189.786 88.68 189.406 88.5 189.086 88.5C188.566 88.5 187.786 88.98 186.746 89.94C185.746 90.9 184.666 92.18 183.506 93.78C182.346 95.38 181.246 97.14 180.206 99.06C179.806 99.86 179.446 100.64 179.126 101.4C178.846 102.12 178.706 102.48 178.706 102.48ZM211.858 107.34C210.698 107.54 209.638 107.48 208.678 107.16C207.718 106.8 206.938 106.22 206.338 105.42C205.778 104.58 205.498 103.52 205.498 102.24C205.378 101.04 205.518 99.66 205.918 98.1C206.318 96.5 206.898 94.9 207.658 93.3C208.458 91.7 209.318 90.32 210.238 89.16C211.038 88.2 211.838 87.32 212.638 86.52C213.438 85.72 214.158 85.18 214.798 84.9C215.358 84.66 215.878 84.52 216.358 84.48C216.878 84.4 217.298 84.36 217.618 84.36C218.258 84.52 218.938 84.82 219.658 85.26C220.418 85.66 220.798 86.1 220.798 86.58C220.798 86.58 220.838 86.64 220.918 86.76C221.038 86.84 221.098 86.88 221.098 86.88C221.338 86.88 221.538 87.14 221.698 87.66C221.898 88.18 222.018 88.78 222.058 89.46C222.098 90.1 221.998 90.64 221.758 91.08C221.598 91.84 221.318 92.5 220.918 93.06C220.518 93.62 220.158 93.9 219.838 93.9C219.678 93.9 219.518 93.92 219.358 93.96C219.238 93.96 219.178 94.06 219.178 94.26C219.178 94.46 219.058 94.54 218.818 94.5C218.618 94.46 218.398 94.34 218.158 94.14C217.918 93.9 217.738 93.62 217.618 93.3C217.618 93.1 217.698 92.76 217.858 92.28C218.018 91.8 218.178 91.18 218.338 90.42C218.578 89.3 218.558 88.58 218.278 88.26C217.998 87.9 217.458 87.88 216.658 88.2C215.658 88.76 214.698 89.54 213.778 90.54C212.898 91.54 212.078 92.84 211.318 94.44C210.558 96 209.878 97.96 209.278 100.32C209.038 101.24 208.938 102.04 208.978 102.72C209.058 103.4 209.158 103.76 209.278 103.8C209.838 103.96 210.598 104 211.558 103.92C212.518 103.8 213.218 103.62 213.658 103.38C214.298 103.06 215.018 102.64 215.818 102.12C216.618 101.56 217.318 101.06 217.918 100.62C218.118 100.5 218.358 100.3 218.638 100.02C218.918 99.74 219.218 99.52 219.538 99.36C219.858 98.88 220.138 98.6 220.378 98.52C220.618 98.44 220.978 98.4 221.458 98.4C221.778 98.48 222.078 98.6 222.358 98.76C222.638 98.92 222.818 99.08 222.898 99.24C223.018 99.4 222.958 99.54 222.718 99.66C222.558 99.66 222.458 99.72 222.418 99.84C222.418 99.92 222.418 99.96 222.418 99.96C222.498 100.12 222.318 100.46 221.878 100.98C221.478 101.46 220.958 102 220.318 102.6C219.678 103.2 219.058 103.72 218.458 104.16C217.898 104.56 217.498 104.76 217.258 104.76C216.858 104.76 216.658 104.88 216.658 105.12C216.658 105.2 216.358 105.4 215.758 105.72C215.198 106.04 214.538 106.36 213.778 106.68C213.058 107 212.418 107.22 211.858 107.34ZM235.406 108.18C233.646 108.18 232.206 107.52 231.086 106.2C229.966 104.84 229.426 103.16 229.466 101.16C229.546 99.72 229.826 98.18 230.306 96.54C230.826 94.86 231.506 93.26 232.346 91.74C233.186 90.18 234.106 88.82 235.106 87.66C236.106 86.5 237.146 85.68 238.226 85.2C238.626 85 239.046 84.84 239.486 84.72C239.966 84.6 240.446 84.54 240.926 84.54C241.366 84.54 241.826 84.62 242.306 84.78C242.786 84.9 243.186 85.04 243.506 85.2C244.186 85.48 244.706 85.82 245.066 86.22C245.426 86.62 245.746 87.24 246.026 88.08C246.146 88.84 246.206 89.38 246.206 89.7C246.206 90.02 246.106 90.5 245.906 91.14C245.426 92.58 244.806 93.82 244.046 94.86C243.286 95.9 242.266 96.78 240.986 97.5C240.666 97.7 240.286 97.86 239.846 97.98C239.446 98.06 239.026 98.1 238.586 98.1C237.786 98.1 237.006 97.96 236.246 97.68C235.526 97.36 234.946 96.9 234.506 96.3L234.086 95.82L233.906 96.3C233.506 97.38 233.186 98.38 232.946 99.3C232.746 100.22 232.646 101.06 232.646 101.82C232.646 102.3 232.686 102.76 232.766 103.2C232.886 103.64 233.046 104.02 233.246 104.34C233.406 104.58 233.666 104.76 234.026 104.88C234.426 104.96 234.846 105 235.286 105C235.566 105 235.846 105 236.126 105C236.446 104.96 236.746 104.88 237.026 104.76C237.706 104.52 238.246 104.26 238.646 103.98C239.086 103.7 239.526 103.4 239.966 103.08L240.206 102.96H240.146C240.626 102.72 241.046 102.48 241.406 102.24C241.806 102 242.006 101.88 242.006 101.88C242.166 101.88 242.326 101.78 242.486 101.58C242.806 101.42 243.206 101.48 243.686 101.76C244.206 102.04 244.466 102.4 244.466 102.84C244.426 103.04 244.246 103.36 243.926 103.8C243.606 104.2 243.246 104.58 242.846 104.94C242.486 105.3 242.186 105.5 241.946 105.54C241.906 105.58 241.766 105.66 241.526 105.78C241.286 105.86 241.126 105.94 241.046 106.02H241.106C240.746 106.5 240.386 106.74 240.026 106.74H239.546C239.386 107.02 238.866 107.34 237.986 107.7C237.106 108.02 236.246 108.18 235.406 108.18ZM238.106 94.98C238.826 94.98 239.446 94.78 239.966 94.38C240.526 93.94 241.006 93.46 241.406 92.94C242.206 91.86 242.666 90.82 242.786 89.82C242.946 88.78 242.826 88.06 242.426 87.66C242.186 87.54 241.966 87.48 241.766 87.48C241.606 87.44 241.266 87.5 240.746 87.66C240.386 87.74 239.886 88.04 239.246 88.56C238.606 89.08 237.966 89.66 237.326 90.3C236.726 90.94 236.266 91.48 235.946 91.92L235.166 93.18C235.486 93.06 235.786 93 236.066 93C236.386 92.96 236.566 92.98 236.606 93.06C236.606 93.42 236.666 93.76 236.786 94.08C236.946 94.36 237.126 94.58 237.326 94.74C237.566 94.9 237.826 94.98 238.106 94.98ZM259.657 107.88C259.097 107.72 258.637 107.54 258.277 107.34C257.917 107.1 257.437 106.72 256.837 106.2C256.357 105.56 255.977 104.96 255.697 104.4C255.457 103.84 255.297 103.2 255.217 102.48C255.137 101.72 255.097 100.76 255.097 99.6C255.097 99.12 255.177 98.4 255.337 97.44C255.537 96.48 255.757 95.48 255.997 94.44C256.277 93.36 256.517 92.4 256.717 91.56C256.957 90.72 257.097 90.18 257.137 89.94C257.257 89.42 257.057 89.12 256.537 89.04C256.017 88.96 255.437 88.94 254.797 88.98C254.197 88.98 253.797 88.92 253.597 88.8C253.437 88.76 253.357 88.7 253.357 88.62C253.357 88.5 253.357 88.44 253.357 88.44C253.357 88.28 253.337 88.18 253.297 88.14C253.297 88.06 253.237 87.92 253.117 87.72C253.037 87.56 253.077 87.34 253.237 87.06C253.437 86.74 253.757 86.54 254.197 86.46C254.557 86.38 255.037 86.32 255.637 86.28C256.277 86.2 256.917 86.06 257.557 85.86C258.197 85.62 258.717 85.26 259.117 84.78C259.477 83.9 259.897 82.92 260.377 81.84C260.857 80.76 261.317 79.8 261.757 78.96C262.237 78.08 262.557 77.54 262.717 77.34C263.397 76.98 263.897 76.84 264.217 76.92C264.537 76.96 264.897 77.3 265.297 77.94C265.497 78.22 265.637 78.44 265.717 78.6C265.837 78.76 265.857 79 265.777 79.32C265.697 79.64 265.477 80.14 265.117 80.82C264.797 81.5 264.297 82.48 263.617 83.76C263.417 84.16 263.237 84.52 263.077 84.84C262.917 85.12 262.837 85.26 262.837 85.26C262.997 85.3 263.237 85.32 263.557 85.32C263.877 85.32 264.277 85.3 264.757 85.26C265.197 85.18 265.757 85.12 266.437 85.08C267.117 85 267.657 85 268.057 85.08C268.977 85.08 269.657 85.26 270.097 85.62C270.537 85.94 270.777 86.5 270.817 87.3C270.897 87.74 270.797 88 270.517 88.08C270.277 88.16 269.617 88.2 268.537 88.2C268.177 88.2 267.617 88.22 266.857 88.26C266.097 88.3 265.297 88.34 264.457 88.38C263.657 88.42 262.957 88.48 262.357 88.56C261.797 88.6 261.517 88.66 261.517 88.74C261.397 88.82 261.197 89.2 260.917 89.88C260.677 90.56 260.417 91.34 260.137 92.22C259.897 93.06 259.677 93.82 259.477 94.5C259.197 95.86 258.977 97.22 258.817 98.58C258.697 99.94 258.677 101.12 258.757 102.12C258.837 103.12 259.057 103.82 259.417 104.22C259.777 104.58 260.477 104.66 261.517 104.46C262.557 104.22 263.397 103.84 264.037 103.32C264.757 102.72 265.337 102.42 265.777 102.42C266.257 102.42 266.517 102.64 266.557 103.08C266.637 103.48 266.417 104.06 265.897 104.82C265.417 105.54 264.817 106.18 264.097 106.74C263.377 107.26 262.617 107.64 261.817 107.88C261.057 108.08 260.337 108.08 259.657 107.88ZM278.741 106.02C278.261 106.1 277.741 106.02 277.181 105.78C276.621 105.54 276.121 105.2 275.681 104.76C275.281 104.32 275.021 103.86 274.901 103.38C274.741 102.54 274.841 101.5 275.201 100.26C275.601 98.98 276.161 97.64 276.881 96.24C277.641 94.8 278.481 93.42 279.401 92.1C280.361 90.78 281.341 89.64 282.341 88.68C283.381 87.68 284.341 87 285.221 86.64C285.661 86.36 286.001 86.18 286.241 86.1C286.521 85.98 286.801 85.96 287.081 86.04C287.401 86.12 287.861 86.32 288.461 86.64C289.021 86.8 289.441 86.98 289.721 87.18C290.001 87.38 290.361 87.78 290.801 88.38C291.121 88.98 291.361 89.58 291.521 90.18C291.681 90.78 291.821 91.46 291.941 92.22C292.261 93.22 292.381 93.88 292.301 94.2C292.221 94.48 292.101 94.7 291.941 94.86C291.621 95.26 291.541 95.46 291.701 95.46C291.701 95.46 291.681 95.54 291.641 95.7C291.641 95.82 291.561 96.02 291.401 96.3C291.121 97.18 290.901 98.1 290.741 99.06C290.621 99.98 290.641 100.74 290.801 101.34C291.121 102.22 291.701 102.74 292.541 102.9C293.381 103.06 294.241 102.7 295.121 101.82C295.561 101.5 295.981 101.22 296.381 100.98C296.781 100.7 296.981 100.72 296.981 101.04C296.981 101.04 297.041 101.1 297.161 101.22C297.281 101.3 297.421 101.34 297.581 101.34C297.781 101.34 297.901 101.42 297.941 101.58C298.021 101.74 298.021 101.96 297.941 102.24C297.901 102.48 297.781 102.76 297.581 103.08C296.981 103.68 296.681 104.08 296.681 104.28C296.681 104.28 296.601 104.36 296.441 104.52C296.321 104.64 296.101 104.84 295.781 105.12C295.061 105.56 294.141 105.78 293.021 105.78C291.941 105.78 291.101 105.56 290.501 105.12C289.901 104.68 289.341 104.08 288.821 103.32C288.341 102.56 288.021 101.9 287.861 101.34L287.561 100.74L285.821 101.88C285.381 102.32 284.901 102.74 284.381 103.14C283.901 103.54 283.581 103.82 283.421 103.98C283.301 104.14 283.161 104.28 283.001 104.4C282.881 104.52 282.741 104.58 282.581 104.58C282.421 104.58 282.281 104.58 282.161 104.58C282.041 104.58 281.981 104.58 281.981 104.58C281.981 104.74 281.781 104.94 281.381 105.18C281.021 105.42 280.581 105.62 280.061 105.78C279.581 105.94 279.141 106.02 278.741 106.02ZM278.141 102.78C278.381 102.78 278.801 102.6 279.401 102.24C280.041 101.84 280.741 101.38 281.501 100.86C282.301 100.34 283.001 99.82 283.601 99.3C284.241 98.78 284.681 98.38 284.921 98.1C285.081 97.94 285.341 97.68 285.701 97.32C286.061 96.92 286.381 96.58 286.661 96.3C287.581 95.26 288.221 94.12 288.581 92.88C288.941 91.6 288.901 90.6 288.461 89.88C288.301 89.44 288.101 89.2 287.861 89.16C287.621 89.12 287.121 89.26 286.361 89.58C285.881 89.86 285.281 90.4 284.561 91.2C283.881 91.96 283.141 92.86 282.341 93.9C281.581 94.9 280.861 95.94 280.181 97.02C279.501 98.1 278.941 99.1 278.501 100.02C278.061 100.94 277.841 101.66 277.841 102.18C277.841 102.34 277.881 102.48 277.961 102.6C278.081 102.72 278.141 102.78 278.141 102.78ZM308.15 107.16C306.15 107.16 304.69 106.44 303.77 105C303.49 104.6 303.35 104.2 303.35 103.8C303.39 103.36 303.51 103.06 303.71 102.9C303.95 102.74 304.23 102.88 304.55 103.32C305.11 103.64 305.91 103.8 306.95 103.8C307.47 103.8 308.01 103.76 308.57 103.68C309.13 103.56 309.69 103.4 310.25 103.2C310.85 102.92 311.25 102.68 311.45 102.48C311.65 102.24 311.61 102.04 311.33 101.88H311.39C310.35 101.6 309.29 101.16 308.21 100.56C307.17 99.92 306.27 99.24 305.51 98.52C304.75 97.76 304.31 97.08 304.19 96.48C303.87 95.24 303.95 93.98 304.43 92.7C304.91 91.38 305.59 90.22 306.47 89.22C306.79 89.02 307.19 88.78 307.67 88.5C308.15 88.18 308.53 88 308.81 87.96V88.02C309.57 87.22 310.49 86.58 311.57 86.1C312.69 85.62 313.87 85.18 315.11 84.78L316.01 84.66C316.49 84.58 316.89 84.54 317.21 84.54C317.17 84.54 317.25 84.58 317.45 84.66C317.65 84.7 317.83 84.74 317.99 84.78C318.23 84.9 318.43 84.96 318.59 84.96C319.11 85.04 319.59 85.28 320.03 85.68C320.47 86.08 320.81 86.56 321.05 87.12C321.33 87.64 321.43 88.14 321.35 88.62C321.27 89.38 321.03 90.06 320.63 90.66C320.27 91.26 319.83 91.6 319.31 91.68C319.39 91.64 319.33 91.58 319.13 91.5C318.97 91.38 318.79 91.26 318.59 91.14L318.41 91.26C318.41 91.26 318.39 91.22 318.35 91.14C318.35 91.02 318.31 90.88 318.23 90.72C318.11 90.48 318.05 90.22 318.05 89.94C318.05 89.62 318.07 89.28 318.11 88.92C318.19 88.48 318.19 88.22 318.11 88.14C318.07 88.06 317.81 88 317.33 87.96C316.77 87.84 315.95 87.94 314.87 88.26C313.83 88.58 312.95 89.02 312.23 89.58C311.35 90.14 310.61 90.68 310.01 91.2C309.41 91.68 308.93 92.16 308.57 92.64C308.21 93.08 307.89 93.6 307.61 94.2C307.41 94.48 307.23 94.76 307.07 95.04C306.95 95.28 306.89 95.5 306.89 95.7C306.89 96.14 307.21 96.6 307.85 97.08C308.53 97.52 309.53 98.04 310.85 98.64C311.89 99.08 312.77 99.56 313.49 100.08C314.21 100.6 314.71 101.2 314.99 101.88C315.07 102.04 315.09 102.24 315.05 102.48C315.05 102.68 315.01 102.82 314.93 102.9C315.01 102.98 315.05 103.04 315.05 103.08V103.02C315.37 103.5 315.37 104 315.05 104.52C314.77 105.04 314.27 105.5 313.55 105.9C312.87 106.26 312.03 106.54 311.03 106.74H311.09C310.57 106.9 310.05 107.02 309.53 107.1C309.05 107.14 308.59 107.16 308.15 107.16Z" fill="black"/>
<g id="flowerStand 2">
<path id="Vector" d="M117.141 78H110.358C116.256 70.8 115.241 58.9538 115.188 58.3875C115.153 58.0103 114.943 57.6577 114.599 57.4004C114.255 57.1431 113.803 57.0001 113.334 57H87.478C87.0091 57.0001 86.5575 57.1431 86.2137 57.4004C85.87 57.6577 85.6594 58.0103 85.6242 58.3875C85.4801 60.3243 85.4906 62.2666 85.6558 64.2023C85.6312 64.3003 85.6187 64.4 85.6186 64.5C85.6209 64.666 85.6577 64.8306 85.7274 64.9868C86.1383 69.0465 87.3228 74.1765 90.4549 77.9993H73.3616C75.4604 76.4274 76.9282 74.3847 77.5759 72.1343C78.3439 69.1839 78.2324 66.1286 77.2505 63.2198L76.2167 59.8575C76.2003 59.6984 76.1523 59.5424 76.0745 59.3955L75.2015 56.5598C74.8709 55.4154 74.0741 54.3935 72.9387 53.6575C71.8032 52.9216 70.3946 52.514 68.9382 52.5H61.3594V38.8613C61.7275 38.9492 62.1088 38.9956 62.4927 38.9993C62.7414 38.9996 62.9894 38.977 63.2318 38.9318C64.2166 38.6884 65.0802 38.1992 65.6982 37.5345C65.8736 37.3626 66.0675 37.2035 66.2774 37.059C66.5509 37.0084 66.8299 36.9798 67.1104 36.9735C68.1273 36.9858 69.1225 36.7362 69.9515 36.261C70.6979 35.6994 71.2071 34.9631 71.4074 34.1558C71.4778 33.9273 71.5753 33.7047 71.6984 33.4913C71.918 33.3482 72.1547 33.2231 72.405 33.1178C73.3285 32.7656 74.0916 32.1885 74.587 31.4678C74.9583 30.7077 75.0288 29.8735 74.7887 29.0798C74.7291 28.8403 74.7004 28.5965 74.7032 28.3523C74.825 28.1463 74.9714 27.9504 75.1401 27.7673C75.7854 27.1204 76.1675 26.3286 76.2344 25.5C76.1672 24.6711 75.7848 23.8791 75.1392 23.232C74.9718 23.0503 74.8261 22.8562 74.7041 22.6523C74.6999 22.4068 74.7283 22.1617 74.7887 21.921C75.0292 21.1271 74.9587 20.2926 74.587 19.5323C74.0917 18.8115 73.3285 18.2344 72.405 17.8823C72.157 17.7776 71.922 17.654 71.7031 17.5133C71.5775 17.2987 71.4788 17.0746 71.4084 16.8443C71.2075 16.0374 70.698 15.3016 69.9515 14.7405C69.123 14.2649 68.1281 14.0148 67.1113 14.0265C66.8346 14.0198 66.5592 13.9927 66.2886 13.9455C66.0738 13.8007 65.8761 13.64 65.6982 13.4655C65.0805 12.8011 64.2172 12.3121 63.2327 12.069C62.2362 11.939 61.2142 12.0697 60.3163 12.4418C60.0549 12.5393 59.7821 12.6154 59.5019 12.669C59.2202 12.6161 58.9461 12.5399 58.6837 12.4418C57.7863 12.07 56.7653 11.9389 55.7692 12.0675C54.7842 12.3111 53.9206 12.8006 53.3027 13.4655C53.1273 13.6374 52.9335 13.7965 52.7235 13.941C52.45 13.9916 52.171 14.0203 51.8905 14.0265C50.8736 14.0143 49.8784 14.2639 49.0494 14.739C48.3032 15.3004 47.794 16.0365 47.5935 16.8435C47.5232 17.0723 47.4257 17.2951 47.3025 17.5088C47.0829 17.6519 46.8462 17.777 46.5959 17.8823C45.6725 18.2345 44.9093 18.8116 44.414 19.5323C44.0428 20.2921 43.9723 21.1261 44.2122 21.9195C44.2719 22.1592 44.3006 22.4033 44.2977 22.6478C44.1759 22.8537 44.0295 23.0496 43.8608 23.2328C43.2152 23.8796 42.8328 24.6714 42.7656 25.5C42.833 26.3287 43.2154 27.1204 43.8608 27.7673C44.0283 27.9492 44.174 28.1436 44.2959 28.3478C44.3001 28.5933 44.2717 28.8384 44.2113 29.079C43.971 29.8727 44.0415 30.707 44.413 31.467C44.9083 32.1878 45.6715 32.7649 46.595 33.117C46.843 33.2217 47.078 33.3453 47.2969 33.486C47.4225 33.7006 47.5212 33.9247 47.5916 34.155C47.7923 34.9622 48.3018 35.6983 49.0485 36.2595C49.877 36.7351 50.8719 36.9852 51.8886 36.9735C52.1654 36.9802 52.4408 37.0073 52.7114 37.0545C52.9262 37.1994 53.1239 37.3601 53.3018 37.5345C53.9194 38.1993 54.7827 38.6885 55.7673 38.9318C56.3889 39.0382 57.034 39.014 57.6406 38.8613V52.5H50.0618C48.6054 52.514 47.1968 52.9216 46.0613 53.6575C44.9258 54.3935 44.1291 55.4154 43.7985 56.5598L42.9255 59.3948C42.8476 59.5419 42.7996 59.6981 42.7833 59.8575L41.7485 63.2198C40.767 66.1289 40.6561 69.1845 41.425 72.135C42.0724 74.3854 43.5398 76.4281 45.6384 78H28.5451C31.6782 74.1765 32.8617 69.0465 33.2726 64.9868C33.3424 64.8303 33.3792 64.6655 33.3814 64.4993C33.3812 64.3995 33.3687 64.3 33.3442 64.2023C33.5094 62.2666 33.5199 60.3243 33.3758 58.3875C33.3406 58.0103 33.13 57.6577 32.7863 57.4004C32.4425 57.1431 31.9909 57.0001 31.522 57H5.66552C5.19658 57.0001 4.74499 57.1431 4.40122 57.4004C4.05745 57.6577 3.84689 58.0103 3.81172 58.3875C3.66758 60.3243 3.67814 62.2666 3.84333 64.2023C3.81869 64.3003 3.80623 64.4 3.80614 64.5C3.80841 64.666 3.84518 64.8306 3.91491 64.9868C4.32584 69.0465 5.51026 74.1765 8.64237 77.9993H1.85938C1.36624 77.9993 0.893299 78.1573 0.544598 78.4386C0.195898 78.7199 0 79.1015 0 79.4993L0 85.4993C0 85.8971 0.195898 86.2786 0.544598 86.5599C0.893299 86.8412 1.36624 86.9993 1.85938 86.9993H16.7344V104.999H14.875C14.3819 104.999 13.9089 105.157 13.5602 105.439C13.2115 105.72 13.0156 106.101 13.0156 106.499C13.0156 106.897 13.2115 107.279 13.5602 107.56C13.9089 107.841 14.3819 107.999 14.875 107.999H22.3125C22.8056 107.999 23.2786 107.841 23.6273 107.56C23.976 107.279 24.1719 106.897 24.1719 106.499C24.1719 106.101 23.976 105.72 23.6273 105.439C23.2786 105.157 22.8056 104.999 22.3125 104.999H20.4531V99.7493H98.5469V104.999H96.6875C96.1944 104.999 95.7214 105.157 95.3727 105.439C95.024 105.72 94.8281 106.101 94.8281 106.499C94.8281 106.897 95.024 107.279 95.3727 107.56C95.7214 107.841 96.1944 107.999 96.6875 107.999H104.125C104.618 107.999 105.091 107.841 105.44 107.56C105.788 107.279 105.984 106.897 105.984 106.499C105.984 106.101 105.788 105.72 105.44 105.439C105.091 105.157 104.618 104.999 104.125 104.999H102.266V86.9993H117.141C117.634 86.9993 118.107 86.8412 118.455 86.5599C118.804 86.2786 119 85.8971 119 85.4993V79.4993C119 79.1015 118.804 78.7199 118.455 78.4386C118.107 78.1573 117.634 78 117.141 78ZM89.3132 63C89.259 62.0007 89.2428 61.0002 89.2649 60H111.548C111.566 60.7605 111.563 61.8023 111.499 63H89.3132ZM57.2762 35.7825C57.0717 35.85 56.7825 35.9453 56.6068 35.9835C56.4196 35.8427 56.2423 35.6935 56.076 35.5365C55.605 35.0603 55.0233 34.6628 54.3635 34.3665C53.6648 34.1211 52.9127 33.9901 52.1508 33.981C51.9031 33.9712 51.6564 33.9499 51.4117 33.9173C51.3123 33.7188 51.2279 33.5157 51.1588 33.309C50.9839 32.7104 50.6683 32.1445 50.2292 31.6418C49.7353 31.1787 49.134 30.7981 48.459 30.5213C48.2288 30.4199 48.007 30.3064 47.7952 30.1815C47.8087 29.9644 47.8391 29.7483 47.8863 29.5343C48.0429 28.9292 48.0561 28.3058 47.9254 27.6968C47.7276 27.1133 47.3927 26.5659 46.939 26.0843C46.7727 25.8989 46.6247 25.7033 46.4965 25.4993C46.6248 25.2957 46.7728 25.1006 46.939 24.9158C47.393 24.4337 47.7282 23.8858 47.9263 23.3018C48.0565 22.693 48.0429 22.0698 47.8863 21.465C47.8391 21.2511 47.809 21.0349 47.7962 20.8178C48.0076 20.6929 48.2291 20.5794 48.459 20.478C49.1347 20.2014 49.7366 19.8207 50.231 19.3575C50.6702 18.8548 50.9858 18.2889 51.1607 17.6903C51.2298 17.4836 51.3142 17.2805 51.4136 17.082C51.6583 17.0496 51.905 17.0283 52.1527 17.0183C52.9146 17.0093 53.6667 16.8783 54.3653 16.6328C55.0248 16.3363 55.6062 15.9389 56.0769 15.4628C56.247 15.3098 56.4934 15.0863 56.5845 15.012C56.8197 15.0702 57.0506 15.139 57.2762 15.2183C57.9736 15.4856 58.7297 15.6385 59.5009 15.6683C60.2721 15.6385 61.0283 15.4856 61.7257 15.2183C61.9302 15.1508 62.2184 15.0548 62.395 15.0158C62.582 15.1569 62.7589 15.3063 62.925 15.4635C63.3959 15.9398 63.9776 16.3372 64.6375 16.6335C65.3361 16.8789 66.0882 17.01 66.8501 17.019C67.0978 17.0289 67.3446 17.0502 67.5892 17.0828C67.6886 17.281 67.773 17.4839 67.8421 17.6903C68.017 18.2889 68.3326 18.8548 68.7718 19.3575C69.2655 19.8208 69.8669 20.2017 70.5419 20.4788C70.7722 20.5801 70.9939 20.6936 71.2057 20.8185C71.1923 21.0356 71.1618 21.2518 71.1146 21.4658C70.958 22.0708 70.9448 22.6943 71.0755 23.3033C71.2733 23.8868 71.6082 24.4342 72.0619 24.9158C72.2282 25.1009 72.3762 25.2962 72.5045 25.5C72.3762 25.7038 72.2282 25.8992 72.0619 26.0843C71.6079 26.5664 71.2728 27.1143 71.0746 27.6983C70.9444 28.3071 70.958 28.9303 71.1146 29.535C71.1618 29.749 71.1919 29.9652 71.2048 30.1823C70.9933 30.3071 70.7719 30.4206 70.5419 30.522C69.8666 30.7988 69.265 31.1794 68.7708 31.6425C68.3317 32.1452 68.0161 32.7112 67.8412 33.3098C67.7721 33.5164 67.6876 33.7196 67.5883 33.918C67.3436 33.9505 67.0968 33.9718 66.8492 33.9818C66.0871 33.9615 65.3305 34.0927 64.6462 34.364C63.9618 34.6353 63.3707 35.0382 62.925 35.5373C62.7548 35.6903 62.5085 35.9138 62.4174 35.988C62.1821 35.9299 61.9512 35.861 61.7257 35.7818C61.2727 35.6239 60.8028 35.4997 60.3218 35.4105C60.0679 35.3051 59.7865 35.2501 59.5009 35.2501C59.2154 35.2501 58.9339 35.3051 58.68 35.4105C58.1991 35.4997 57.7292 35.6247 57.2762 35.7825ZM47.4066 57.2813C47.539 56.7878 47.8724 56.3443 48.3537 56.0215C48.8349 55.6986 49.4362 55.5151 50.0618 55.5H68.9382C69.5637 55.5153 70.165 55.699 70.646 56.022C71.1271 56.345 71.4603 56.7885 71.5924 57.282L71.9671 58.5H47.0329L47.4066 57.2813ZM56.961 73.5C56.961 73.8979 56.7651 74.2794 56.4164 74.5607C56.0677 74.842 55.5948 75 55.1016 75C53.5925 74.986 52.1338 74.5592 50.9644 73.7895C49.7951 73.0197 48.9842 71.9525 48.6645 70.7625C48.6062 70.57 48.5957 70.3701 48.6336 70.1744C48.6716 69.9786 48.7573 69.7909 48.8857 69.622C49.0142 69.453 49.1828 69.3063 49.3819 69.1903C49.581 69.0743 49.8067 68.9912 50.0458 68.946C50.2849 68.9007 50.5328 68.8941 50.7751 68.9265C51.0174 68.959 51.2493 69.0298 51.4575 69.135C51.6657 69.2401 51.846 69.3775 51.9879 69.5392C52.1299 69.7009 52.2308 69.8837 52.2847 70.077C52.4156 70.6074 52.7655 71.0863 53.2773 71.4356C53.7891 71.7848 54.4325 71.9838 55.1026 72C55.5957 72 56.0687 72.1581 56.4174 72.4394C56.7661 72.7207 56.961 73.1022 56.961 73.5ZM7.50072 63C7.44646 62.0007 7.43034 61.0002 7.45237 60H29.7351C29.7537 60.7605 29.7509 61.8023 29.6868 63H7.50072ZM98.5469 96.75H20.4531V87H98.5469V96.75ZM115.281 84H3.71875V81H115.281V84Z" fill="#EA39EE"/>
<path id="Vector_2" d="M96.6875 53.25H104.125C106.59 53.2478 108.953 52.4569 110.696 51.0509C112.439 49.6448 113.419 47.7385 113.422 45.75V42.75C113.422 42.3522 113.226 41.9706 112.877 41.6893C112.529 41.408 112.056 41.25 111.562 41.25H107.844C106.398 41.251 104.973 41.5245 103.682 42.0486C102.39 42.5727 101.269 43.333 100.406 44.2688C99.5437 43.333 98.4221 42.5727 97.1308 42.0486C95.8395 41.5245 94.4143 41.251 92.9688 41.25H89.25C88.7569 41.25 88.2839 41.408 87.9352 41.6893C87.5865 41.9706 87.3906 42.3522 87.3906 42.75V45.75C87.3933 47.7385 88.3737 49.6448 90.1166 51.0509C91.8595 52.4569 94.2226 53.2478 96.6875 53.25ZM102.266 48.75C102.267 47.557 102.856 46.4132 103.901 45.5696C104.947 44.7259 106.365 44.2514 107.844 44.25H109.703V45.75C109.701 46.943 109.113 48.0868 108.067 48.9304C107.022 49.7741 105.604 50.2486 104.125 50.25H102.266V48.75ZM91.1094 44.25H92.9688C94.4476 44.2514 95.8654 44.7259 96.9112 45.5696C97.9569 46.4132 98.5452 47.557 98.5469 48.75V50.25H96.6875C95.2086 50.2486 93.7908 49.7741 92.7451 48.9304C91.6993 48.0868 91.1111 46.943 91.1094 45.75V44.25Z" fill="#EA39EE"/>
<path id="Vector_3" d="M99.1084 40.824C99.4557 41.0972 99.9216 41.2502 100.407 41.2502C100.892 41.2502 101.358 41.0972 101.705 40.824L104.247 38.8245C105.091 38.1663 105.762 37.3779 106.22 36.5062C106.678 35.6345 106.915 34.6973 106.915 33.7503C106.915 32.8034 106.678 31.8662 106.22 30.9945C105.762 30.1228 105.091 29.3344 104.247 28.6762L101.705 26.676C101.358 26.4027 100.892 26.2498 100.407 26.2498C99.9216 26.2498 99.4557 26.4027 99.1084 26.676L96.5657 28.6755C95.7218 29.3336 95.0507 30.122 94.5924 30.9937C94.134 31.8655 93.8978 32.8027 93.8978 33.7496C93.8978 34.6965 94.134 35.6337 94.5924 36.5055C95.0507 37.3772 95.7218 38.1656 96.5657 38.8237L99.1084 40.824ZM99.1623 30.8235L100.406 29.8447L101.65 30.8242C102.139 31.2029 102.527 31.6572 102.793 32.16C103.059 32.6629 103.195 33.2038 103.195 33.7503C103.195 34.2969 103.059 34.8378 102.793 35.3407C102.527 35.8435 102.139 36.2978 101.65 36.6765L100.406 37.6545L99.1623 36.6757C98.6737 36.2971 98.285 35.8427 98.0195 35.3399C97.7539 34.8371 97.6171 34.2962 97.6171 33.7496C97.6171 33.203 97.7539 32.6621 98.0195 32.1593C98.285 31.6565 98.6737 31.2021 99.1623 30.8235ZM14.875 53.25H22.3125C24.7774 53.2478 27.1405 52.4569 28.8834 51.0509C30.6263 49.6448 31.6067 47.7384 31.6094 45.75V42.75C31.6094 42.3521 31.4135 41.9706 31.0648 41.6893C30.7161 41.408 30.2431 41.25 29.75 41.25H26.0312C24.5857 41.251 23.1605 41.5245 21.8692 42.0486C20.5779 42.5727 19.4563 43.3329 18.5938 44.2687C17.7312 43.3329 16.6096 42.5727 15.3183 42.0486C14.027 41.5245 12.6018 41.251 11.1562 41.25H7.4375C6.94436 41.25 6.47142 41.408 6.12272 41.6893C5.77402 41.9706 5.57813 42.3521 5.57812 42.75V45.75C5.58083 47.7384 6.56119 49.6448 8.30411 51.0509C10.047 52.4569 12.4101 53.2478 14.875 53.25ZM20.4531 48.75C20.4548 47.5569 21.0431 46.4131 22.0888 45.5695C23.1346 44.7259 24.5524 44.2514 26.0312 44.25H27.8906V45.75C27.8889 46.943 27.3007 48.0868 26.2549 48.9304C25.2092 49.774 23.7914 50.2486 22.3125 50.25H20.4531V48.75ZM9.29688 44.25H11.1562C12.6351 44.2514 14.0529 44.7259 15.0987 45.5695C16.1444 46.4131 16.7327 47.5569 16.7344 48.75V50.25H14.875C13.3961 50.2486 11.9783 49.774 10.9326 48.9304C9.88684 48.0868 9.2986 46.943 9.29688 45.75V44.25Z" fill="#EA39EE"/>
<path id="Vector_4" d="M17.2959 40.824C17.6432 41.0972 18.1091 41.2502 18.5942 41.2502C19.0793 41.2502 19.5452 41.0972 19.8925 40.824L22.4343 38.8245C23.2782 38.1663 23.9493 37.3779 24.4076 36.5062C24.866 35.6345 25.1022 34.6973 25.1022 33.7503C25.1022 32.8034 24.866 31.8662 24.4076 30.9945C23.9493 30.1228 23.2782 29.3344 22.4343 28.6762L19.8925 26.676C19.5452 26.4027 19.0793 26.2498 18.5942 26.2498C18.1091 26.2498 17.6432 26.4027 17.2959 26.676L14.7532 28.6755C13.9093 29.3336 13.2382 30.122 12.7799 30.9937C12.3215 31.8655 12.0853 32.8027 12.0853 33.7496C12.0853 34.6965 12.3215 35.6337 12.7799 36.5055C13.2382 37.3772 13.9093 38.1656 14.7532 38.8237L17.2959 40.824ZM17.3498 30.8235L18.5937 29.8447L19.8377 30.8242C20.3263 31.2029 20.715 31.6572 20.9805 32.16C21.2461 32.6629 21.3829 33.2038 21.3829 33.7503C21.3829 34.2969 21.2461 34.8378 20.9805 35.3407C20.715 35.8435 20.3263 36.2978 19.8377 36.6765L18.5937 37.6545L17.3498 36.6757C16.8612 36.2971 16.4725 35.8427 16.207 35.3399C15.9414 34.8371 15.8045 34.2962 15.8045 33.7496C15.8045 33.203 15.9414 32.6621 16.207 32.1593C16.4725 31.6565 16.8612 31.2021 17.3498 30.8235ZM74.0608 38.25C71.1865 38.2524 68.4308 39.1744 66.3982 40.8139C64.3656 42.4533 63.2222 44.6762 63.2187 46.995V47.3535C63.2202 48.121 63.5989 48.8568 64.2718 49.3995C64.9447 49.9422 65.8568 50.2475 66.8083 50.2485H67.2527C70.1264 50.2459 72.8816 49.324 74.914 47.6849C76.9463 46.0457 78.0898 43.8233 78.0937 41.505V41.1465C78.0928 40.3786 77.7143 39.6425 77.0414 39.0995C76.3684 38.5565 75.456 38.251 74.5042 38.25H74.0608ZM51.7483 50.25H52.1917C53.1433 50.249 54.0556 49.9436 54.7285 49.4007C55.4014 48.8579 55.78 48.1219 55.7812 47.3542V46.9957C55.7781 44.677 54.6348 42.454 52.6024 40.8144C50.57 39.1748 47.8144 38.2526 44.9402 38.25H44.4958C43.5443 38.251 42.6322 38.5563 41.9593 39.099C41.2864 39.6416 40.9077 40.3774 40.9062 41.145V41.5035C40.9097 43.8221 42.053 46.0449 44.0854 47.6843C46.1178 49.3237 48.8732 50.2459 51.7473 50.2485L51.7483 50.25Z" fill="#EA39EE"/>
<path id="Vector_5" d="M59.5 30.75C63.0942 30.75 66.0078 28.3995 66.0078 25.5C66.0078 22.6005 63.0942 20.25 59.5 20.25C55.9058 20.25 52.9922 22.6005 52.9922 25.5C52.9922 28.3995 55.9058 30.75 59.5 30.75Z" fill="#EA39EE"/>
</g>
</g>
</svg>
