<svg width="125" height="120" viewBox="0 0 125 120" fill="none" xmlns="http://www.w3.org/2000/svg">
<g clip-path="url(#clip0_184_29)">
<path d="M123.047 82.5H115.922C122.117 73.5 121.052 58.6922 120.996 57.9844C120.959 57.5129 120.738 57.0721 120.377 56.7505C120.016 56.4289 119.541 56.2501 119.049 56.25H91.8887C91.3961 56.2501 90.9217 56.4289 90.5606 56.7505C90.1995 57.0721 89.9783 57.5129 89.9414 57.9844C89.79 60.4054 89.8011 62.8332 89.9746 65.2529C89.9487 65.3754 89.9356 65.5 89.9355 65.625C89.9379 65.8326 89.9766 66.0382 90.0498 66.2335C90.4814 71.3082 91.7256 77.7207 95.0156 82.4991H77.0606C79.2652 80.5342 80.8069 77.9809 81.4873 75.1679C82.2941 71.4799 82.1769 67.6607 81.1455 64.0247L80.0596 59.8219C80.0423 59.623 79.9919 59.428 79.9102 59.2444L78.9932 55.6997C78.6459 54.2693 77.809 52.9919 76.6163 52.0719C75.4236 51.152 73.944 50.6425 72.4141 50.625H64.4531V33.5766C64.8398 33.6865 65.2404 33.7446 65.6436 33.7491C65.9049 33.7495 66.1653 33.7212 66.4199 33.6647C67.4544 33.3606 68.3615 32.749 69.0107 31.9182C69.195 31.7033 69.3986 31.5044 69.6191 31.3238C69.9064 31.2605 70.1995 31.2247 70.4941 31.2169C71.5623 31.2322 72.6077 30.9202 73.4785 30.3263C74.2625 29.6243 74.7974 28.7039 75.0078 27.6947C75.0817 27.4091 75.1841 27.1309 75.3135 26.8641C75.5441 26.6852 75.7927 26.5288 76.0557 26.3972C77.0257 25.957 77.8273 25.2356 78.3477 24.3347C78.7377 23.3846 78.8117 22.3419 78.5596 21.3497C78.497 21.0504 78.4668 20.7457 78.4697 20.4404C78.5977 20.1829 78.7514 19.938 78.9287 19.7091C79.6065 18.9005 80.0079 17.9108 80.0781 16.8751C80.0076 15.8389 79.6059 14.8489 78.9277 14.0401C78.7519 13.8129 78.5988 13.5703 78.4707 13.3154C78.4663 13.0085 78.4961 12.7021 78.5596 12.4013C78.8122 11.4089 78.7382 10.3657 78.3477 9.41536C77.8274 8.51444 77.0258 7.79303 76.0557 7.35286C75.7952 7.22197 75.5483 7.06752 75.3184 6.89161C75.1865 6.62344 75.0828 6.3433 75.0088 6.05536C74.7978 5.0467 74.2626 4.12697 73.4785 3.42568C72.6082 2.83119 71.5631 2.51856 70.4951 2.53318C70.2044 2.5248 69.9151 2.49091 69.6309 2.43193C69.4052 2.25083 69.1976 2.04996 69.0107 1.83193C68.3619 1.00137 67.455 0.390115 66.4209 0.0863021C65.3741 -0.0761774 64.3006 0.0870928 63.3574 0.552239C63.0829 0.674142 62.7963 0.769306 62.502 0.836302C62.2061 0.770107 61.9182 0.674921 61.6426 0.552239C60.6999 0.0875457 59.6274 -0.0763365 58.5811 0.0844271C57.5465 0.388857 56.6393 1.00075 55.9902 1.83193C55.806 2.04679 55.6024 2.24568 55.3818 2.4263C55.0946 2.48957 54.8015 2.52536 54.5068 2.53318C53.4387 2.51787 52.3933 2.82985 51.5225 3.4238C50.7387 4.12556 50.2038 5.04559 49.9932 6.05443C49.9193 6.34038 49.8169 6.61885 49.6875 6.88599C49.4568 7.06486 49.2082 7.22126 48.9453 7.35286C47.9753 7.79313 47.1736 8.51452 46.6533 9.41536C46.2635 10.3652 46.1894 11.4076 46.4414 12.3994C46.5041 12.6991 46.5342 13.0041 46.5312 13.3097C46.4032 13.5672 46.2495 13.8121 46.0723 14.041C45.3942 14.8495 44.9924 15.8392 44.9219 16.8751C44.9926 17.9108 45.3943 18.9005 46.0723 19.7091C46.2482 19.9366 46.4012 20.1795 46.5293 20.4347C46.5337 20.7416 46.5039 21.048 46.4404 21.3488C46.188 22.3409 46.262 23.3837 46.6523 24.3338C47.1725 25.2347 47.9742 25.9561 48.9443 26.3963C49.2048 26.5272 49.4517 26.6816 49.6816 26.8576C49.8135 27.1257 49.9172 27.4059 49.9912 27.6938C50.202 28.7028 50.7372 29.6229 51.5215 30.3244C52.3918 30.9189 53.4369 31.2315 54.5049 31.2169C54.7956 31.2253 55.0849 31.2592 55.3691 31.3182C55.5948 31.4993 55.8024 31.7001 55.9893 31.9182C56.638 32.7491 57.5449 33.3607 58.5791 33.6647C59.232 33.7978 59.9097 33.7675 60.5469 33.5766V50.625H52.5859C51.056 50.6425 49.5764 51.152 48.3837 52.0719C47.191 52.9919 46.3541 54.2693 46.0068 55.6997L45.0898 59.2435C45.008 59.4274 44.9576 59.6227 44.9404 59.8219L43.8535 64.0247C42.8225 67.6612 42.706 71.4807 43.5137 75.1688C44.1937 77.9818 45.7351 80.5351 47.9395 82.5H29.9844C33.2754 77.7207 34.5186 71.3082 34.9502 66.2335C35.0236 66.0379 35.0622 65.8319 35.0645 65.6241C35.0643 65.4994 35.0512 65.3751 35.0254 65.2529C35.1989 62.8332 35.21 60.4054 35.0586 57.9844C35.0217 57.5129 34.8005 57.0721 34.4394 56.7505C34.0783 56.4289 33.6039 56.2501 33.1113 56.25H5.95117C5.45859 56.2501 4.98423 56.4289 4.62313 56.7505C4.26203 57.0721 4.04085 57.5129 4.00391 57.9844C3.8525 60.4054 3.86359 62.8332 4.03711 65.2529C4.01123 65.3754 3.99814 65.5 3.99805 65.625C4.00044 65.8326 4.03906 66.0382 4.1123 66.2335C4.54395 71.3082 5.78809 77.7207 9.07812 82.4991H1.95312C1.43512 82.4991 0.938339 82.6966 0.572057 83.0483C0.205775 83.3999 0 83.8768 0 84.3741L0 91.8741C0 92.3714 0.205775 92.8483 0.572057 93.1999C0.938339 93.5516 1.43512 93.7491 1.95312 93.7491H17.5781V116.249H15.625C15.107 116.249 14.6102 116.447 14.2439 116.798C13.8777 117.15 13.6719 117.627 13.6719 118.124C13.6719 118.621 13.8777 119.098 14.2439 119.45C14.6102 119.802 15.107 119.999 15.625 119.999H23.4375C23.9555 119.999 24.4523 119.802 24.8186 119.45C25.1848 119.098 25.3906 118.621 25.3906 118.124C25.3906 117.627 25.1848 117.15 24.8186 116.798C24.4523 116.447 23.9555 116.249 23.4375 116.249H21.4844V109.687H103.516V116.249H101.562C101.044 116.249 100.548 116.447 100.181 116.798C99.8151 117.15 99.6094 117.627 99.6094 118.124C99.6094 118.621 99.8151 119.098 100.181 119.45C100.548 119.802 101.044 119.999 101.562 119.999H109.375C109.893 119.999 110.39 119.802 110.756 119.45C111.122 119.098 111.328 118.621 111.328 118.124C111.328 117.627 111.122 117.15 110.756 116.798C110.39 116.447 109.893 116.249 109.375 116.249H107.422V93.7491H123.047C123.565 93.7491 124.062 93.5516 124.428 93.1999C124.794 92.8483 125 92.3714 125 91.8741V84.3741C125 83.8768 124.794 83.3999 124.428 83.0483C124.062 82.6966 123.565 82.5 123.047 82.5ZM93.8164 63.75C93.7594 62.5008 93.7425 61.2503 93.7656 60H117.172C117.191 60.9507 117.188 62.2529 117.121 63.75H93.8164ZM60.1641 29.7282C59.9492 29.8125 59.6455 29.9316 59.4609 29.9794C59.2642 29.8034 59.0781 29.6169 58.9033 29.4207C58.4087 28.8254 57.7976 28.3286 57.1045 27.9582C56.3706 27.6514 55.5806 27.4876 54.7803 27.4763C54.5201 27.464 54.2609 27.4374 54.0039 27.3966C53.8995 27.1485 53.8108 26.8946 53.7383 26.6363C53.5545 25.8881 53.223 25.1806 52.7617 24.5522C52.243 23.9735 51.6113 23.4976 50.9023 23.1516C50.6605 23.0249 50.4275 22.883 50.2051 22.7269C50.2192 22.4556 50.2511 22.1853 50.3008 21.9179C50.4652 21.1616 50.4791 20.3822 50.3418 19.621C50.134 18.8916 49.7823 18.2073 49.3057 17.6054C49.131 17.3737 48.9756 17.1292 48.8408 16.8741C48.9756 16.6197 49.1311 16.3758 49.3057 16.1447C49.7826 15.5421 50.1346 14.8572 50.3428 14.1272C50.4795 13.3662 50.4653 12.5872 50.3008 11.8313C50.2512 11.5638 50.2196 11.2936 50.2061 11.0222C50.4282 10.8662 50.6608 10.7243 50.9023 10.5976C51.612 10.2517 52.2444 9.77591 52.7637 9.19693C53.225 8.56856 53.5565 7.8611 53.7402 7.11286C53.8128 6.85454 53.9015 6.60064 54.0059 6.35255C54.2629 6.312 54.5221 6.28539 54.7822 6.27286C55.5826 6.26169 56.3726 6.0979 57.1064 5.79099C57.7991 5.42043 58.4098 4.92364 58.9043 4.32849C59.083 4.13724 59.3418 3.85786 59.4375 3.76505C59.6846 3.83773 59.9272 3.9238 60.1641 4.02286C60.8966 4.35697 61.6909 4.54816 62.501 4.58536C63.311 4.54816 64.1054 4.35697 64.8379 4.02286C65.0527 3.93849 65.3555 3.81849 65.541 3.76974C65.7374 3.94608 65.9232 4.13294 66.0977 4.32943C66.5923 4.92474 67.2034 5.42155 67.8965 5.79193C68.6304 6.09869 69.4204 6.26248 70.2207 6.2738C70.4809 6.28611 70.7401 6.31271 70.9971 6.35349C71.1015 6.60125 71.1902 6.85483 71.2627 7.11286C71.4464 7.8611 71.7779 8.56856 72.2393 9.19693C72.7579 9.77605 73.3896 10.2522 74.0986 10.5985C74.3405 10.7252 74.5735 10.8671 74.7959 11.0232C74.7818 11.2945 74.7498 11.5648 74.7002 11.8322C74.5358 12.5885 74.5218 13.3679 74.6592 14.1291C74.8669 14.8585 75.2187 15.5428 75.6953 16.1447C75.87 16.3761 76.0254 16.6203 76.1602 16.8751C76.0254 17.1298 75.87 17.374 75.6953 17.6054C75.2184 18.208 74.8664 18.8929 74.6582 19.6229C74.5215 20.3839 74.5357 21.1629 74.7002 21.9188C74.7498 22.1863 74.7814 22.4565 74.7949 22.7279C74.5728 22.8839 74.3402 23.0258 74.0986 23.1525C73.3893 23.4985 72.7573 23.9743 72.2383 24.5532C71.777 25.1815 71.4455 25.889 71.2617 26.6372C71.1892 26.8956 71.1004 27.1495 70.9961 27.3976C70.7391 27.4381 70.4799 27.4647 70.2197 27.4772C69.4192 27.4518 68.6245 27.6159 67.9056 27.955C67.1868 28.2941 66.5659 28.7978 66.0977 29.4216C65.9189 29.6129 65.6602 29.8922 65.5645 29.985C65.3174 29.9124 65.0748 29.8263 64.8379 29.7272C64.362 29.5299 63.8685 29.3746 63.3633 29.2632C63.0966 29.1314 62.8009 29.0626 62.501 29.0626C62.201 29.0626 61.9054 29.1314 61.6387 29.2632C61.1335 29.3746 60.6399 29.5309 60.1641 29.7282ZM49.7969 56.6016C49.936 55.9848 50.2862 55.4304 50.7917 55.0268C51.2971 54.6233 51.9288 54.3938 52.5859 54.375H72.4141C73.0712 54.3941 73.7027 54.6238 74.208 55.0275C74.7133 55.4312 75.0633 55.9857 75.2022 56.6025L75.5957 58.125H49.4043L49.7969 56.6016ZM59.833 76.875C59.833 77.3723 59.6272 77.8492 59.2609 78.2009C58.8947 78.5525 58.3979 78.75 57.8799 78.75C56.2946 78.7326 54.7624 78.1991 53.5341 77.2368C52.3057 76.2746 51.454 74.9406 51.1182 73.4532C51.0569 73.2126 51.0459 72.9627 51.0858 72.718C51.1256 72.4733 51.2156 72.2386 51.3505 72.0274C51.4855 71.8163 51.6626 71.6329 51.8718 71.4879C52.0809 71.3429 52.3179 71.2391 52.5691 71.1825C52.8203 71.1259 53.0807 71.1176 53.3352 71.1582C53.5897 71.1987 53.8333 71.2873 54.052 71.4187C54.2707 71.5502 54.4601 71.7219 54.6092 71.9241C54.7583 72.1262 54.8643 72.3546 54.9209 72.5963C55.0584 73.2593 55.426 73.8579 55.9636 74.2945C56.5011 74.731 57.177 74.9798 57.8809 75C58.3989 75 58.8956 75.1976 59.2619 75.5492C59.6282 75.9008 59.833 76.3778 59.833 76.875ZM7.87891 63.75C7.82191 62.5008 7.80498 61.2503 7.82812 60H31.2344C31.2539 60.9507 31.251 62.2529 31.1836 63.75H7.87891ZM103.516 105.938H21.4844V93.75H103.516V105.938ZM121.094 90H3.90625V86.25H121.094V90Z" fill="#EA39EE"/>
<path d="M101.562 51.5625H109.375C111.964 51.5598 114.446 50.5712 116.277 48.8136C118.108 47.056 119.138 44.6731 119.141 42.1875V38.4375C119.141 37.9402 118.935 37.4633 118.569 37.1117C118.202 36.76 117.706 36.5625 117.188 36.5625H113.281C111.763 36.5638 110.266 36.9056 108.909 37.5607C107.553 38.2159 106.375 39.1662 105.469 40.3359C104.563 39.1662 103.385 38.2159 102.028 37.5607C100.672 36.9056 99.1747 36.5638 97.6562 36.5625H93.75C93.232 36.5625 92.7352 36.76 92.3689 37.1117C92.0026 37.4633 91.7969 37.9402 91.7969 38.4375V42.1875C91.7997 44.6731 92.8295 47.056 94.6603 48.8136C96.4911 50.5712 98.9734 51.5598 101.562 51.5625ZM107.422 45.9375C107.424 44.4462 108.042 43.0165 109.14 41.9619C110.238 40.9074 111.728 40.3142 113.281 40.3125H115.234V42.1875C115.233 43.6788 114.615 45.1085 113.516 46.1631C112.418 47.2176 110.928 47.8108 109.375 47.8125H107.422V45.9375ZM95.7031 40.3125H97.6562C99.2097 40.3142 100.699 40.9074 101.797 41.9619C102.896 43.0165 103.514 44.4462 103.516 45.9375V47.8125H101.562C100.009 47.8108 98.5197 47.2176 97.4213 46.1631C96.3228 45.1085 95.7049 43.6788 95.7031 42.1875V40.3125Z" fill="#EA39EE"/>
<path d="M104.105 36.03C104.47 36.3716 104.96 36.5628 105.469 36.5628C105.979 36.5628 106.468 36.3716 106.833 36.03L109.503 33.5307C110.389 32.708 111.094 31.7225 111.576 30.6328C112.057 29.5432 112.305 28.3716 112.305 27.188C112.305 26.0044 112.057 24.8328 111.576 23.7432C111.094 22.6535 110.389 21.668 109.503 20.8453L106.833 18.345C106.468 18.0034 105.979 17.8123 105.469 17.8123C104.96 17.8123 104.47 18.0034 104.105 18.345L101.435 20.8444C100.548 21.6671 99.8432 22.6526 99.3617 23.7422C98.8803 24.8319 98.6322 26.0034 98.6322 27.1871C98.6322 28.3707 98.8803 29.5422 99.3617 30.6319C99.8432 31.7215 100.548 32.707 101.435 33.5297L104.105 36.03ZM104.162 23.5294L105.469 22.306L106.775 23.5303C107.289 24.0036 107.697 24.5716 107.976 25.2001C108.255 25.8287 108.399 26.5048 108.399 27.188C108.399 27.8712 108.255 28.5473 107.976 29.1759C107.697 29.8044 107.289 30.3724 106.775 30.8457L105.469 32.0682L104.162 30.8447C103.649 30.3714 103.241 29.8035 102.962 29.1749C102.683 28.5464 102.539 27.8703 102.539 27.1871C102.539 26.5039 102.683 25.8277 102.962 25.1992C103.241 24.5707 103.649 24.0027 104.162 23.5294ZM15.625 51.5625H23.4375C26.0266 51.5598 28.5089 50.5712 30.3397 48.8136C32.1705 47.0561 33.2003 44.6731 33.2031 42.1875V38.4375C33.2031 37.9402 32.9974 37.4633 32.6311 37.1117C32.2648 36.7601 31.768 36.5625 31.25 36.5625H27.3438C25.8253 36.5638 24.3283 36.9056 22.9719 37.5608C21.6155 38.2159 20.4373 39.1662 19.5312 40.336C18.6252 39.1662 17.447 38.2159 16.0906 37.5608C14.7342 36.9056 13.2372 36.5638 11.7188 36.5625H7.8125C7.2945 36.5625 6.79771 36.7601 6.43143 37.1117C6.06515 37.4633 5.85938 37.9402 5.85938 38.4375V42.1875C5.86222 44.6731 6.89201 47.0561 8.7228 48.8136C10.5536 50.5712 13.0359 51.5598 15.625 51.5625ZM21.4844 45.9375C21.4862 44.4462 22.1041 43.0165 23.2025 41.962C24.301 40.9075 25.7903 40.3143 27.3438 40.3125H29.2969V42.1875C29.2951 43.6788 28.6772 45.1086 27.5787 46.1631C26.4803 47.2176 24.9909 47.8108 23.4375 47.8125H21.4844V45.9375ZM9.76562 40.3125H11.7188C13.2722 40.3143 14.7615 40.9075 15.86 41.962C16.9584 43.0165 17.5763 44.4462 17.5781 45.9375V47.8125H15.625C14.0716 47.8108 12.5822 47.2176 11.4838 46.1631C10.3853 45.1086 9.76743 43.6788 9.76562 42.1875V40.3125Z" fill="#EA39EE"/>
<path d="M18.168 36.03C18.5328 36.3716 19.0222 36.5628 19.5318 36.5628C20.0413 36.5628 20.5308 36.3716 20.8955 36.03L23.5655 33.5307C24.4519 32.708 25.1568 31.7225 25.6383 30.6328C26.1197 29.5432 26.3679 28.3716 26.3679 27.188C26.3679 26.0044 26.1197 24.8328 25.6383 23.7432C25.1568 22.6535 24.4519 21.668 23.5655 20.8453L20.8955 18.345C20.5308 18.0034 20.0413 17.8123 19.5318 17.8123C19.0222 17.8123 18.5328 18.0034 18.168 18.345L15.4971 20.8444C14.6106 21.6671 13.9057 22.6526 13.4243 23.7422C12.9428 24.8319 12.6947 26.0034 12.6947 27.1871C12.6947 28.3707 12.9428 29.5422 13.4243 30.6319C13.9057 31.7215 14.6106 32.707 15.4971 33.5297L18.168 36.03ZM18.2246 23.5294L19.5313 22.306L20.8379 23.5303C21.3511 24.0036 21.7595 24.5716 22.0384 25.2001C22.3173 25.8287 22.4611 26.5048 22.4611 27.188C22.4611 27.8712 22.3173 28.5473 22.0384 29.1759C21.7595 29.8044 21.3511 30.3724 20.8379 30.8457L19.5313 32.0682L18.2246 30.8447C17.7114 30.3714 17.3031 29.8035 17.0242 29.1749C16.7452 28.5464 16.6014 27.8703 16.6014 27.1871C16.6014 26.5039 16.7452 25.8277 17.0242 25.1992C17.3031 24.5707 17.7114 24.0027 18.2246 23.5294ZM77.795 32.8125C74.7758 32.8155 71.8811 33.9681 69.7461 36.0174C67.611 38.0667 66.4099 40.8454 66.4063 43.7438V44.1919C66.4078 45.1514 66.8056 46.0711 67.5124 46.7494C68.2192 47.4278 69.1774 47.8094 70.1768 47.8107H70.6436C73.6622 47.8074 76.5564 46.655 78.6912 44.6061C80.826 42.5572 82.0271 39.7792 82.0313 36.8813V36.4332C82.0302 35.4734 81.6327 34.5532 80.9258 33.8744C80.219 33.1957 79.2605 32.8138 78.2608 32.8125H77.795ZM54.3575 47.8125H54.8233C55.8229 47.8113 56.7812 47.4295 57.488 46.751C58.1948 46.0724 58.5925 45.1525 58.5938 44.1928V43.7447C58.5904 40.8463 57.3896 38.0675 55.2547 36.0181C53.1198 33.9686 50.2253 32.8158 47.2061 32.8125H46.7393C45.7399 32.8138 44.7817 33.1954 44.0749 33.8738C43.3681 34.5521 42.9703 35.4718 42.9688 36.4313V36.8794C42.9724 39.7776 44.1734 42.5562 46.3082 44.6055C48.4431 46.6547 51.3375 47.8074 54.3565 47.8107L54.3575 47.8125Z" fill="#EA39EE"/>
<path d="M62.5 23.4375C66.2754 23.4375 69.3359 20.4994 69.3359 16.875C69.3359 13.2506 66.2754 10.3125 62.5 10.3125C58.7246 10.3125 55.6641 13.2506 55.6641 16.875C55.6641 20.4994 58.7246 23.4375 62.5 23.4375Z" fill="#EA39EE"/>
</g>
<defs>
<clipPath id="clip0_184_29">
<rect width="125" height="120" fill="white"/>
</clipPath>
</defs>
</svg>
