<svg width="40" height="38" viewBox="0 0 40 38" fill="none" xmlns="http://www.w3.org/2000/svg">
<g id="search-magnifier-zoom-svgrepo-com 1">
<path id="Vector" d="M13.8205 4.19098C15.2028 4.19946 16.5692 4.48722 17.8375 5.03698" stroke="#8B1FB1" stroke-opacity="0.5" stroke-width="2" stroke-miterlimit="10" stroke-linecap="round"/>
<path id="Vector_2" d="M19.2 5.75549C19.598 6.00493 19.9786 6.28124 20.339 6.58249C24.489 10.047 25.22 16.0875 22.1485 20.424C22.1419 20.434 22.1391 20.4461 22.1406 20.4581C22.1422 20.47 22.148 20.481 22.157 20.489L23.45 21.568C23.5054 21.6142 23.5708 21.6469 23.641 21.6635L24.1475 21.7835C25.2243 22.039 26.2272 22.541 27.077 23.25L35.9395 30.65C36.3092 30.9587 36.5412 31.4016 36.5843 31.8814C36.6274 32.3611 36.4782 32.8383 36.1695 33.208C36.0166 33.3911 35.8292 33.5422 35.6179 33.6528C35.4067 33.7635 35.1757 33.8314 34.9381 33.8528C34.4584 33.8959 33.9812 33.7467 33.6115 33.438L24.75 26.0385C23.9006 25.3292 23.2275 24.4323 22.784 23.4185L22.5755 22.9415C22.5467 22.8753 22.5029 22.8168 22.4475 22.7705L21.155 21.691C21.1455 21.6836 21.1336 21.6799 21.1216 21.6805C21.1096 21.6811 21.0982 21.6861 21.0895 21.6945C17.3575 25.5035 11.2565 25.85 7.10601 22.35C5.58949 21.0721 4.4746 19.3831 3.89551 17.4864C3.31642 15.5897 3.29781 13.566 3.84193 11.659C4.38604 9.75195 5.46969 8.04278 6.96246 6.7372C8.45522 5.43162 10.2935 4.58526 12.256 4.29999" stroke="#8B1FB1" stroke-opacity="0.5" stroke-width="2" stroke-miterlimit="10" stroke-linecap="round"/>
<g id="Group 34">
<g id="Group 35">
<path id="Vector_3" d="M11.1255 21.208C12.545 21.769 14.1052 21.8682 15.5843 21.4914C17.0634 21.1147 18.3861 20.2813 19.3644 19.1096C20.3426 17.938 20.9265 16.4878 21.0332 14.9652C21.1399 13.4426 20.7638 11.9251 19.9585 10.6285" stroke="#8B1FB1" stroke-opacity="0.5" stroke-miterlimit="10" stroke-linecap="round"/>
<path id="Vector_4" d="M7.64999 18.32C6.83534 17.0222 6.45231 15.5 6.55575 13.9712C6.65919 12.4424 7.2438 10.9856 8.22584 9.80946C9.20788 8.63327 10.537 7.79806 12.0227 7.42345C13.5085 7.04883 15.0747 7.15404 16.497 7.724" stroke="#8B1FB1" stroke-opacity="0.5" stroke-miterlimit="10" stroke-linecap="round"/>
</g>
</g>
</g>
</svg>
