<svg width="120" height="120" viewBox="0 0 90 90" fill="none" xmlns="http://www.w3.org/2000/svg">
<path d="M52.8289 43.3935C52.2011 42.8754 50.3604 43.5246 49.9901 44.1554C47.6967 48.0579 41.283 41.0728 39.8004 39.645C36.6247 36.5867 38.0434 33.9596 38.5219 31.2015C38.8099 29.5436 38.6712 28.0853 38.9257 27.8903C39.1497 27.7166 39.2457 27.5459 39.1055 27.4225C35.7272 24.4526 29.3546 12.8396 23.4026 19.0888C14.0145 28.9478 26.4015 42.1105 33.5588 48.7772C39.171 54.0038 46.2826 60.6796 54.2156 60.0381C54.3985 60.0305 54.5783 60.0366 54.7626 60.0183C56.3215 59.7684 57.7905 59.357 59.2853 58.6164C69.5665 53.5177 57.5284 47.2701 52.8289 43.3935ZM58.336 57.2632C56.7116 57.7021 54.6453 57.5299 53.8286 57.1825C53.0087 56.8351 52.0625 56.8046 51.6769 57.1932C51.2914 57.5817 50.7383 57.8956 50.4426 57.8926C50.1501 57.8911 49.4004 57.7372 48.7985 57.4812C48.1981 57.2252 48.1935 56.5059 48.7619 55.933C49.3287 55.36 49.7295 54.8526 49.6518 54.8023C49.5756 54.752 49.059 55.1833 48.5013 55.773C47.9421 56.3627 46.6636 56.3886 45.7036 55.7379C44.7451 55.0872 44.5013 53.9764 45.1169 53.3166C45.7341 52.6537 45.4049 51.4088 44.4099 50.496C43.4164 49.5832 42.0647 49.3928 41.3745 50.0891C40.6857 50.7855 39.1146 50.4366 37.8971 49.2724C36.8838 48.3048 35.8811 47.3295 34.8632 46.3832C34.6956 46.2278 34.5265 46.0693 34.3588 45.9093C34.0815 45.6457 34.4259 44.861 35.1284 44.16C35.8324 43.4545 36.0746 42.5417 35.6785 42.109C35.2823 41.6747 34.3527 41.8819 33.5969 42.5737C32.8396 43.2671 31.2579 42.8648 30.144 41.6031C30.0388 41.4842 29.9337 41.3653 29.8301 41.2465C28.7268 39.9741 28.6065 38.2232 29.4537 37.4217C30.3009 36.6202 30.9729 35.9482 30.9531 35.9192C30.9348 35.8903 30.2415 36.5288 29.4034 37.3486C28.5668 38.1684 27.0552 37.7463 26.1973 36.3002C25.8545 35.7227 25.536 35.136 25.2449 34.5402C24.5059 33.0271 24.992 30.8998 26.0861 29.8911C27.1786 28.8823 27.9832 27.4621 27.9527 26.717C27.9345 26.2705 27.936 25.8194 27.9634 25.3653C27.9954 24.9646 28.0457 24.5333 28.1188 24.0853C28.2346 23.3829 27.3767 23.7532 26.144 24.8991C25.9428 25.0865 25.7402 25.2724 25.539 25.4598C24.3047 26.6057 23.2533 26.8434 23.2777 25.9916C23.2914 25.4857 23.331 24.9737 23.3966 24.4541C24.003 19.645 27.9802 19.0202 30.9546 22.3269C31.7653 23.229 32.5135 24.1737 33.2754 25.1032C34.3406 26.4061 35.168 27.4636 35.0689 27.581C34.9912 27.6724 34.9623 27.7592 35.0049 27.8324C37.376 31.9543 32.6034 34.9425 35.8034 39.3829C37.7981 42.1486 41.3166 44.7147 44.2026 46.4503C45.7966 47.4103 47.4057 47.5307 48.8503 47.0766C50.4564 46.5707 52.5211 46.3436 53.8666 47.3539C55.936 48.9097 57.9703 50.4853 59.811 52.4953C61.8377 54.8633 61.3409 56.4526 58.336 57.2632Z" fill="white"/>
<path d="M41.1947 1.69296C25.9596 2.11658 12.9067 10.3223 6.02821 23.9467C2.33907 31.2579 1.83316 39.6907 3.15888 47.6358C3.6404 50.5219 5.28916 53.4217 4.90364 56.4297C4.53335 59.3143 3.07812 62.3619 2.03126 65.0819C0.551639 68.925 -0.286456 72.4572 0.0899249 76.5684C0.16002 77.3318 1.3425 77.3166 1.83926 77.216C11.1086 75.2914 18.8724 72.4861 27.9558 76.0366C33.9734 78.3878 41.2587 78.8922 47.5795 77.6442C60.2012 75.1528 70.3162 67.4606 76.1143 55.9772C89.0057 30.4396 67.8827 2.43658 41.1947 1.69296ZM8.20574 25.4629C11.7608 16.9676 18.7794 10.4899 27.1589 6.94553C28.7086 6.28877 29.0377 6.82515 27.837 8.00306C21.7707 13.9596 15.5962 20.0305 9.3364 26.1912C8.13716 27.3707 7.55659 27.0172 8.20574 25.4629ZM72.3962 57.3806C65.6945 70.6591 50.8313 77.1657 36.5014 75.677C36.2118 75.645 35.9254 75.6038 35.6404 75.5551C35.168 75.4713 34.9196 75.2503 35.0796 75.0903C35.2396 74.9288 34.8404 74.5554 34.1989 74.2293C33.5589 73.9048 32.829 73.8255 32.5532 74.0785C32.2789 74.333 30.7871 74.0389 29.248 73.3592C26.1913 72.0137 23.2183 70.6987 19.8568 71.232C18.0297 71.52 16.2103 71.869 14.397 72.2453C12.7482 72.5867 11.584 71.7471 11.9558 70.3802C12.3276 69.0164 11.7303 68.8686 10.4975 70.016C9.79202 70.6728 9.08802 71.3295 8.3825 71.9878C7.15126 73.1353 5.44459 74.2263 4.5684 74.4198C3.69221 74.6103 2.92573 73.3882 3.15278 71.7212C3.60992 68.352 4.87164 65.1139 6.03735 61.8484C6.60269 60.2621 7.81564 58.1333 8.80154 57.1185C9.39888 56.5029 9.99469 55.8872 10.5905 55.2808C11.3753 54.4716 12.1554 53.664 12.9356 52.861C14.1074 51.6526 14.8739 50.0038 14.6819 49.1672C14.4914 48.3307 13.4034 48.608 12.2088 49.7951C11.5825 50.4168 10.9593 51.0354 10.3391 51.6556C9.14593 52.8427 8.16916 52.4267 7.69831 50.8099C7.41488 49.8393 7.05069 48.8107 6.70783 47.8217C6.15621 46.2324 6.7764 43.9528 7.97564 42.7733C9.26935 41.4949 10.5631 40.221 11.8553 38.944C13.053 37.7631 14.1684 35.453 14.4991 33.8133C14.8297 32.1737 14.2659 31.8507 13.0941 33.0591C11.2274 34.9821 9.36383 36.9067 7.50021 38.8312C6.3284 40.0396 5.33792 39.8278 5.41716 38.3619C5.49792 36.896 6.60726 34.7398 7.78212 33.5345C11.04 30.1958 14.1303 27.0309 16.992 24.1067C18.1699 22.9044 19.8217 20.7528 20.8076 19.3874C23.0553 16.2728 25.7707 13.5253 28.8564 11.2427C30.2095 10.2415 32.3414 8.56534 33.536 7.38134C34.749 6.18058 35.7288 5.22515 36.4297 4.5623C36.4815 4.51049 36.5227 4.46782 36.5638 4.42668C36.6385 4.35201 36.7284 4.28801 36.7665 4.28344C36.8046 4.27734 35.8903 5.25715 34.7215 6.46706C34.6255 6.56611 34.5265 6.6682 34.4275 6.77182C33.2587 7.98172 32.4404 8.88534 32.5958 8.7863C32.7528 8.68877 33.8332 7.63582 35.0065 6.42896C35.0141 6.42134 35.0202 6.41372 35.0278 6.40763C36.2012 5.20077 37.9962 4.10515 39.0446 4.01372C39.677 3.95887 40.3094 3.91925 40.9448 3.90096C41.0225 3.90401 41.0987 3.90858 41.1734 3.91468C41.2998 3.92382 41.0255 4.31696 40.5623 4.79391C40.096 5.26934 41.0195 5.23582 42.6652 4.88077C42.6941 4.87468 42.7215 4.86858 42.749 4.86249C44.3947 4.51201 47.104 4.53791 48.7406 4.93258C71.1558 10.3345 83.3295 35.7242 72.3962 57.3806Z" fill="white"/>
<path d="M13.6259 61.6137C12.9387 62.301 12.2392 63.0034 11.523 63.7242C10.3345 64.9143 10.371 64.9509 11.6008 63.8019C12.1859 63.2579 12.7726 62.7093 13.3592 62.1623C14.5905 61.0133 15.6312 59.9421 15.6846 59.7699C15.7379 59.5932 14.8145 60.4191 13.6259 61.6137Z" fill="white"/>
<path d="M16.0366 25.76C10.8388 31.1253 8.67198 33.3867 15.8689 26.0648C17.0499 24.8655 18.0388 23.8202 18.08 23.7318C18.1211 23.6419 17.2084 24.5516 16.0366 25.76Z" fill="white"/>
</svg>
