<svg width="80" height="85" viewBox="0 0 80 85" fill="none" xmlns="http://www.w3.org/2000/svg">
<path d="M25.4693 60.1559C28.1554 62.946 30.6001 65.8851 32.7857 68.9519C34.4597 71.6074 35.8025 74.3932 36.794 77.2673C37.6302 79.1872 38.3862 79.7603 40.0114 79.7603C41.7826 79.7603 42.5862 78.7855 43.2069 77.2778C44.1785 74.4638 45.4837 71.7335 47.104 69.1256C50.2897 64.7118 53.9176 60.5202 57.9507 56.5937C62.0171 52.6778 65.6135 48.4531 68.6905 43.9776C71.1475 39.8077 72.4135 35.2383 72.3936 30.6124C72.4264 26.3187 71.1728 22.0833 68.7416 18.274" stroke="white" stroke-width="5" stroke-linecap="round" stroke-linejoin="round"/>
<path d="M10.7971 43.0401C14.2667 49.4993 20.9574 55.1774 25.4841 60.1604L49.5274 36.9467C48.3497 38.071 46.8889 38.9754 45.2441 39.5985C43.5993 40.2215 41.8092 40.5486 39.9955 40.5574C38.3698 40.5636 36.7588 40.3075 35.2552 39.8037C33.7516 39.2999 32.3853 38.5584 31.2351 37.6221C30.0848 36.6857 29.1734 35.5731 28.5533 34.3482C27.9333 33.1233 27.6169 31.8105 27.6224 30.4855C27.6624 28.1229 28.6623 25.8377 30.4655 23.9875" stroke="white" stroke-width="5" stroke-linecap="round" stroke-linejoin="round"/>
<path d="M49.7957 5.26904C53.852 6.30824 57.6155 7.99217 60.8688 10.2236C64.1221 12.455 66.8007 15.1896 68.75 18.2696L49.5346 36.9333C51.3279 35.0696 52.3262 32.7798 52.3777 30.4116C52.3471 27.7513 51.0347 25.2074 48.7235 23.3288C46.4124 21.4502 43.2878 20.3874 40.0238 20.3697C38.2105 20.3897 36.4228 20.721 34.7772 21.3422C33.1316 21.9633 31.6652 22.8602 30.4736 23.9745" stroke="white" stroke-width="5" stroke-linecap="round" stroke-linejoin="round"/>
<path d="M15.2017 13.5158C18.2184 10.5564 21.999 8.17603 26.274 6.54423C30.5489 4.91243 35.2129 4.06943 39.9334 4.07533C43.2698 4.06773 46.5883 4.47269 49.7757 5.27639L30.4562 23.9842" stroke="white" stroke-width="5" stroke-linecap="round" stroke-linejoin="round"/>
<path d="M10.7971 43.0401C8.64352 39.1176 7.55481 34.8622 7.60548 30.5651C7.56925 24.3268 10.2621 18.2821 15.2007 13.5162L30.4671 23.9863L10.7971 43.0401Z" stroke="white" stroke-width="5" stroke-linecap="round" stroke-linejoin="round"/>
</svg>
